<svg width="46" height="62" viewBox="0 0 46 62" fill="none" xmlns="http://www.w3.org/2000/svg">
<mask id="path-1-outside-1_423_526" maskUnits="userSpaceOnUse" x="15" y="3" width="15" height="17" fill="black">
<rect fill="white" x="15" y="3" width="15" height="17"/>
<path d="M27.38 19H21.08C19.4133 19 18.1733 18.6667 17.36 18C16.56 17.3333 16.16 16.3067 16.16 14.92V8.68C16.16 7.29333 16.56 6.26667 17.36 5.6C18.1733 4.93333 19.4133 4.6 21.08 4.6H26.08C26.3333 4.6 26.5133 4.66 26.62 4.78C26.74 4.88667 26.8 5.06667 26.8 5.32V7.74C26.8 7.99333 26.74 8.18 26.62 8.3C26.5133 8.40667 26.3333 8.46 26.08 8.46H21.92C21.5067 8.46 21.2 8.54667 21 8.72C20.8 8.88 20.7 9.12667 20.7 9.46V14.24C20.7 14.5733 20.7733 14.82 20.92 14.98C21.08 15.14 21.3133 15.22 21.62 15.22H23.56V12.1C23.56 11.8467 23.6133 11.6667 23.72 11.56C23.84 11.44 24.0267 11.38 24.28 11.38H27.38C27.6333 11.38 27.8133 11.44 27.92 11.56C28.04 11.6667 28.1 11.8467 28.1 12.1V18.28C28.1 18.5333 28.04 18.72 27.92 18.84C27.8133 18.9467 27.6333 19 27.38 19Z"/>
</mask>
<path d="M27.38 19H21.08C19.4133 19 18.1733 18.6667 17.36 18C16.56 17.3333 16.16 16.3067 16.16 14.92V8.68C16.16 7.29333 16.56 6.26667 17.36 5.6C18.1733 4.93333 19.4133 4.6 21.08 4.6H26.08C26.3333 4.6 26.5133 4.66 26.62 4.78C26.74 4.88667 26.8 5.06667 26.8 5.32V7.74C26.8 7.99333 26.74 8.18 26.62 8.3C26.5133 8.40667 26.3333 8.46 26.08 8.46H21.92C21.5067 8.46 21.2 8.54667 21 8.72C20.8 8.88 20.7 9.12667 20.7 9.46V14.24C20.7 14.5733 20.7733 14.82 20.92 14.98C21.08 15.14 21.3133 15.22 21.62 15.22H23.56V12.1C23.56 11.8467 23.6133 11.6667 23.72 11.56C23.84 11.44 24.0267 11.38 24.28 11.38H27.38C27.6333 11.38 27.8133 11.44 27.92 11.56C28.04 11.6667 28.1 11.8467 28.1 12.1V18.28C28.1 18.5333 28.04 18.72 27.92 18.84C27.8133 18.9467 27.6333 19 27.38 19Z" fill="url(#paint0_linear_423_526)"/>
<path d="M17.36 18L16.7198 18.7682L16.7261 18.7734L17.36 18ZM17.36 5.6L16.7261 4.82658L16.7198 4.83178L17.36 5.6ZM26.62 4.78L25.8726 5.44436L25.9117 5.48833L25.9556 5.52741L26.62 4.78ZM21 8.72L21.6247 9.50087L21.6401 9.48858L21.6549 9.47569L21 8.72ZM20.92 14.98L20.1828 15.6557L20.1975 15.6717L20.2129 15.6871L20.92 14.98ZM23.56 15.22V16.22H24.56V15.22H23.56ZM27.92 11.56L27.1726 12.2244L27.2117 12.2683L27.2556 12.3074L27.92 11.56ZM27.92 18.84L28.6271 19.5471H28.6271L27.92 18.84ZM27.38 18H21.08V20H27.38V18ZM21.08 18C19.5174 18 18.5502 17.6826 17.9939 17.2266L16.7261 18.7734C17.7965 19.6508 19.3092 20 21.08 20V18ZM18.0002 17.2318C17.498 16.8133 17.16 16.1147 17.16 14.92H15.16C15.16 16.4986 15.622 17.8534 16.7198 18.7682L18.0002 17.2318ZM17.16 14.92V8.68H15.16V14.92H17.16ZM17.16 8.68C17.16 7.48531 17.498 6.7867 18.0002 6.36822L16.7198 4.83178C15.622 5.74663 15.16 7.10136 15.16 8.68H17.16ZM17.9939 6.37339C18.5502 5.91744 19.5174 5.6 21.08 5.6V3.6C19.3092 3.6 17.7965 3.94922 16.7261 4.82661L17.9939 6.37339ZM21.08 5.6H26.08V3.6H21.08V5.6ZM26.08 5.6C26.1329 5.6 26.1284 5.6069 26.0888 5.59368C26.043 5.57842 25.9552 5.53727 25.8726 5.44436L27.3674 4.11563C26.9846 3.68497 26.4562 3.6 26.08 3.6V5.6ZM25.9556 5.52741C25.8627 5.44483 25.8216 5.35701 25.8063 5.31123C25.7931 5.27156 25.8 5.2671 25.8 5.32H27.8C27.8 4.94379 27.715 4.41541 27.2844 4.03259L25.9556 5.52741ZM25.8 5.32V7.74H27.8V5.32H25.8ZM25.8 7.74C25.8 7.79146 25.7935 7.79357 25.803 7.76399C25.814 7.72964 25.8443 7.66153 25.9129 7.59289L27.3271 9.00711C27.7097 8.62451 27.8 8.12915 27.8 7.74H25.8ZM25.9129 7.59289C26.0028 7.50296 26.0896 7.47048 26.1209 7.4612C26.1489 7.4529 26.1417 7.46 26.08 7.46V9.46C26.4287 9.46 26.9398 9.39443 27.3271 9.00711L25.9129 7.59289ZM26.08 7.46H21.92V9.46H26.08V7.46ZM21.92 7.46C21.3948 7.46 20.805 7.56574 20.3451 7.96431L21.6549 9.47569C21.6237 9.50278 21.6115 9.49874 21.652 9.48731C21.6951 9.47512 21.7796 9.46 21.92 9.46V7.46ZM20.3753 7.93913C19.8703 8.34317 19.7 8.92191 19.7 9.46H21.7C21.7 9.39078 21.7106 9.37873 21.7017 9.4007C21.697 9.41237 21.6882 9.42998 21.6735 9.4499C21.6587 9.46999 21.6417 9.4873 21.6247 9.50087L20.3753 7.93913ZM19.7 9.46V14.24H21.7V9.46H19.7ZM19.7 14.24C19.7 14.694 19.7963 15.234 20.1828 15.6557L21.6572 14.3043C21.7036 14.355 21.7149 14.3948 21.7135 14.39C21.7126 14.387 21.7091 14.3739 21.7059 14.3483C21.7026 14.3227 21.7 14.2871 21.7 14.24H19.7ZM20.2129 15.6871C20.6193 16.0935 21.1449 16.22 21.62 16.22V14.22C21.5513 14.22 21.5298 14.2108 21.5393 14.2141C21.5449 14.2159 21.5576 14.221 21.5746 14.2314C21.5919 14.2419 21.61 14.2558 21.6271 14.2729L20.2129 15.6871ZM21.62 16.22H23.56V14.22H21.62V16.22ZM24.56 15.22V12.1H22.56V15.22H24.56ZM24.56 12.1C24.56 12.0383 24.5671 12.0311 24.5588 12.0591C24.5495 12.0904 24.517 12.1772 24.4271 12.2671L23.0129 10.8529C22.6256 11.2402 22.56 11.7513 22.56 12.1H24.56ZM24.4271 12.2671C24.3585 12.3357 24.2904 12.366 24.256 12.377C24.2264 12.3865 24.2285 12.38 24.28 12.38V10.38C23.8909 10.38 23.3955 10.4703 23.0129 10.8529L24.4271 12.2671ZM24.28 12.38H27.38V10.38H24.28V12.38ZM27.38 12.38C27.4329 12.38 27.4284 12.3869 27.3888 12.3737C27.343 12.3584 27.2552 12.3173 27.1726 12.2244L28.6674 10.8956C28.2846 10.465 27.7562 10.38 27.38 10.38V12.38ZM27.2556 12.3074C27.1627 12.2248 27.1216 12.137 27.1063 12.0912C27.0931 12.0516 27.1 12.0471 27.1 12.1H29.1C29.1 11.7238 29.015 11.1954 28.5844 10.8126L27.2556 12.3074ZM27.1 12.1V18.28H29.1V12.1H27.1ZM27.1 18.28C27.1 18.3315 27.0935 18.3336 27.103 18.304C27.114 18.2696 27.1443 18.2015 27.2129 18.1329L28.6271 19.5471C29.0097 19.1645 29.1 18.6691 29.1 18.28H27.1ZM27.2129 18.1329C27.3028 18.043 27.3896 18.0105 27.4209 18.0012C27.4489 17.9929 27.4417 18 27.38 18V20C27.7287 20 28.2398 19.9344 28.6271 19.5471L27.2129 18.1329Z" fill="black" mask="url(#path-1-outside-1_423_526)"/>
<mask id="path-3-outside-2_423_526" maskUnits="userSpaceOnUse" x="0" y="22" width="46" height="17" fill="black">
<rect fill="white" y="22" width="46" height="17"/>
<path d="M5.2 38H2.1C1.84667 38 1.66 37.9467 1.54 37.84C1.43333 37.72 1.38 37.5333 1.38 37.28V24.32C1.38 24.0667 1.43333 23.8867 1.54 23.78C1.66 23.66 1.84667 23.6 2.1 23.6H8.22C10.0333 23.6 11.2733 23.96 11.94 24.68C12.6067 25.4 12.94 26.34 12.94 27.5V30.06C12.94 31.22 12.6067 32.16 11.94 32.88C11.2733 33.6 10.0333 33.96 8.22 33.96H5.92V37.28C5.92 37.5333 5.86 37.72 5.74 37.84C5.63333 37.9467 5.45333 38 5.2 38ZM5.88 27.34V30.36H7.68C8.06667 30.36 8.32 30.26 8.44 30.06C8.56 29.86 8.62 29.6333 8.62 29.38V28.32C8.62 28.0667 8.56 27.84 8.44 27.64C8.32 27.44 8.06667 27.34 7.68 27.34H5.88ZM36.6063 38H33.5063C33.2529 38 33.0663 37.9467 32.9463 37.84C32.8396 37.72 32.7863 37.5333 32.7863 37.28V24.32C32.7863 24.0667 32.8396 23.8867 32.9463 23.78C33.0663 23.66 33.2529 23.6 33.5063 23.6H39.6263C41.4396 23.6 42.6796 23.96 43.3463 24.68C44.0129 25.4 44.3463 26.34 44.3463 27.5V30.06C44.3463 31.22 44.0129 32.16 43.3463 32.88C42.6796 33.6 41.4396 33.96 39.6263 33.96H37.3263V37.28C37.3263 37.5333 37.2663 37.72 37.1463 37.84C37.0396 37.9467 36.8596 38 36.6063 38ZM37.2862 27.34V30.36H39.0863C39.4729 30.36 39.7263 30.26 39.8463 30.06C39.9663 29.86 40.0263 29.6333 40.0263 29.38V28.32C40.0263 28.0667 39.9663 27.84 39.8463 27.64C39.7263 27.44 39.4729 27.34 39.0863 27.34H37.2862Z"/>
</mask>
<path d="M5.2 38H2.1C1.84667 38 1.66 37.9467 1.54 37.84C1.43333 37.72 1.38 37.5333 1.38 37.28V24.32C1.38 24.0667 1.43333 23.8867 1.54 23.78C1.66 23.66 1.84667 23.6 2.1 23.6H8.22C10.0333 23.6 11.2733 23.96 11.94 24.68C12.6067 25.4 12.94 26.34 12.94 27.5V30.06C12.94 31.22 12.6067 32.16 11.94 32.88C11.2733 33.6 10.0333 33.96 8.22 33.96H5.92V37.28C5.92 37.5333 5.86 37.72 5.74 37.84C5.63333 37.9467 5.45333 38 5.2 38ZM5.88 27.34V30.36H7.68C8.06667 30.36 8.32 30.26 8.44 30.06C8.56 29.86 8.62 29.6333 8.62 29.38V28.32C8.62 28.0667 8.56 27.84 8.44 27.64C8.32 27.44 8.06667 27.34 7.68 27.34H5.88ZM36.6063 38H33.5063C33.2529 38 33.0663 37.9467 32.9463 37.84C32.8396 37.72 32.7863 37.5333 32.7863 37.28V24.32C32.7863 24.0667 32.8396 23.8867 32.9463 23.78C33.0663 23.66 33.2529 23.6 33.5063 23.6H39.6263C41.4396 23.6 42.6796 23.96 43.3463 24.68C44.0129 25.4 44.3463 26.34 44.3463 27.5V30.06C44.3463 31.22 44.0129 32.16 43.3463 32.88C42.6796 33.6 41.4396 33.96 39.6263 33.96H37.3263V37.28C37.3263 37.5333 37.2663 37.72 37.1463 37.84C37.0396 37.9467 36.8596 38 36.6063 38ZM37.2862 27.34V30.36H39.0863C39.4729 30.36 39.7263 30.26 39.8463 30.06C39.9663 29.86 40.0263 29.6333 40.0263 29.38V28.32C40.0263 28.0667 39.9663 27.84 39.8463 27.64C39.7263 27.44 39.4729 27.34 39.0863 27.34H37.2862Z" fill="url(#paint1_linear_423_526)"/>
<path d="M1.54 37.84L0.792591 38.5044L0.831671 38.5483L0.875636 38.5874L1.54 37.84ZM1.54 23.78L0.832893 23.0729H0.832893L1.54 23.78ZM11.94 24.68L11.2062 25.3594L11.2062 25.3594L11.94 24.68ZM11.94 32.88L11.2062 32.2006H11.2062L11.94 32.88ZM5.92 33.96V32.96H4.92V33.96H5.92ZM5.74 37.84L5.03289 37.1329L5.03289 37.1329L5.74 37.84ZM5.88 27.34V26.34H4.88V27.34H5.88ZM5.88 30.36H4.88V31.36H5.88V30.36ZM8.44 30.06L9.29749 30.5745L9.29749 30.5745L8.44 30.06ZM8.44 27.64L7.58251 28.1545L7.58251 28.1545L8.44 27.64ZM5.2 37H2.1V39H5.2V37ZM2.1 37C2.03966 37 2.02632 36.9932 2.04472 36.9985C2.06597 37.0045 2.13118 37.0275 2.20436 37.0926L0.875636 38.5874C1.25909 38.9283 1.73644 39 2.1 39V37ZM2.28741 37.1756C2.35246 37.2488 2.37545 37.314 2.38152 37.3353C2.38678 37.3537 2.38 37.3403 2.38 37.28H0.38C0.38 37.6436 0.451739 38.1209 0.792591 38.5044L2.28741 37.1756ZM2.38 37.28V24.32H0.38V37.28H2.38ZM2.38 24.32C2.38 24.2583 2.3871 24.2511 2.3788 24.2791C2.36952 24.3104 2.33704 24.3972 2.24711 24.4871L0.832893 23.0729C0.445574 23.4602 0.38 23.9713 0.38 24.32H2.38ZM2.24711 24.4871C2.17847 24.5557 2.11036 24.586 2.07601 24.597C2.04643 24.6065 2.04854 24.6 2.1 24.6V22.6C1.71085 22.6 1.21549 22.6903 0.832893 23.0729L2.24711 24.4871ZM2.1 24.6H8.22V22.6H2.1V24.6ZM8.22 24.6C9.97031 24.6 10.8375 24.9611 11.2062 25.3594L12.6738 24.0006C11.7092 22.9589 10.0964 22.6 8.22 22.6V24.6ZM11.2062 25.3594C11.6713 25.8616 11.94 26.5431 11.94 27.5H13.94C13.94 26.1369 13.5421 24.9384 12.6738 24.0006L11.2062 25.3594ZM11.94 27.5V30.06H13.94V27.5H11.94ZM11.94 30.06C11.94 31.0169 11.6713 31.6984 11.2062 32.2006L12.6738 33.5594C13.5421 32.6216 13.94 31.4231 13.94 30.06H11.94ZM11.2062 32.2006C10.8375 32.5989 9.97031 32.96 8.22 32.96V34.96C10.0964 34.96 11.7092 34.6011 12.6738 33.5594L11.2062 32.2006ZM8.22 32.96H5.92V34.96H8.22V32.96ZM4.92 33.96V37.28H6.92V33.96H4.92ZM4.92 37.28C4.92 37.3315 4.91346 37.3336 4.92297 37.304C4.93401 37.2696 4.96426 37.2015 5.03289 37.1329L6.44711 38.5471C6.82971 38.1645 6.92 37.6691 6.92 37.28H4.92ZM5.03289 37.1329C5.12283 37.043 5.2096 37.0105 5.24091 37.0012C5.26892 36.9929 5.2617 37 5.2 37V39C5.54875 39 6.05979 38.9344 6.44711 38.5471L5.03289 37.1329ZM4.88 27.34V30.36H6.88V27.34H4.88ZM5.88 31.36H7.68V29.36H5.88V31.36ZM7.68 31.36C8.1791 31.36 8.90084 31.2356 9.29749 30.5745L7.58251 29.5455C7.61491 29.4915 7.6557 29.4462 7.69861 29.4117C7.7402 29.3783 7.77529 29.3618 7.79283 29.3548C7.80953 29.3483 7.81103 29.35 7.79062 29.3532C7.77036 29.3564 7.73456 29.36 7.68 29.36V31.36ZM9.29749 30.5745C9.51872 30.2058 9.62 29.7984 9.62 29.38H7.62C7.62 29.4682 7.60128 29.5142 7.58251 29.5455L9.29749 30.5745ZM9.62 29.38V28.32H7.62V29.38H9.62ZM9.62 28.32C9.62 27.9016 9.51872 27.4942 9.29749 27.1255L7.58251 28.1545C7.60128 28.1858 7.62 28.2318 7.62 28.32H9.62ZM9.29749 27.1255C8.90084 26.4644 8.17911 26.34 7.68 26.34V28.34C7.73456 28.34 7.77036 28.3436 7.79062 28.3468C7.81103 28.3499 7.80953 28.3517 7.79283 28.3452C7.77529 28.3382 7.7402 28.3217 7.69861 28.2883C7.65569 28.2538 7.61491 28.2085 7.58251 28.1545L9.29749 27.1255ZM7.68 26.34H5.88V28.34H7.68V26.34ZM32.9463 37.84L32.1988 38.5044L32.2379 38.5483L32.2819 38.5874L32.9463 37.84ZM32.9463 23.78L32.2391 23.0729L32.9463 23.78ZM43.3462 24.68L42.6125 25.3594L42.6125 25.3594L43.3462 24.68ZM43.3462 32.88L42.6125 32.2006L43.3462 32.88ZM37.3262 33.96V32.96H36.3262V33.96H37.3262ZM37.1463 37.84L36.4391 37.1329V37.1329L37.1463 37.84ZM37.2863 27.34V26.34H36.2863V27.34H37.2863ZM37.2863 30.36H36.2863V31.36H37.2863V30.36ZM39.8462 30.06L40.7037 30.5745V30.5745L39.8462 30.06ZM39.8462 27.64L38.9888 28.1545V28.1545L39.8462 27.64ZM36.6063 37H33.5062V39H36.6063V37ZM33.5062 37C33.4459 37 33.4326 36.9932 33.451 36.9985C33.4722 37.0045 33.5374 37.0275 33.6106 37.0926L32.2819 38.5874C32.6653 38.9283 33.1427 39 33.5062 39V37ZM33.6937 37.1756C33.7587 37.2488 33.7817 37.314 33.7878 37.3353C33.793 37.3537 33.7863 37.3403 33.7863 37.28H31.7863C31.7863 37.6436 31.858 38.1209 32.1988 38.5044L33.6937 37.1756ZM33.7863 37.28V24.32H31.7863V37.28H33.7863ZM33.7863 24.32C33.7863 24.2583 33.7933 24.2511 33.785 24.2791C33.7758 24.3104 33.7433 24.3972 33.6534 24.4871L32.2391 23.0729C31.8518 23.4602 31.7863 23.9713 31.7863 24.32H33.7863ZM33.6534 24.4871C33.5847 24.5557 33.5166 24.586 33.4823 24.597C33.4527 24.6065 33.4548 24.6 33.5062 24.6V22.6C33.1171 22.6 32.6217 22.6903 32.2391 23.0729L33.6534 24.4871ZM33.5062 24.6H39.6263V22.6H33.5062V24.6ZM39.6263 24.6C41.3766 24.6 42.2437 24.9611 42.6125 25.3594L44.08 24.0006C43.1155 22.9589 41.5026 22.6 39.6263 22.6V24.6ZM42.6125 25.3594C43.0775 25.8616 43.3462 26.5431 43.3462 27.5H45.3462C45.3462 26.1369 44.9483 24.9384 44.08 24.0006L42.6125 25.3594ZM43.3462 27.5V30.06H45.3462V27.5H43.3462ZM43.3462 30.06C43.3462 31.0169 43.0775 31.6984 42.6125 32.2006L44.08 33.5594C44.9483 32.6216 45.3462 31.4231 45.3462 30.06H43.3462ZM42.6125 32.2006C42.2437 32.5989 41.3766 32.96 39.6263 32.96V34.96C41.5026 34.96 43.1155 34.6011 44.08 33.5594L42.6125 32.2006ZM39.6263 32.96H37.3262V34.96H39.6263V32.96ZM36.3262 33.96V37.28H38.3262V33.96H36.3262ZM36.3262 37.28C36.3262 37.3315 36.3197 37.3336 36.3292 37.304C36.3403 37.2696 36.3705 37.2015 36.4391 37.1329L37.8534 38.5471C38.236 38.1645 38.3262 37.6691 38.3262 37.28H36.3262ZM36.4391 37.1329C36.5291 37.043 36.6158 37.0105 36.6472 37.0012C36.6752 36.9929 36.6679 37 36.6063 37V39C36.955 39 37.466 38.9344 37.8534 38.5471L36.4391 37.1329ZM36.2863 27.34V30.36H38.2863V27.34H36.2863ZM37.2863 31.36H39.0863V29.36H37.2863V31.36ZM39.0863 31.36C39.5854 31.36 40.3071 31.2356 40.7037 30.5745L38.9888 29.5455C39.0212 29.4915 39.0619 29.4462 39.1049 29.4117C39.1465 29.3783 39.1815 29.3618 39.1991 29.3548C39.2158 29.3483 39.2173 29.35 39.1969 29.3532C39.1766 29.3564 39.1408 29.36 39.0863 29.36V31.36ZM40.7037 30.5745C40.925 30.2058 41.0262 29.7984 41.0262 29.38H39.0262C39.0262 29.4682 39.0075 29.5142 38.9888 29.5455L40.7037 30.5745ZM41.0262 29.38V28.32H39.0262V29.38H41.0262ZM41.0262 28.32C41.0262 27.9016 40.925 27.4942 40.7037 27.1255L38.9888 28.1545C39.0075 28.1858 39.0262 28.2318 39.0262 28.32H41.0262ZM40.7037 27.1255C40.3071 26.4644 39.5854 26.34 39.0863 26.34V28.34C39.1408 28.34 39.1766 28.3436 39.1969 28.3468C39.2173 28.3499 39.2158 28.3517 39.1991 28.3452C39.1815 28.3382 39.1465 28.3217 39.1049 28.2883C39.0619 28.2538 39.0212 28.2085 38.9888 28.1545L40.7037 27.1255ZM39.0863 26.34H37.2863V28.34H39.0863V26.34Z" fill="black" mask="url(#path-3-outside-2_423_526)"/>
<path d="M18.8014 50.7535L19 50.6035V50.3546V32.5C19 29.8224 19.5419 27.1501 20.468 25.1745L20.0153 24.9622L20.468 25.1745C20.8861 24.2824 21.3521 23.596 21.8111 23.1404C22.2769 22.6781 22.6862 22.5 23 22.5C23.3138 22.5 23.7231 22.6781 24.1889 23.1404C24.6479 23.596 25.1139 24.2824 25.532 25.1745L25.9848 24.9622L25.532 25.1745C26.4581 27.1501 27 29.8224 27 32.5V50.3546V50.6035L27.1986 50.7536C27.5693 51.0336 27.8663 51.3449 28.0818 51.6738L29 53.0743V51.3996V41.8953C30.0719 44.5248 31.5594 46.3052 32.9141 47.9269C32.968 47.9914 33.0217 48.0556 33.0751 48.1197C34.8651 50.2651 36.3557 52.1488 36.4901 55.5H29H28.5V56V57V57.5H29H36.4285C36.2977 57.952 35.9904 58.3749 35.5284 58.7213C34.8991 59.1933 34.0068 59.5 33 59.5H29H28.5V60C28.5 60.663 28.3553 61.0292 28.1936 61.2232C28.045 61.4016 27.827 61.5 27.5 61.5H25C24.6733 61.5 24.4553 61.4017 24.3066 61.2234C24.1449 61.0295 24 60.6634 24 60V59.5H23.5H22.5H22V60C22 60.663 21.8553 61.0292 21.6936 61.2232C21.545 61.4016 21.327 61.5 21 61.5H18.5C18.1733 61.5 17.9553 61.4017 17.8066 61.2234C17.6449 61.0295 17.5 60.6634 17.5 60V59.5H17H13C11.9932 59.5 11.1009 59.1933 10.4716 58.7213C10.0096 58.3749 9.70228 57.952 9.57152 57.5H17H17.5V57V56V55.5H17H9.50988C9.64434 52.1488 11.1349 50.2651 12.9249 48.1197C12.9783 48.0556 13.032 47.9914 13.0859 47.9269C14.4406 46.3052 15.9281 44.5247 17 41.8953V51.3996V53.0742L17.9182 51.6737C18.1337 51.3449 18.4307 51.0335 18.8014 50.7535ZM25.7071 32.2071C25.8946 32.0196 26 31.7652 26 31.5C26 30.7513 25.5191 30.2368 24.9536 29.9359C24.3929 29.6376 23.6812 29.5034 22.9999 29.5035C22.3185 29.5036 21.607 29.6382 21.0464 29.9365C20.4811 30.2373 20 30.7517 20 31.5C20 31.7652 20.1054 32.0196 20.2929 32.2071C20.4804 32.3946 20.7348 32.5 21 32.5H25C25.2652 32.5 25.5196 32.3946 25.7071 32.2071Z" fill="url(#paint2_linear_423_526)" stroke="black"/>
<defs>
<linearGradient id="paint0_linear_423_526" x1="22.5" y1="0" x2="22.5" y2="24" gradientUnits="userSpaceOnUse">
<stop offset="0.356112" stop-color="#F88539"/>
<stop offset="0.715834" stop-color="#F5B946"/>
</linearGradient>
<linearGradient id="paint1_linear_423_526" x1="23" y1="19" x2="23" y2="43" gradientUnits="userSpaceOnUse">
<stop stop-color="#F4D14D"/>
<stop offset="1" stop-color="#FA6F33"/>
</linearGradient>
<linearGradient id="paint2_linear_423_526" x1="23" y1="22" x2="23" y2="62" gradientUnits="userSpaceOnUse">
<stop stop-color="#F5BC47"/>
<stop offset="1" stop-color="#FF4622"/>
</linearGradient>
</defs>
</svg>
