<svg width="50" height="54" viewBox="0 0 50 54" fill="none" xmlns="http://www.w3.org/2000/svg">
<path d="M26.475 29.7003L20.725 35.8833C20.4907 36.1344 20.3047 36.433 20.1778 36.7619C20.0508 37.091 19.9855 37.4439 19.9855 37.8003C19.9855 38.1567 20.0508 38.5096 20.1778 38.8387C20.3047 39.1675 20.4907 39.4662 20.725 39.7173C20.9574 39.9703 21.2339 40.1711 21.5386 40.3083C21.8432 40.4455 22.17 40.5159 22.5 40.5159C22.83 40.5159 23.1568 40.4455 23.4614 40.3083C23.7661 40.1711 24.0426 39.9703 24.275 39.7173L34.275 28.9173C34.5025 28.6605 34.681 28.3578 34.8 28.0263C35.05 27.3688 35.05 26.6316 34.8 25.9743C34.681 25.6428 34.5025 25.34 34.275 25.0833L24.275 14.2833C24.0419 14.0315 23.7652 13.8318 23.4606 13.6956C23.1561 13.5593 22.8297 13.4892 22.5 13.4892C22.1703 13.4892 21.8439 13.5593 21.5394 13.6956C21.2348 13.8318 20.9581 14.0315 20.725 14.2833C20.4919 14.535 20.307 14.8339 20.1809 15.1628C20.0547 15.4917 19.9898 15.8442 19.9898 16.2003C19.9898 16.5563 20.0547 16.9088 20.1809 17.2377C20.307 17.5667 20.4919 17.8655 20.725 18.1173L26.475 24.3003H2.5C1.83696 24.3003 1.20107 24.5847 0.732232 25.0911C0.263392 25.5974 0 26.2842 0 27.0003C0 27.7163 0.263392 28.4032 0.732232 28.9094C1.20107 29.4157 1.83696 29.7003 2.5 29.7003H26.475ZM25 0.000269173C20.3277 -0.022259 15.7431 1.36975 11.7662 4.01838C7.78923 6.66703 4.57912 10.4663 2.5 14.9853C2.20163 15.6297 2.15254 16.3758 2.36352 17.0594C2.5745 17.743 3.02828 18.308 3.625 18.6303C4.22172 18.9525 4.91255 19.0055 5.5455 18.7777C6.17842 18.5498 6.70162 18.0597 7 17.4153C8.58047 13.9682 10.9846 11.0395 13.9639 8.93184C16.9432 6.82414 20.3896 5.61389 23.9469 5.42616C27.5042 5.23846 31.0435 6.08008 34.1987 7.86405C37.3542 9.64802 40.0112 12.3097 41.8953 15.5739C43.7795 18.8381 44.8223 22.5864 44.916 26.4316C45.0098 30.2767 44.1513 34.0791 42.4287 37.446C40.7065 40.8129 38.1828 43.622 35.1187 45.5827C32.0547 47.5438 28.5615 48.5854 25 48.6003C21.2722 48.6178 17.6154 47.4997 14.4492 45.3743C11.2831 43.2491 8.73588 40.203 7.1 36.5853C6.80162 35.9408 6.27842 35.4507 5.6455 35.2229C5.01255 34.995 4.32172 35.0482 3.725 35.3703C3.12827 35.6924 2.6745 36.2575 2.46352 36.9411C2.25254 37.6248 2.30163 38.3708 2.6 39.0153C4.58208 43.3231 7.5938 46.9808 11.3237 49.6101C15.0535 52.2396 19.3661 53.7449 23.8153 53.9706C28.2645 54.1963 32.6887 53.1341 36.6302 50.8939C40.572 48.6537 43.888 45.3171 46.2353 41.2287C48.5825 37.1407 49.8758 32.4491 49.9813 27.6402C50.0868 22.8311 49.0007 18.0789 46.8355 13.8751C44.6705 9.67132 41.5045 6.16861 37.6658 3.72927C33.8268 1.28991 29.454 0.00252759 25 0.000269173Z" fill="#201F1D"/>
</svg>
