<svg width="50" height="54" viewBox="0 0 50 54" fill="none" xmlns="http://www.w3.org/2000/svg">
<path d="M10.6389 44.8369C10.1676 44.538 9.71304 44.2094 9.27757 43.8527C8.31106 43.0976 7.4024 42.2597 6.56039 41.3472C4.37311 38.982 2.6627 36.1535 1.53679 33.0396C0.410866 29.9258 -0.106206 26.594 0.018098 23.2539C0.142402 19.9137 0.905391 16.6375 2.25907 13.6313C3.61274 10.6251 5.52781 7.95399 7.8838 5.786C10.2398 3.618 12.9857 2.00004 15.9488 1.03391C18.9119 0.0677671 22.0281 -0.225644 25.1013 0.17213C28.1745 0.569905 31.1383 1.65026 33.8061 3.34522C36.4739 5.04019 38.7881 7.31309 40.603 10.0209C40.942 10.522 41.2476 10.9781 41.5143 11.4912C43.7046 15.3342 44.8598 19.7606 44.8499 24.2733C44.8401 28.786 43.6658 33.2065 41.4587 37.0383L48.5156 44.6598C49.4658 45.6856 49.9997 47.077 50 48.528C50.0003 49.979 49.4668 51.3707 48.517 52.3969C47.5672 53.423 46.2789 53.9997 44.9354 54C43.5919 54.0003 42.3033 53.4242 41.3531 52.3984L34.2962 44.7768C30.7479 47.1611 26.6545 48.4297 22.4755 48.4403C18.2965 48.4509 14.1976 47.2031 10.6389 44.8369ZM39.0777 22.8035L21.1132 42.2053C20.6686 42.6914 20.2491 43.1415 19.824 43.5526C23.712 44.1612 27.6777 43.3882 31.1234 41.3502L31.1179 41.3472C30.1728 40.3186 29.6426 38.9284 29.6426 37.4794C29.6426 36.0304 30.1728 34.6402 31.1179 33.6116C31.5882 33.1033 32.1467 32.7 32.7614 32.4249C33.3762 32.1497 34.0351 32.0081 34.7005 32.0081C35.3659 32.0081 36.0248 32.1497 36.6395 32.4249C37.2543 32.7 37.8128 33.1033 38.2831 33.6116C40.1696 29.8911 40.888 25.6092 40.3252 21.4112C39.9445 21.8703 39.525 22.3204 39.0777 22.8035ZM33.9767 37.4764C33.9763 37.5794 33.9947 37.6815 34.0309 37.7768C34.0672 37.872 34.1205 37.9586 34.1879 38.0315L44.4232 49.0827C44.5588 49.2291 44.7426 49.3114 44.9344 49.3114C45.1261 49.3114 45.31 49.2291 45.4456 49.0827C45.5812 48.9363 45.6573 48.7377 45.6573 48.5306C45.6573 48.3235 45.5812 48.1249 45.4456 47.9785L37.1246 38.9917L37.1134 38.9797L35.2131 36.9273C35.1122 36.817 34.9832 36.7416 34.8425 36.7108C34.7018 36.68 34.5557 36.6952 34.4231 36.7545C34.2904 36.8137 34.1771 36.9143 34.0976 37.0435C34.0181 37.1726 33.976 37.3243 33.9767 37.4794" fill="#201F1D"/>
</svg>
