<svg width="440" height="479" viewBox="0 0 440 479" fill="none" xmlns="http://www.w3.org/2000/svg">
<path fill-rule="evenodd" clip-rule="evenodd" d="M20.485 108.557C20.485 108.557 22.1685 94.5276 23.2908 86.9518C23.2908 86.9518 32.8306 73.4838 47.9822 62.541L68.1843 63.6634C68.1843 63.6634 27.219 96.4917 20.485 108.557Z" fill="url(#paint0_linear_665_290)"/>
<path fill-rule="evenodd" clip-rule="evenodd" d="M47.983 62.541C47.983 62.541 47.9831 73.7644 37.6014 82.7431C27.2198 91.7218 22.7304 88.6353 22.7304 88.6353L20.2052 106.593L67.9045 63.6634L47.983 62.541Z" fill="url(#paint1_linear_665_290)"/>
<path fill-rule="evenodd" clip-rule="evenodd" d="M265.713 180.105C265.713 192.731 264.03 205.357 260.663 216.861C253.929 240.431 240.741 261.194 223.345 277.468C210.999 288.972 196.128 298.231 179.854 304.404C165.264 310.015 149.271 313.102 132.716 313.102C130.472 313.102 127.946 313.102 125.702 312.821C122.335 312.541 118.687 312.26 115.32 311.979C89.7868 308.612 66.2178 297.95 47.4187 281.957C40.4041 276.065 33.9507 269.331 28.0584 262.035C23.8496 256.424 19.9215 250.812 16.5544 244.639C15.7127 243.236 14.871 241.553 14.0292 240.15C14.0292 240.15 14.0292 240.15 14.0292 239.869C13.1875 238.186 12.3456 236.783 11.7845 235.099C9.53981 230.049 7.5757 224.718 5.8922 219.387C4.76986 215.459 3.64759 211.53 2.80584 207.602C2.24467 204.796 1.6835 201.99 1.40292 198.904C0.561168 192.731 0 186.558 0 180.105C0 176.457 -5.13848e-05 172.81 0.561117 169.162C0.841701 166.917 1.12234 164.673 1.40292 162.428C3.08642 149.241 6.73398 136.895 12.0651 125.391C14.5903 119.779 17.6768 114.168 21.0438 109.117C26.6555 100.419 33.1089 92.2821 40.6847 84.9869C64.5343 61.6985 97.3627 47.3887 133.277 47.3887C134.68 47.3887 136.083 47.3887 137.486 47.3887C138.889 47.3887 140.573 47.3887 141.975 47.6693C149.551 48.2304 157.127 49.3528 164.422 51.0363C168.631 52.1586 172.84 53.2809 176.768 54.6839C179.574 55.5256 182.099 56.6479 184.905 57.7703C186.869 58.612 188.833 59.4538 190.797 60.2955C191.078 60.5761 191.358 60.5761 191.919 60.8567C204.826 67.0296 216.611 75.4471 226.712 85.5481C228.115 86.951 229.518 88.3539 230.921 90.0374C231.762 91.1598 232.885 92.0015 233.726 93.1239C235.41 94.8074 236.813 96.7715 238.216 98.455C243.547 105.189 248.036 112.484 251.964 120.06C256.454 129.039 260.101 138.578 262.627 148.399C264.31 158.219 265.713 168.882 265.713 180.105Z" fill="url(#paint2_radial_665_290)"/>
<path fill-rule="evenodd" clip-rule="evenodd" d="M191.078 60.5778C190.517 60.5778 190.236 60.5778 189.675 60.8584C188.272 61.139 186.869 60.8584 185.466 60.5778C184.344 60.2972 183.783 59.7361 182.38 59.7361C180.696 59.4555 179.293 58.8943 177.61 58.6137C175.926 58.3331 174.523 57.772 172.84 57.2108C171.437 56.6496 170.876 56.9302 169.753 57.2108C168.631 57.4914 167.789 56.9302 166.667 56.6496C165.545 56.0885 164.142 56.0885 163.019 55.8079C159.652 55.2467 156.285 54.1244 152.918 53.2826C150.954 52.7215 148.99 52.7215 146.745 52.7215C145.062 52.7215 143.659 53.2826 141.975 53.2826C140.853 53.2826 140.011 53.002 138.889 53.002C137.767 52.7215 136.644 53.002 135.522 53.002C133.839 52.7215 132.997 52.4409 131.313 53.002C129.91 53.2826 129.069 53.2826 127.666 53.5632C126.263 53.5632 124.579 54.1244 123.176 54.405C120.651 54.9661 117.845 55.5273 115.32 55.5273C113.636 55.5273 111.392 54.9661 109.989 55.5273C109.147 55.8079 108.586 56.9302 107.744 57.4914C106.341 58.8943 104.938 60.0166 103.816 61.4196C102.694 62.8225 101.571 64.506 101.571 66.4701C101.571 68.1536 102.413 70.1177 103.255 71.5206C104.097 73.2041 104.377 74.607 102.694 75.7294C100.73 77.1323 98.2044 78.2546 95.9597 79.0964C94.2762 79.6575 92.8733 79.9381 91.7509 78.8158C91.1898 78.5352 90.9092 77.6934 90.348 77.1323C89.7869 76.8517 88.9452 77.1323 88.384 77.4129C86.7005 77.974 85.0169 78.5352 83.3334 78.8158C82.2111 79.0964 81.3693 79.6575 80.247 79.6575C79.1246 79.9381 78.2829 79.0964 76.88 79.3769C75.1965 79.6575 73.2324 80.4993 71.5489 80.4993C70.146 80.4993 68.4625 79.9381 67.3402 79.3769C66.779 79.0964 66.4984 78.5352 65.6567 78.8158C65.0955 78.8158 64.2537 79.6575 63.9731 80.2187C63.412 80.7799 63.412 81.6216 62.8508 82.1828C62.2896 83.0245 62.0091 83.5857 61.4479 84.4275C60.6061 85.8304 59.7644 87.2333 58.9227 88.6362C58.3615 89.478 57.8003 90.8809 56.9585 91.7226C56.6779 92.2838 55.8362 92.5644 55.275 92.845C53.8721 93.6867 52.4692 94.8091 51.0662 95.6508C48.541 97.6149 46.0158 99.8596 43.4905 101.824C41.5264 103.227 38.7206 104.068 36.4759 105.191C35.073 105.752 33.6701 106.313 32.2672 106.874C31.706 107.155 30.8642 107.155 30.5836 107.716C30.0225 108.277 29.7419 108.838 29.4613 109.68C28.339 111.083 26.936 112.766 26.0943 114.45C25.5331 115.572 25.2525 116.414 24.6914 117.536C24.1302 118.939 23.2884 120.342 23.0078 122.026C21.8855 125.112 21.8855 128.479 20.4826 131.566C19.9214 133.249 18.7991 134.933 17.9574 136.616C16.5544 139.422 16.2738 142.789 15.9932 145.875C15.7127 147.559 15.9933 149.804 16.2738 151.487C16.5544 153.451 16.5544 155.415 16.5544 157.379C16.5544 159.343 15.1515 161.588 14.0292 162.991C12.9069 164.394 10.9428 164.955 9.53984 166.358C8.41751 167.48 7.01457 168.603 6.4534 170.286C6.17282 170.847 6.4534 171.689 6.4534 172.531C6.17282 174.214 5.61168 175.617 5.61168 177.301C5.3311 179.265 5.33108 181.229 5.33108 183.474C5.33108 184.596 5.33108 185.438 5.33108 186.56C5.33108 187.682 5.61161 188.524 5.8922 189.366C5.8922 189.927 5.8922 190.769 5.8922 191.33C5.8922 192.172 6.4534 193.013 6.4534 193.575C7.01457 195.539 7.29513 197.222 7.57572 199.186C7.8563 200.87 8.69805 202.553 8.97864 204.237C9.82039 206.482 10.101 208.726 10.6622 211.251C10.9427 212.935 10.9428 214.899 11.2234 216.583C11.5039 217.985 11.7845 219.388 11.7845 220.791C11.7845 223.036 11.2234 225 11.2234 227.245C11.2234 230.892 12.6262 234.54 13.468 238.188C13.7486 239.31 14.0291 240.152 14.3097 241.274C5.05044 223.317 0 202.834 0 181.229C0 154.854 7.57575 130.443 20.7632 109.961C26.3749 101.262 32.8283 93.1256 40.4041 86.111C64.2537 62.8225 97.0821 48.5127 132.997 48.5127C135.803 48.5127 138.889 48.5127 141.695 48.7933C159.091 48.5127 175.926 53.002 191.078 60.5778Z" fill="url(#paint3_linear_665_290)"/>
<path opacity="0.1" fill-rule="evenodd" clip-rule="evenodd" d="M141.136 242.392C141.136 242.392 153.481 260.63 170.036 275.501C186.59 290.372 188.835 300.473 188.835 300.473C188.835 300.473 219.98 287.566 242.146 256.702C264.312 226.118 141.136 242.392 141.136 242.392Z" fill="black"/>
<path opacity="0.4" fill-rule="evenodd" clip-rule="evenodd" d="M163.584 50.756C156.289 49.0725 148.994 47.9502 141.137 47.389C139.734 47.389 138.051 47.1084 136.648 47.1084C139.734 48.7919 142.821 51.8783 143.382 55.2453C144.504 60.857 146.469 65.9075 147.31 71.2386C148.433 76.5697 148.152 83.3038 145.627 88.0737C144.224 91.1601 142.26 93.6854 139.734 96.2106C138.051 97.8941 136.367 99.0164 135.245 101.261C134.123 103.506 132.72 105.47 131.317 107.434C129.353 110.52 127.108 113.607 124.583 116.413C123.741 117.535 122.899 118.096 122.058 119.219C121.216 120.621 120.655 122.024 119.532 123.147C117.007 125.672 113.36 127.355 110.273 128.478C106.064 130.161 102.417 131.845 98.4886 134.089C92.8769 137.176 88.107 140.823 81.6535 141.104C79.4089 141.104 77.1642 140.823 74.9195 141.104C72.1137 141.385 69.5885 142.507 67.0632 143.068C64.8185 143.629 62.2933 143.91 60.0486 144.471C56.1204 145.032 53.034 146.435 49.3864 147.277C44.6164 148.399 39.566 148.119 34.5154 148.96C30.0261 149.522 26.3785 150.083 21.8892 148.96C15.1551 147.277 11.5075 144.19 12.9104 136.895C13.7522 132.125 13.4717 128.478 11.227 125.111C5.89591 136.615 2.24826 149.241 0.564758 162.148C3.65118 163.551 7.29878 164.112 10.3852 164.393C20.2056 165.515 30.8678 161.026 39.8465 157.659C44.3359 155.975 49.1058 153.45 54.1563 152.889C59.4874 152.327 63.9768 152.889 69.3079 151.766C87.2652 147.277 104.942 141.104 121.216 131.564C127.95 127.636 130.756 122.024 135.526 116.413C139.454 111.362 144.224 107.434 148.994 103.225C153.764 99.0165 157.972 95.0883 160.778 89.4766C163.865 83.5843 166.39 76.8503 167.793 70.3969C169.196 63.1017 167.232 56.3677 163.584 50.756ZM162.742 68.7134C162.462 70.1163 162.181 71.7998 161.901 73.2027C160.778 76.8503 158.534 80.4979 155.167 82.1814C153.764 83.0232 151.519 82.462 150.677 81.0591C150.116 80.2173 150.116 79.095 150.116 78.2532C149.836 76.2891 149.555 74.6056 149.555 72.6416C149.555 68.1522 149.555 63.6629 148.994 59.1735C149.555 61.6988 148.994 55.2453 152.922 53.5618C154.886 52.7201 157.692 53.5618 159.095 54.9648C160.778 56.9288 161.339 60.0153 161.901 62.2599C162.462 64.7852 163.023 66.4687 162.742 68.7134Z" fill="url(#paint4_linear_665_290)"/>
<path opacity="0.4" fill-rule="evenodd" clip-rule="evenodd" d="M143.378 281.116C143.098 281.116 142.536 281.397 142.256 281.397L144.781 281.677C144.781 281.397 144.22 281.116 143.378 281.116ZM143.378 281.116C143.098 281.116 142.536 281.397 142.256 281.397L144.781 281.677C144.781 281.397 144.22 281.116 143.378 281.116ZM261.785 147.839C261.785 151.206 260.662 154.853 260.662 158.22C260.662 162.99 259.821 166.638 258.698 171.127C257.856 174.214 256.173 176.458 255.331 179.545C254.209 182.912 252.525 185.998 250.842 189.085C247.475 195.258 243.827 201.711 242.424 208.726C241.021 215.179 240.741 220.51 237.654 226.402C234.568 232.014 230.079 236.784 226.712 242.396C225.309 244.921 224.186 244.921 221.661 246.604C219.136 248.569 216.611 251.374 214.085 253.339C208.754 257.547 203.704 260.634 196.97 263.159C192.761 264.842 188.833 265.965 184.343 266.526C181.538 267.087 178.732 266.526 175.926 267.087C171.437 267.929 167.228 269.051 162.739 270.454C155.724 272.699 148.429 274.102 141.414 276.346C136.364 277.749 131.594 278.872 126.543 279.713C123.457 280.275 120.932 281.958 117.845 281.397C114.759 280.836 111.672 279.713 108.586 278.591C104.658 277.469 101.291 277.188 97.0818 277.188C91.4701 277.188 84.7361 278.03 78.8438 276.908C72.3904 275.785 66.2176 273.821 59.7642 272.699C55.836 271.857 53.0301 270.174 49.3825 268.771C46.0155 267.087 42.6486 266.807 39.001 265.684C35.3534 264.562 31.7058 262.878 28.0582 262.037C33.6699 269.332 40.1233 276.066 47.4185 281.958C66.2176 297.951 89.506 308.614 115.32 311.981C118.687 312.261 122.054 312.822 125.701 312.822C133.277 311.139 140.572 308.894 148.148 306.649C160.774 302.721 171.717 295.146 184.343 291.498C189.113 290.095 193.322 288.692 197.531 286.447C200.898 284.764 204.265 284.483 207.351 283.08C219.136 278.03 227.834 266.807 233.165 255.583C235.41 250.533 237.654 244.921 242.144 240.993C243.827 239.309 246.072 238.187 247.475 236.223C249.158 234.259 250.281 232.014 251.964 229.769C254.77 226.122 257.295 222.194 259.821 218.546C260.101 217.985 260.382 217.704 260.662 217.143C264.029 205.359 265.713 193.013 265.713 180.387C265.713 168.883 264.31 158.22 261.785 147.839ZM139.731 281.958C140.292 281.677 140.853 281.116 141.414 280.836C141.975 280.555 142.817 280.836 143.378 281.116C144.501 280.836 145.342 280.836 146.184 281.397C146.745 281.677 147.587 282.239 147.868 282.8C148.148 283.361 147.868 283.642 147.306 284.203C146.745 284.764 146.465 284.764 145.623 284.764C144.22 285.044 142.817 285.325 141.134 285.045C140.292 285.045 138.889 284.764 138.328 284.203C138.328 283.08 139.169 282.519 139.731 281.958ZM148.429 299.354C147.587 300.477 146.745 301.599 145.623 302.16C144.501 303.002 143.378 303.282 142.536 304.124C139.731 305.527 136.925 307.211 134.119 308.052C132.997 308.333 131.594 308.333 130.471 308.333C129.068 308.614 127.385 308.614 125.982 308.614C124.299 308.614 122.334 308.894 120.651 309.175C118.967 309.175 117.003 309.455 115.32 309.455C112.233 309.736 109.708 309.175 106.902 308.052C104.377 307.211 101.852 305.808 99.6071 304.405C97.9236 303.282 96.5207 301.88 95.3984 300.477C93.9954 299.354 93.1537 297.951 92.3119 296.268C92.0313 295.707 91.7507 295.146 92.0313 294.304C92.0313 294.023 92.3119 293.743 92.3119 293.743C92.8731 293.462 93.4343 292.901 93.7148 292.901C94.5566 292.34 95.679 292.34 96.8013 292.059C99.3265 291.779 101.852 292.059 104.377 292.34C105.78 292.34 107.183 292.62 108.586 292.34C110.55 292.059 112.514 291.498 114.197 290.937C118.687 289.814 123.176 288.692 127.666 288.412C132.155 287.85 137.205 287.289 141.695 288.131C143.378 288.411 145.623 288.973 147.026 289.814C148.148 290.656 148.99 291.779 149.551 292.901C150.393 295.146 149.832 297.39 148.429 299.354ZM183.782 287.85C182.941 288.692 181.818 289.253 180.696 290.095C179.293 291.217 177.89 291.779 176.487 292.62C175.365 293.462 173.962 294.023 172.839 294.584C171.437 295.146 170.314 295.707 168.911 296.548C167.508 297.11 166.105 297.671 164.703 298.232C163.58 298.513 162.458 299.074 161.336 298.793C160.494 298.513 159.371 298.232 158.81 297.671C157.688 296.548 157.969 295.426 158.249 294.865C158.249 294.023 157.969 292.62 158.249 291.498C158.53 290.937 159.091 290.095 159.371 289.534C160.494 287.289 162.177 285.886 163.861 284.203C165.264 282.8 166.947 281.678 168.911 280.836C171.156 279.994 173.962 279.713 176.207 279.433C178.732 279.152 183.221 278.872 184.624 281.958C185.466 283.922 185.185 285.886 183.782 287.85ZM145.062 281.397C144.781 281.397 144.22 281.116 143.659 280.836C143.378 280.836 142.817 281.116 142.536 281.116L145.062 281.397Z" fill="url(#paint5_linear_665_290)"/>
<path opacity="0.4" fill-rule="evenodd" clip-rule="evenodd" d="M251.124 119.498V120.059C250.843 123.707 249.44 126.232 248.038 129.599C246.915 132.405 245.793 134.65 244.39 137.175C242.145 141.384 241.023 145.312 239.339 150.082C236.534 157.096 235.411 164.672 231.202 171.126C227.555 177.018 226.433 184.032 223.627 190.205C220.26 197.22 214.929 201.99 209.317 207.04C206.792 209.285 204.547 212.091 202.302 214.616C199.777 217.141 198.094 220.508 195.007 222.753C188.834 227.242 181.82 231.171 175.647 235.94C171.999 238.746 169.474 242.675 165.265 244.919C161.337 247.444 156.848 249.128 152.92 251.373C149.272 253.617 145.624 255.862 141.696 257.545C137.207 259.229 133.559 258.668 128.789 258.948C123.739 259.229 118.408 260.632 113.638 262.315C109.71 263.718 106.343 265.121 102.134 263.718C99.328 262.877 97.0833 260.912 94.2774 260.351C87.5434 258.948 80.2483 260.351 73.5142 260.071C68.1831 259.79 62.5715 258.668 57.2404 257.545C52.1899 256.704 47.9811 253.056 43.2112 251.653C37.0384 249.97 30.0237 251.373 24.412 249.128C21.8868 248.286 19.6421 246.322 17.678 244.919C17.1169 244.639 16.8363 244.358 16.2751 244.077C15.4334 242.675 14.5916 240.991 13.7499 239.588C15.1528 240.149 16.5557 240.71 17.9586 241.552C25.5344 245.2 35.0743 244.639 43.2112 246.042C52.4705 247.725 61.7297 249.97 70.989 251.092C74.9172 251.653 78.5648 251.373 82.493 251.092C87.8241 250.531 93.1551 250.531 98.4862 249.689C107.465 248.006 116.444 243.797 125.703 244.919C127.386 245.2 129.35 246.042 131.034 246.042C133.559 246.042 135.523 243.797 137.487 242.394C141.135 240.149 145.063 240.43 148.43 237.343C151.517 234.257 155.164 232.293 159.092 230.329C169.193 225.278 177.33 216.861 185.467 208.724C192.201 201.99 198.655 194.975 203.144 186.838C207.633 178.701 206.792 168.881 210.159 160.463C212.684 154.291 214.648 148.679 218.576 143.348C220.54 140.823 222.785 138.578 224.749 136.053C226.994 133.527 228.116 130.721 229.8 127.635C231.483 124.268 234.008 121.462 235.411 117.815C236.814 114.448 236.534 111.642 236.534 107.994C236.534 104.347 236.534 100.418 236.534 96.4902C242.426 104.627 247.196 111.922 251.124 119.498Z" fill="url(#paint6_linear_665_290)"/>
<path opacity="0.4" fill-rule="evenodd" clip-rule="evenodd" d="M230.079 89.4786C228.676 88.0757 227.273 86.3922 225.87 84.9893C215.769 74.8882 203.985 66.7513 191.078 60.2979C190.797 60.0173 190.517 60.0173 189.955 59.7367C187.991 58.8949 186.027 58.0532 184.063 57.2114C181.257 56.0891 178.732 54.9668 175.926 54.125C176.768 54.6862 177.89 55.2473 178.171 55.2473C179.854 56.0891 181.257 56.6503 182.38 58.0532C183.502 59.4561 184.063 60.5784 184.063 62.5425C184.063 64.226 184.344 66.1901 184.624 67.8736C184.905 69.5571 185.747 70.9601 186.027 72.6436C186.308 73.4853 186.308 74.3271 186.588 75.4494C187.15 77.6941 187.991 79.9387 188.552 82.1834C189.394 86.3922 187.15 89.7592 185.747 93.4068C183.502 99.299 182.099 105.191 180.135 111.364C178.732 116.134 176.207 120.904 172.559 124.552C168.912 127.919 163.58 128.76 160.494 132.408C157.688 135.775 154.321 138.861 150.393 140.545C145.904 142.79 140.853 144.473 136.083 145.876C132.716 146.998 129.069 146.998 125.421 147.84C120.932 148.962 117.004 151.207 113.075 152.891C108.586 154.855 104.658 157.099 100.168 159.063C95.6791 161.028 91.7509 163.553 87.2616 165.236C85.0169 166.078 82.7723 166.639 80.8082 167.2C76.3188 168.884 72.1101 171.69 67.3402 172.251C65.6567 172.531 63.9731 172.812 62.2896 172.812C60.8867 172.812 59.7644 173.093 58.6421 173.373C54.4333 175.057 51.908 179.546 47.1381 179.827C42.6487 179.827 38.44 179.546 34.2312 180.107C31.9865 180.388 30.0225 180.107 28.0584 180.388C27.4972 180.388 26.6555 180.668 26.0943 180.388C25.5331 180.107 24.6914 179.546 23.8496 178.985C22.1661 178.143 20.7632 177.021 19.3603 175.898C16.5544 173.654 12.9069 175.057 9.82044 174.215C8.97869 173.934 7.57575 174.215 6.734 173.654C4.76991 172.531 2.24462 170.006 0.561117 168.603C0.280533 172.251 0 175.898 0 179.546C0 186 0.561168 192.172 1.40292 198.345C1.6835 201.151 2.24467 203.957 2.80584 207.043C3.64759 210.972 4.76986 215.18 5.8922 218.828C7.5757 224.159 9.53981 229.49 11.7845 234.541C15.4321 235.102 19.0796 235.663 22.7272 235.102C28.0583 234.26 33.1089 233.418 38.44 233.699C43.4905 233.979 47.9798 235.663 52.7498 236.505C58.0809 237.346 63.6925 238.188 69.3042 238.469C74.3547 238.749 79.4053 239.31 84.1752 239.872C87.8228 240.433 91.751 240.994 95.3986 241.275C105.219 241.836 114.759 239.31 124.299 238.469C129.069 237.908 133.839 236.785 138.609 235.663C141.414 235.102 144.22 234.26 146.745 232.576C150.112 230.332 152.357 227.245 155.163 224.72C158.53 221.914 161.897 219.108 165.264 216.583C168.07 214.338 170.876 211.813 173.962 209.849C176.207 208.446 178.732 206.763 180.977 205.079C185.185 201.712 188.833 197.784 192.481 193.575C197.531 187.683 199.495 179.546 201.459 172.251C203.423 165.517 204.546 159.063 208.193 152.891C209.877 150.085 211.28 146.718 212.121 143.351C212.683 141.387 212.963 138.861 213.805 136.897C215.208 133.811 218.294 131.286 219.978 128.48C221.381 126.235 223.064 123.99 223.906 121.185C225.87 116.134 227.273 111.084 228.115 105.472C228.676 101.544 230.079 97.6155 231.201 93.6874C231.482 93.1262 231.482 92.2844 231.762 91.7233C231.762 91.4427 230.921 90.3204 230.079 89.4786ZM56.9585 180.388C57.2391 179.827 62.2896 177.863 62.8508 177.582C62.8508 177.582 62.8508 177.582 62.5702 177.582L59.2032 178.985C62.8508 177.863 69.3042 181.51 66.2178 185.438C65.376 186.561 62.8508 187.122 61.4479 187.402C60.045 187.683 59.2032 187.122 58.3615 186C57.5197 184.877 56.9585 183.194 56.9585 181.791C56.9585 181.51 56.9585 180.668 56.9585 180.388ZM17.3962 216.022C13.468 214.9 10.9427 213.497 8.69804 210.13C7.01453 207.885 5.89225 205.921 5.33108 203.396C5.0505 201.151 4.20871 199.468 4.76988 197.223C5.05046 195.539 5.89225 193.575 6.734 192.172C7.57575 190.489 8.97864 188.525 8.97864 187.964C12.9068 187.683 16.5544 187.402 20.202 187.402C24.4108 187.402 28.9001 187.964 33.1089 187.964C35.073 187.964 37.0371 187.964 39.0012 187.683C40.9653 187.402 42.6488 186.841 44.6129 186.561C47.9799 186 51.0663 185.719 54.1527 187.122C56.3974 188.244 57.5197 191.05 58.6421 193.295C59.2032 194.698 59.7644 195.539 59.7644 197.223C59.7644 199.187 59.7644 200.87 59.4838 202.554C59.4838 203.115 59.2032 203.957 59.2032 204.518C56.3973 210.41 49.1022 212.374 43.4905 214.619C35.073 217.986 25.8137 218.267 17.3962 216.022ZM77.1606 228.929C75.4771 233.418 68.1819 234.821 63.9731 235.102C62.009 235.102 59.4838 234.821 57.5197 233.699C56.3974 233.138 55.5556 232.015 54.7139 230.893C54.1527 230.051 53.3109 228.648 51.0662 229.209C51.6274 226.684 52.1886 224.44 53.311 222.195C54.1527 221.073 55.275 220.231 56.3973 219.108C58.3614 217.425 60.6061 215.741 62.8508 214.619C66.4984 212.655 70.4266 214.058 73.7936 215.741C76.3188 216.864 78.0024 218.547 78.5635 221.073C79.4053 224.159 78.283 226.123 77.1606 228.929ZM126.543 228.087C125.14 231.174 123.176 232.015 120.371 233.699C117.004 235.382 112.514 236.785 108.867 236.785C106.902 236.785 104.938 235.943 103.255 235.102C102.133 234.541 100.73 234.26 99.8879 233.418C97.3626 230.893 96.8014 227.526 98.4849 228.087C97.3626 225.842 96.8015 223.598 96.5209 221.353C97.0821 221.073 97.3626 220.511 97.3626 219.95C98.7655 217.425 101.291 215.18 104.097 213.777C108.586 211.252 114.478 210.691 119.529 212.936C121.773 213.777 123.176 214.9 124.579 216.583C125.421 217.425 126.263 217.986 127.105 219.108C127.946 221.353 127.385 225.562 126.543 228.087ZM141.414 227.526C140.573 228.087 139.17 229.209 138.328 229.209C137.486 228.929 136.083 227.526 136.083 226.404L135.522 225.842C136.644 223.878 137.767 222.195 138.889 220.231C140.573 221.073 142.256 220.792 143.378 222.756C144.781 224.72 142.817 226.404 141.414 227.526ZM179.293 139.142C177.89 141.106 175.926 143.07 173.682 143.912C170.876 145.034 166.948 146.157 166.667 141.667C166.667 139.142 166.948 137.178 168.07 134.933C169.753 131.566 171.156 130.724 174.523 129.041C175.646 129.041 177.049 129.602 177.89 129.883C179.574 130.444 181.257 132.127 181.538 134.091C181.818 136.056 180.416 137.739 179.293 139.142ZM214.366 120.343C212.963 124.832 210.999 129.041 209.035 132.969C206.79 138.02 206.51 143.351 205.107 148.682C204.546 151.768 202.862 155.135 200.056 156.258C198.653 156.819 197.531 156.538 196.128 156.538C194.725 156.538 192.481 157.099 192.481 158.222C191.639 155.977 190.517 153.171 189.955 150.927C189.394 148.401 189.114 145.595 188.833 142.79C188.272 139.984 188.272 137.178 187.991 134.372C187.711 131.847 187.15 129.041 187.15 126.516C187.15 117.818 192.2 106.875 200.337 102.947C202.862 101.824 205.387 101.263 208.193 101.544C211.28 102.105 213.244 102.947 214.647 106.033C216.33 110.242 215.489 115.854 214.366 120.343Z" fill="url(#paint7_linear_665_290)"/>
<path opacity="0.4" fill-rule="evenodd" clip-rule="evenodd" d="M176.123 131.875C175.842 132.156 175.281 132.156 175 132.436C174.158 132.436 173.597 132.156 173.036 132.436L176.123 131.875Z" fill="url(#paint8_linear_665_290)"/>
<path fill-rule="evenodd" clip-rule="evenodd" d="M137.685 196.41C132.074 193.604 138.527 168.632 144.139 163.02C149.75 157.409 164.621 170.315 166.305 180.697C168.269 191.359 150.873 202.583 137.685 196.41Z" fill="url(#paint9_linear_665_290)"/>
<path opacity="0.4" fill-rule="evenodd" clip-rule="evenodd" d="M8.699 187.96C8.41841 187.96 8.13788 187.96 8.13788 187.96C8.69905 187.68 8.699 187.68 8.699 187.96Z" fill="url(#paint10_linear_665_290)"/>
<path fill-rule="evenodd" clip-rule="evenodd" d="M158.25 49.6323L181.539 40.373C181.539 40.373 218.576 54.6828 242.145 86.3888L243.548 106.591C243.548 106.591 199.215 89.4752 158.25 49.6323Z" fill="url(#paint11_linear_665_290)"/>
<path fill-rule="evenodd" clip-rule="evenodd" d="M242.988 254.741C242.988 254.741 223.347 276.065 208.757 280.554L196.691 284.202C196.691 284.202 141.416 264.281 138.33 229.769C135.805 200.588 185.468 155.975 198.936 150.644C212.404 145.313 228.117 148.399 228.117 148.399L242.988 254.741Z" fill="url(#paint12_linear_665_290)"/>
<path fill-rule="evenodd" clip-rule="evenodd" d="M228.117 148.398C216.333 144.751 166.108 168.039 152.36 219.947C149.554 230.609 175.087 270.733 205.671 280.553C215.772 283.92 262.349 243.236 264.313 215.738C266.277 188.241 245.513 154.01 228.117 148.398Z" fill="url(#paint13_linear_665_290)"/>
<path fill-rule="evenodd" clip-rule="evenodd" d="M155.725 226.119C163.021 167.197 216.612 147.836 228.397 151.484C236.814 154.29 249.16 166.636 256.455 178.701C249.16 163.549 238.217 151.203 228.397 148.117C216.612 144.469 166.388 167.758 152.639 219.666C151.797 223.314 154.042 230.609 159.092 239.026C156.006 233.695 155.164 228.925 155.725 226.119Z" fill="url(#paint14_linear_665_290)"/>
<path opacity="0.3" fill-rule="evenodd" clip-rule="evenodd" d="M56.9613 289.533C56.9613 289.533 69.0264 294.022 77.7245 291.497C77.7245 291.497 81.0915 263.158 70.4293 244.92C59.7671 226.682 41.5291 254.18 41.5291 254.18L37.3204 271.576C37.3204 271.576 47.4214 283.641 56.9613 289.533Z" fill="black"/>
<path fill-rule="evenodd" clip-rule="evenodd" d="M67.3421 285.044L74.9178 283.08C74.9178 283.08 78.5654 267.368 72.1119 249.41C64.8167 229.208 37.8807 214.057 33.9525 213.776C30.0243 213.495 26.0962 222.474 26.0962 222.474L67.3421 285.044Z" fill="url(#paint15_linear_665_290)"/>
<path fill-rule="evenodd" clip-rule="evenodd" d="M188.833 300.476L175.926 317.03C175.926 317.03 153.76 327.692 131.314 322.642L115.04 311.699L188.833 300.476Z" fill="url(#paint16_linear_665_290)"/>
<path fill-rule="evenodd" clip-rule="evenodd" d="M20.4855 234.818C21.8884 228.645 27.2196 218.544 31.9895 217.421C36.7594 216.299 59.7673 238.185 65.0984 252.214C70.4295 266.243 67.6237 281.675 67.3431 284.762C67.0625 287.848 41.2488 279.15 28.0613 268.488C15.1545 257.826 20.4855 234.818 20.4855 234.818Z" fill="url(#paint17_linear_665_290)"/>
<path fill-rule="evenodd" clip-rule="evenodd" d="M65.097 252.217C59.7659 238.187 37.0386 216.583 31.9881 217.424C30.024 217.705 28.0599 219.669 26.3764 221.914C27.4988 220.791 28.6211 220.23 29.7434 219.95C34.5133 218.827 57.8019 236.223 63.133 250.253C69.5864 267.368 65.9388 279.714 65.3776 285.326C66.4999 285.326 67.3417 285.326 67.3417 284.764C67.6223 281.678 70.4281 266.246 65.097 252.217Z" fill="url(#paint18_linear_665_290)"/>
<path fill-rule="evenodd" clip-rule="evenodd" d="M142.82 191.05C138.331 188.805 143.381 168.042 147.87 163.272C152.36 158.782 164.144 169.445 165.828 178.143C167.511 186.841 153.482 196.1 142.82 191.05Z" fill="url(#paint19_linear_665_290)"/>
<path fill-rule="evenodd" clip-rule="evenodd" d="M181.539 40.373C181.539 40.373 182.661 54.4022 198.654 71.7984C214.648 89.1947 242.145 86.3888 242.145 86.3888L243.548 106.591C243.548 106.591 185.186 80.7771 158.25 49.6323L181.539 40.373Z" fill="url(#paint20_linear_665_290)"/>
<path fill-rule="evenodd" clip-rule="evenodd" d="M227.277 165.794C226.716 166.355 225.032 167.478 226.435 168.319C226.716 168.6 226.997 168.319 227.277 168.6C227.558 168.6 227.558 168.88 227.838 168.88C228.68 168.319 228.399 165.513 227.277 165.794Z" fill="#0EDBFF"/>
<path fill-rule="evenodd" clip-rule="evenodd" d="M282.271 142.225C281.71 142.786 280.027 143.908 281.43 144.75C281.71 145.031 281.991 144.75 282.271 145.031C282.552 145.031 282.552 145.311 282.832 145.311C283.955 144.469 283.394 141.944 282.271 142.225Z" fill="#0EDBFF"/>
<path fill-rule="evenodd" clip-rule="evenodd" d="M258.141 239.868C257.58 240.429 255.897 241.552 257.299 242.394C257.58 242.674 257.861 242.394 258.141 242.674C258.422 242.674 258.422 242.955 258.702 242.955C259.825 242.394 259.264 239.588 258.141 239.868Z" fill="#0EDBFF"/>
<path fill-rule="evenodd" clip-rule="evenodd" d="M232.047 175.615C232.608 175.334 232.889 175.334 233.45 175.334C233.45 175.895 234.011 177.017 233.169 177.579C232.608 177.859 232.608 176.737 232.328 176.456L232.047 175.615Z" fill="#0EDBFF"/>
<path fill-rule="evenodd" clip-rule="evenodd" d="M144.785 181.505C145.627 181.786 146.469 182.347 147.311 182.628C147.591 182.347 147.872 182.347 148.433 182.347C148.994 182.067 149.275 181.505 149.275 180.944C149.555 180.103 149.275 179.541 148.714 178.98C148.433 178.7 148.152 178.138 147.872 177.858C147.591 177.577 146.749 177.577 146.188 177.858C145.627 178.138 145.346 178.7 145.066 179.261C144.785 179.822 144.224 180.383 144.224 180.944C144.224 181.505 144.785 182.067 145.066 182.628L144.785 181.505Z" fill="#0EDBFF"/>
<path fill-rule="evenodd" clip-rule="evenodd" d="M20.7669 247.725C21.6086 248.006 22.4504 248.567 23.2921 248.848C23.5727 248.567 23.8533 248.567 24.4144 248.567C24.9756 248.286 25.2563 247.725 25.2563 247.164C25.5368 246.322 25.2562 245.761 24.6951 245.2C24.4145 244.919 24.1339 244.358 23.8533 244.078C23.5727 243.797 22.731 243.797 22.1698 244.078C21.6086 244.358 21.3281 244.919 21.0475 245.481C20.7669 246.042 20.2057 246.603 20.2057 247.164C20.2057 247.725 20.7669 248.286 21.0475 248.848L20.7669 247.725Z" fill="#0EDBFF"/>
<path fill-rule="evenodd" clip-rule="evenodd" d="M262.35 282.24C263.192 282.52 264.034 283.082 264.876 283.362C265.156 283.082 265.437 283.082 265.998 283.082C266.559 282.801 266.84 282.24 266.84 281.679C267.12 280.837 266.84 280.276 266.278 279.715C265.998 279.434 265.717 278.873 265.437 278.592C265.156 278.312 264.314 278.312 263.753 278.592C263.192 278.873 262.911 279.434 262.631 279.995C262.35 280.556 261.789 281.118 261.789 281.679C261.789 282.24 262.35 282.801 262.631 283.362L262.35 282.24Z" fill="#0EDBFF"/>
<path fill-rule="evenodd" clip-rule="evenodd" d="M244.954 258.109C245.796 258.39 246.637 258.951 247.479 259.231C247.76 258.951 248.04 258.951 248.602 258.951C249.163 258.67 249.443 258.109 249.443 257.548C249.724 256.706 249.443 256.145 248.882 255.584C248.602 255.303 248.321 254.742 248.04 254.461C247.76 254.181 246.918 254.181 246.357 254.461C245.796 254.742 245.515 255.303 245.235 255.864C244.954 256.426 244.393 256.987 244.393 257.548C244.393 258.109 244.954 258.67 245.235 259.231L244.954 258.109Z" fill="#0EDBFF"/>
<path fill-rule="evenodd" clip-rule="evenodd" d="M3.93211 90.8787C6.17679 91.7205 8.42144 92.5622 10.6661 93.6846C11.5079 93.1234 12.3496 93.1234 13.1914 92.5622C14.3137 91.7205 15.1554 90.3176 15.7166 89.1952C16.2778 87.2311 15.436 85.8282 14.5943 84.4253C14.0331 83.5835 13.472 82.1806 12.6302 81.3389C11.5079 80.4971 9.54381 80.7777 8.42148 81.3389C7.01855 81.9 6.17679 83.303 5.33503 84.4253C4.49328 85.5476 3.65149 87.5117 3.37091 88.9146C3.37091 90.3176 4.4933 92.0011 5.61563 92.8428L3.93211 90.8787Z" fill="#0EDBFF"/>
<path fill-rule="evenodd" clip-rule="evenodd" d="M150.397 10.0711C152.642 10.9129 154.886 11.7546 157.131 12.8769C157.973 12.3158 158.815 12.3158 159.656 11.7546C160.779 10.9129 161.62 9.50994 162.181 8.38761C162.743 6.42352 161.901 5.0206 161.059 3.61768C160.498 2.77592 159.937 1.37301 159.095 0.531255C157.973 -0.310497 156.009 -0.0299128 154.886 0.531255C153.483 1.09242 152.642 2.49534 151.8 3.61768C150.958 4.74001 150.116 6.70411 149.836 8.10703C149.836 9.50995 150.958 11.1934 152.08 12.0352L150.397 10.0711Z" fill="#0EDBFF"/>
<path fill-rule="evenodd" clip-rule="evenodd" d="M169.757 203.394C169.477 203.675 169.196 203.955 168.915 204.517C169.196 205.078 169.476 205.358 170.038 205.639C170.318 205.639 170.599 205.639 170.879 205.639C171.16 205.358 170.879 205.078 171.16 204.797C171.441 204.236 171.441 203.955 171.16 203.394C170.879 203.114 170.879 202.833 170.599 202.833C170.318 202.833 169.757 202.833 169.757 203.114V203.394Z" fill="#0EDBFF"/>
<path fill-rule="evenodd" clip-rule="evenodd" d="M171.721 217.423C171.721 217.703 170.879 219.387 171.721 218.826C172.282 218.545 172.282 217.703 171.721 217.423C172.001 217.423 172.001 217.423 171.721 217.423Z" fill="#0EDBFF"/>
<path fill-rule="evenodd" clip-rule="evenodd" d="M215.773 242.675C215.212 243.516 215.212 243.797 214.931 244.639C215.212 244.919 215.773 244.919 216.054 244.919C216.615 244.919 216.615 244.639 216.615 244.358C216.615 244.077 216.895 243.516 216.615 243.236C216.334 242.675 216.054 242.394 215.773 242.675Z" fill="#0EDBFF"/>
<path fill-rule="evenodd" clip-rule="evenodd" d="M178.735 205.077C179.016 205.357 179.296 205.638 179.296 206.199C178.735 206.199 178.735 205.919 178.735 205.357C178.735 204.796 179.016 205.077 179.296 204.516C179.296 204.516 179.297 204.516 179.577 204.516L178.735 205.077Z" fill="#0EDBFF"/>
<path fill-rule="evenodd" clip-rule="evenodd" d="M220.824 167.48C220.543 167.76 220.263 168.041 219.982 168.321C220.263 168.602 219.982 169.163 220.543 169.163C220.824 169.163 221.104 168.883 221.385 168.321C221.665 168.041 221.665 167.76 221.665 167.199C221.665 166.919 221.665 166.077 221.385 166.638L220.824 167.48Z" fill="#0EDBFF"/>
<path fill-rule="evenodd" clip-rule="evenodd" d="M214.931 69.555C215.493 69.555 215.773 69.2744 216.334 69.2744C216.334 69.2744 216.615 69.2744 216.895 69.2744C217.457 69.2744 217.457 69.2744 217.457 69.555C217.737 69.8356 217.737 70.3968 217.737 70.6773C217.457 72.3608 215.212 69.8356 216.054 69.2744L214.931 69.555Z" fill="#0EDBFF"/>
<path fill-rule="evenodd" clip-rule="evenodd" d="M36.4795 72.6432C35.6377 72.9237 34.5154 72.9237 34.5154 73.7655C34.5154 74.6072 35.6377 75.1684 36.1989 75.449C37.3212 75.7296 39.0047 76.0102 39.5658 74.6072C39.8464 73.7655 39.5659 72.3626 39.2853 71.8014C38.4436 70.3985 36.4795 70.9596 35.0766 71.5208L36.4795 72.6432Z" fill="#0EDBFF"/>
<path fill-rule="evenodd" clip-rule="evenodd" d="M225.874 244.359C225.594 241.834 225.033 239.309 227.277 237.906C228.4 237.064 230.644 237.064 232.047 237.906C232.889 238.467 233.731 239.589 234.011 240.431C234.853 241.834 234.572 241.834 234.292 242.956C233.45 245.762 232.608 247.446 230.083 247.446C226.436 247.446 225.874 244.64 225.874 241.273V244.359Z" fill="#0EDBFF"/>
<path fill-rule="evenodd" clip-rule="evenodd" d="M227.557 172.812C228.68 172.531 229.521 171.97 230.083 171.128C229.241 170.567 227.838 169.725 227.557 171.128V172.812Z" fill="#0EDBFF"/>
<path fill-rule="evenodd" clip-rule="evenodd" d="M26.3788 237.624C27.5012 237.344 28.3429 236.782 28.9041 235.941C28.0623 235.379 26.6594 234.538 26.3788 235.941V237.624Z" fill="#0EDBFF"/>
<path fill-rule="evenodd" clip-rule="evenodd" d="M26.3788 258.949C27.5012 258.669 28.3429 258.108 28.9041 257.266C28.0623 256.705 26.6594 255.863 26.3788 257.266V258.949Z" fill="#0EDBFF"/>
<path fill-rule="evenodd" clip-rule="evenodd" d="M176.772 182.631C177.894 181.508 179.297 179.264 180.98 180.386C182.103 181.228 182.383 182.911 181.261 183.753C180.419 184.314 179.577 184.595 178.455 184.875C177.613 185.156 176.491 184.595 176.772 183.472V182.631Z" fill="#0EDBFF"/>
<path fill-rule="evenodd" clip-rule="evenodd" d="M210.162 237.629C211.284 236.506 212.687 234.262 214.37 235.384C215.493 236.226 215.773 237.909 214.651 238.751C213.809 239.312 212.967 239.593 211.845 239.873C211.003 240.154 209.881 239.593 210.162 238.47V237.629Z" fill="#0EDBFF"/>
<path fill-rule="evenodd" clip-rule="evenodd" d="M205.111 55.2432C206.514 55.5237 209.32 55.5237 209.039 57.7684C209.039 58.8907 207.355 60.2937 206.233 59.7325C205.111 59.1713 204.55 58.6102 203.708 57.7684C203.147 57.2072 202.866 55.8043 204.269 55.5237L205.111 55.2432Z" fill="#0EDBFF"/>
<path fill-rule="evenodd" clip-rule="evenodd" d="M199.499 251.933C200.622 250.811 202.025 248.566 203.708 249.689C204.83 250.53 205.111 252.214 203.989 253.056C203.147 253.617 202.305 253.897 201.183 254.178C200.341 254.459 199.219 253.897 199.499 252.775V251.933Z" fill="#0EDBFF"/>
<path fill-rule="evenodd" clip-rule="evenodd" d="M154.044 180.667C152.922 181.509 150.677 182.35 150.397 184.315C150.397 185.437 150.677 185.998 151.8 186.559C152.642 186.84 153.764 186.84 154.606 186.559C155.728 185.998 157.131 184.876 157.692 183.753C157.973 182.912 157.973 182.35 157.692 181.509C157.411 180.948 157.131 180.386 156.57 180.386C154.886 179.825 154.045 181.509 152.922 182.07L154.044 180.667Z" fill="#0EDBFF"/>
<path fill-rule="evenodd" clip-rule="evenodd" d="M158.253 176.176C158.814 176.457 159.656 176.738 159.937 177.299C159.376 177.579 158.534 178.141 157.692 177.86C156.85 177.579 156.57 176.738 156.85 175.896C156.85 175.335 157.692 174.493 158.253 174.774C158.534 174.774 158.534 175.335 158.534 175.335C158.814 175.896 158.814 175.615 158.534 176.176H158.253Z" fill="#0EDBFF"/>
<path fill-rule="evenodd" clip-rule="evenodd" d="M193.046 168.599C189.679 171.405 186.592 175.052 184.909 179.261C184.067 181.506 185.47 181.506 187.434 181.225C191.082 180.384 195.01 179.542 198.657 178.419C200.902 177.858 203.989 176.736 205.391 174.772C206.514 173.369 207.075 170.844 206.794 169.16C206.514 166.635 204.55 165.793 202.305 164.951C196.974 163.549 189.679 169.16 187.715 173.93L193.046 168.599Z" fill="#0EDBFF"/>
<path fill-rule="evenodd" clip-rule="evenodd" d="M174.527 187.682C175.65 187.682 176.492 187.962 177.614 188.523C177.333 188.804 177.333 189.365 177.333 189.646C177.053 190.207 176.492 190.768 176.211 191.049C175.369 191.61 173.966 191.89 173.125 191.329C170.319 190.207 174.527 186.84 175.65 188.243L174.527 187.682Z" fill="#0EDBFF"/>
<path fill-rule="evenodd" clip-rule="evenodd" d="M18.5221 294.021C18.2416 294.302 17.961 294.582 17.6804 295.143C17.961 295.705 18.2416 295.985 18.8027 296.266C19.0833 296.266 19.364 296.266 19.6445 296.266C19.9251 295.985 19.6445 295.705 19.9251 295.424C20.2056 294.863 20.2056 294.582 19.9251 294.021C19.6445 293.741 19.6445 293.46 19.3639 293.46C19.0834 293.46 18.5221 293.46 18.5221 293.741V294.021Z" fill="#0EDBFF"/>
<path fill-rule="evenodd" clip-rule="evenodd" d="M20.7669 308.051C20.7669 308.331 19.9251 310.015 20.7669 309.454C21.328 309.173 21.0475 308.331 20.7669 308.051C20.7669 308.051 20.7669 308.331 20.7669 308.051Z" fill="#0EDBFF"/>
<path fill-rule="evenodd" clip-rule="evenodd" d="M27.5014 295.706C27.782 295.986 28.0626 296.267 28.0626 296.828C27.5014 296.828 27.5014 296.547 27.5014 295.986C27.5014 295.425 27.782 295.706 28.0626 295.145C28.0626 295.145 28.0625 295.145 28.3431 295.145L27.5014 295.706Z" fill="#0EDBFF"/>
<path fill-rule="evenodd" clip-rule="evenodd" d="M23.2925 278.31C24.4149 278.31 25.2567 278.59 26.379 279.151C26.0984 279.432 26.0984 279.993 26.0984 280.274C25.8178 280.835 25.2567 281.396 24.9761 281.677C24.1343 282.238 22.7314 282.518 21.8896 281.957C19.0838 280.835 23.2925 277.468 24.4149 278.871L23.2925 278.31Z" fill="#0EDBFF"/>
<path fill-rule="evenodd" clip-rule="evenodd" d="M199.499 57.7687C200.341 58.3299 201.463 58.8911 202.305 59.7328C203.146 60.8552 203.988 61.6969 204.549 62.8193C204.83 63.3804 205.672 64.7833 204.549 64.7833C203.427 65.0639 201.182 63.3804 200.06 62.5387C198.377 61.4163 196.974 60.5746 195.851 58.8911C195.29 58.0493 194.448 56.6464 195.01 55.8047C195.571 54.9629 196.132 54.9629 196.974 54.9629C197.815 54.9629 198.377 55.2435 199.218 55.8047C199.499 56.0852 201.182 57.7687 200.621 58.0493L199.499 57.7687Z" fill="#0EDBFF"/>
<path fill-rule="evenodd" clip-rule="evenodd" d="M211.844 163.832C211.283 164.113 207.916 166.077 209.6 166.918C210.441 167.48 212.406 167.199 213.247 166.918C214.089 166.638 214.931 166.077 214.37 165.235C213.247 163.271 210.722 164.393 209.319 165.235L211.844 163.832Z" fill="#0EDBFF"/>
<path fill-rule="evenodd" clip-rule="evenodd" d="M237.098 48.5127C235.975 49.3544 226.997 54.1244 231.205 56.369C233.45 57.4914 237.939 57.2108 240.184 56.0885C242.148 55.2467 244.393 53.8438 242.99 51.5991C240.465 46.8292 234.011 49.635 230.644 51.5991L237.098 48.5127Z" fill="#0EDBFF"/>
<path fill-rule="evenodd" clip-rule="evenodd" d="M27.7812 249.129C28.0618 251.093 28.623 253.337 30.3065 254.74C32.2705 256.143 34.2347 255.582 36.1987 254.46C37.6017 253.618 38.724 252.776 40.1269 251.934C40.9687 251.373 41.5298 251.373 41.5298 250.251C41.5298 249.129 40.4075 247.445 39.8463 246.603C39.0045 245.481 37.3211 244.359 36.1987 243.797C33.3929 242.675 28.0618 243.797 28.0618 247.445L27.7812 249.129Z" fill="#0EDBFF"/>
<path fill-rule="evenodd" clip-rule="evenodd" d="M213.529 253.335C213.809 254.738 214.09 256.422 215.212 257.263C216.615 258.386 218.018 257.825 219.421 256.983C220.263 256.422 221.385 255.861 222.227 255.299C222.788 255.019 223.349 255.019 223.349 254.177C223.349 253.335 222.507 252.213 222.227 251.652C221.666 250.81 220.543 249.968 219.701 249.688C217.737 248.846 214.09 249.688 214.09 252.213L213.529 253.335Z" fill="#0EDBFF"/>
<path fill-rule="evenodd" clip-rule="evenodd" d="M181.821 42.6182C181.821 42.6182 187.993 68.4319 205.109 78.2523C226.714 90.598 241.866 86.3893 241.866 86.3893C241.866 86.3893 222.505 85.8281 204.548 73.4824C189.677 63.1008 181.821 42.6182 181.821 42.6182Z" fill="url(#paint21_linear_665_290)"/>
<path opacity="0.2" fill-rule="evenodd" clip-rule="evenodd" d="M141.136 242.395L152.64 225.56C152.64 225.56 167.511 267.647 205.67 280.835L197.253 286.166C197.533 286.166 158.251 274.942 141.136 242.395Z" fill="black"/>
<path opacity="0.3" fill-rule="evenodd" clip-rule="evenodd" d="M163.021 55.2441C163.021 55.2441 218.296 110.8 258.139 135.491C258.139 135.491 254.211 120.34 243.549 106.31C243.549 106.591 210.159 95.6482 163.021 55.2441Z" fill="black"/>
<path fill-rule="evenodd" clip-rule="evenodd" d="M385.936 418.39C380.979 423.938 375.527 428.608 369.685 432.281C357.788 439.867 344.358 443.916 330.636 444.234C320.999 444.516 311.157 442.879 301.907 439.385C293.585 436.286 285.639 431.572 278.641 425.32C277.692 424.472 276.625 423.518 275.784 422.55C274.468 421.157 273.034 419.659 271.719 418.267C262.218 407.176 256.35 393.691 254.545 379.717C253.843 374.535 253.701 369.203 254.012 363.842C254.28 359.961 254.883 355.945 255.83 352.02C256.013 351.099 256.303 350.058 256.486 349.137C256.777 348.095 256.96 347.174 257.369 346.239C258.36 343.22 259.577 340.187 260.913 337.26C261.947 335.148 262.981 333.036 264.134 331.029C264.974 329.611 265.814 328.193 266.881 326.761C268.896 323.79 271.029 320.925 273.508 318.151C274.908 316.583 276.309 315.016 277.947 313.66C278.928 312.801 279.79 311.836 280.889 311.084C286.665 306.051 292.948 302.123 299.62 299.192C302.842 297.734 306.302 296.488 309.665 295.589C315.377 293.97 321.23 292.91 327.234 292.636C346.259 291.634 365.631 297.883 380.813 311.448C381.406 311.978 381.999 312.508 382.592 313.038C383.185 313.568 383.897 314.204 384.382 314.854C387.369 317.957 390.14 321.3 392.459 324.673C393.807 326.745 395.155 328.817 396.277 330.904C397.14 332.326 397.776 333.762 398.531 335.304C399.038 336.407 399.545 337.511 400.052 338.615C400.063 338.841 400.182 338.947 400.311 339.28C403.397 346.808 405.145 354.877 405.536 363.033C405.59 364.166 405.645 365.299 405.699 366.432C405.624 367.232 405.775 368.018 405.7 368.818C405.765 370.178 405.604 371.552 405.55 372.805C405.218 377.713 404.314 382.544 403.065 387.284C401.514 392.839 399.393 398.316 396.689 403.491C393.64 408.574 390.138 413.687 385.936 418.39Z" fill="url(#paint22_radial_665_290)"/>
<path fill-rule="evenodd" clip-rule="evenodd" d="M385.936 417.426C380.979 422.974 375.527 427.644 369.685 431.317C357.788 438.903 344.358 442.952 330.636 443.271C320.999 443.552 311.157 441.915 301.908 438.421C293.585 435.323 285.639 430.608 278.641 424.356C277.692 423.508 276.625 422.554 275.784 421.586C274.468 420.194 273.034 418.695 271.719 417.303C262.218 406.212 256.35 392.727 254.545 378.753C253.843 373.571 253.701 368.239 254.012 362.878C254.28 358.997 254.883 354.981 255.83 351.056C256.013 350.135 256.303 349.094 256.486 348.173C256.777 347.131 256.96 346.211 257.369 345.275C258.36 342.257 259.577 339.223 260.913 336.296C261.947 334.184 262.981 332.072 264.134 330.065C264.974 328.648 265.814 327.23 266.881 325.797C268.896 322.826 271.029 319.961 273.508 317.187C274.908 315.62 276.309 314.052 277.947 312.696C278.928 311.837 279.79 310.872 280.889 310.12C286.665 305.087 292.948 301.159 299.62 298.228C302.842 296.77 306.302 295.524 309.665 294.625C315.377 293.006 321.23 291.946 327.234 291.672C346.259 290.67 365.631 296.919 380.813 310.484C381.406 311.014 381.999 311.544 382.592 312.074C383.185 312.604 383.897 313.24 384.382 313.89C387.369 316.993 390.14 320.336 392.459 323.709C393.807 325.781 395.155 327.853 396.277 329.94C397.14 331.362 397.776 332.798 398.531 334.34C399.038 335.444 399.545 336.547 400.052 337.651C400.063 337.877 400.182 337.983 400.311 338.316C403.397 345.844 405.145 353.913 405.536 362.069C405.59 363.202 405.645 364.335 405.699 365.468C405.624 366.268 405.775 367.054 405.7 367.854C405.765 369.214 405.604 370.588 405.55 371.841C405.218 376.749 404.314 381.58 403.065 386.32C401.514 391.875 399.393 397.353 396.689 402.527C393.64 407.611 390.138 412.723 385.936 417.426Z" fill="url(#paint23_radial_665_290)"/>
<path opacity="0.5" fill-rule="evenodd" clip-rule="evenodd" d="M400.289 338.826C400.052 338.614 399.933 338.508 399.588 338.417C398.888 338.008 398.402 337.357 397.917 336.707C397.55 336.162 397.529 335.709 396.936 335.179C396.332 334.423 395.954 333.652 395.35 332.895C394.746 332.139 394.369 331.368 393.873 330.491C393.495 329.719 393.15 329.628 392.568 329.325C391.986 329.022 391.846 328.462 391.479 327.918C391.22 327.253 390.627 326.723 390.26 326.178C389.052 324.666 388.06 322.911 386.96 321.278C386.345 320.295 385.515 319.553 384.566 318.705C383.855 318.069 383.046 317.781 382.335 317.145C381.86 316.721 381.612 316.282 381.138 315.859C380.771 315.314 380.189 315.011 379.714 314.587C379.11 313.83 378.862 313.392 377.935 312.997C377.234 312.588 376.879 312.27 376.178 311.861C375.585 311.331 374.658 310.936 373.957 310.527C372.674 309.814 371.272 308.996 370.205 308.042C369.493 307.406 368.76 306.317 367.951 306.028C367.488 305.831 366.82 306.101 366.248 306.025C365.116 306.098 364.092 306.05 363.079 306.229C362.066 306.408 360.945 306.708 360.191 307.552C359.544 308.276 359.146 309.438 358.963 310.359C358.672 311.4 358.252 312.109 357.109 311.956C355.74 311.817 354.242 311.346 352.97 310.86C352.043 310.465 351.342 310.056 351.298 309.149C351.169 308.817 351.374 308.349 351.352 307.896C351.222 307.563 350.759 307.366 350.414 307.275C349.487 306.88 348.56 306.485 347.74 305.97C347.158 305.667 346.587 305.59 346.112 305.166C345.53 304.863 345.497 304.183 344.797 303.774C343.977 303.258 342.824 302.878 342.112 302.243C341.519 301.713 341.023 300.836 340.764 300.171C340.635 299.838 340.732 299.491 340.268 299.293C340.031 299.082 339.352 299.125 339.018 299.261C338.565 299.29 338.242 299.652 337.789 299.681C337.228 299.831 336.894 299.966 336.334 300.116C335.439 300.401 334.545 300.686 333.65 300.971C333.09 301.121 332.314 301.512 331.634 301.556C331.3 301.691 330.837 301.494 330.492 301.402C329.576 301.234 328.551 301.187 327.635 301.018C325.813 300.909 323.884 300.92 322.062 300.81C320.693 300.671 319.184 299.973 317.804 299.608C316.995 299.319 316.187 299.031 315.378 298.742C315.033 298.651 314.678 298.333 314.343 298.468C313.891 298.497 313.557 298.632 313.115 298.888C312.102 299.067 310.862 299.261 309.86 299.666C309.191 299.937 308.75 300.193 308.081 300.463C307.305 300.854 306.411 301.139 305.646 301.757C303.986 302.659 302.693 304.107 300.915 304.903C300.031 305.415 298.91 305.715 297.908 306.12C296.237 306.796 294.825 308.138 293.521 309.358C292.756 309.976 292.013 311.046 291.485 311.876C290.849 312.826 290.095 313.67 289.341 314.514C288.587 315.359 287.131 315.793 286.118 315.973C285.105 316.152 284.059 315.651 282.928 315.724C282.022 315.783 280.998 315.735 280.114 316.247C279.78 316.382 279.576 316.85 279.252 317.211C278.487 317.829 277.711 318.22 277.065 318.944C276.192 319.682 275.437 320.526 274.575 321.491C274.144 321.973 273.821 322.335 273.39 322.817C272.959 323.3 272.755 323.767 272.55 324.235C272.334 324.476 272.011 324.838 271.796 325.079C271.472 325.441 271.386 326.015 271.171 326.256C270.654 327.312 270.126 328.142 269.49 329.092C268.962 329.922 268.672 330.963 268.144 331.793C267.637 333.075 266.894 334.146 266.161 335.443C265.633 336.273 264.879 337.117 264.351 337.947C263.931 338.656 263.511 339.365 262.972 339.967C262.11 340.932 261.119 341.564 260.257 342.529C258.856 344.097 258.048 346.195 257.003 348.08C256.691 348.669 256.486 349.136 256.174 349.725C259.156 338.509 264.887 327.798 273.184 318.512C283.313 307.176 295.89 299.546 309.33 295.723C315.043 294.104 320.896 293.045 326.792 292.891C345.817 291.89 365.189 298.139 380.371 311.703C381.557 312.763 382.862 313.929 383.94 315.109C391.401 321.559 396.686 329.968 400.289 338.826Z" fill="url(#paint24_linear_665_290)"/>
<path fill-rule="evenodd" clip-rule="evenodd" d="M298.759 338.111C314.32 357.219 308.835 361.21 335.226 374.165C361.618 387.119 405.57 368.485 405.57 368.485C405.57 368.485 408.793 367.027 409.137 364.732C409.32 363.811 405.514 362.58 405.514 362.58C396.722 373.375 363.309 382.124 341.683 373.861C339.365 372.875 337.489 371.632 335.506 370.51C335.117 369.513 334.836 366.008 349 367.82C365.795 370.031 372.791 371.511 378.523 363.186C384.255 354.862 403.959 351.43 403.959 351.43C403.959 351.43 407.472 348.93 407.417 345.411C407.426 340.865 400.182 338.947 400.182 338.947C400.182 338.947 385.839 352.373 360.688 343.997C335.537 335.622 328.785 322.649 323.846 314.331C318.787 305.908 327.223 292.409 327.223 292.409C327.223 292.409 322.37 285.904 316.895 287.735C312.875 289.131 312.003 294.642 312.003 294.642C312.003 294.642 319.37 308.598 325.766 321.253C332.163 333.908 354.265 347.367 363.816 350.045C373.486 352.83 378.227 347.524 387.875 347.469C391.852 347.553 395.399 348.119 398.051 348.971C398.051 348.971 383.823 352.958 378.716 360.106C373.609 367.254 369.792 363.409 349.593 365.964C335.483 367.671 327.064 364.919 323.452 362.993C315.214 356.934 308.971 349.838 301.972 338.812C290.443 320.921 287.344 306.007 287.344 306.007C287.344 306.007 286.578 304.238 284.811 305.262C284.035 305.653 283.842 308.733 283.842 308.733C283.842 308.733 283.306 318.881 298.759 338.111Z" fill="url(#paint25_linear_665_290)"/>
<path fill-rule="evenodd" clip-rule="evenodd" d="M262.648 404.308C262.648 404.308 260.727 397.387 265.272 385.616C269.817 373.845 269.634 374.766 268.305 363.602C266.975 352.437 260.912 337.261 260.912 337.261C260.912 337.261 259.985 336.866 259.77 337.107C258.8 338.193 259.889 339.6 259.889 339.6C259.889 339.6 266.102 353.176 266.15 366.014C266.197 378.851 261.654 397.781 257.438 392.713C257.438 392.713 255.704 396.802 257.667 399.857C259.511 402.806 262.648 404.308 262.648 404.308Z" fill="url(#paint26_radial_665_290)"/>
<path d="M345.401 401.689C349.583 401.305 354.767 400.516 365.075 409.509C375.383 418.503 378.555 425.457 378.555 425.457C378.555 425.457 381.228 426.761 383.944 424.2C386.659 421.638 385.71 418.404 385.71 418.404C384.837 419.142 378.597 423.977 372.956 412.864C373.064 412.743 378.626 412.725 384.391 407.466C390.275 402.313 399.726 395.794 399.726 395.794C399.726 395.794 402.744 394.804 403.541 392.479C403.843 391.664 402.042 389.622 402.042 389.622C393.369 402.909 376.481 412.977 370.228 410.426C364.427 405.46 356.567 400.172 351.425 399.482C345.141 398.637 330.667 406.959 320.741 413.054C318.316 414.575 314.964 415.7 311.364 416.387C303.677 412.338 312.59 406.422 311.909 401.693C311.229 396.964 305.051 393.613 302.689 389.334C300.553 385.04 301.975 381.539 298.848 377.877C295.721 374.216 283.886 376.003 279.841 367.4C275.795 358.798 277.484 313.462 277.484 313.462C277.484 313.462 276.017 311.284 274.357 312.186C273.032 312.954 273.044 317.953 273.044 317.953C273.044 317.953 267.526 354.446 279.184 370.284C290.842 386.122 306.367 395.005 307.426 402.892C308.377 410.898 303.129 417.487 303.022 417.608C293.87 418.54 284.417 417.9 280.622 416.895C274.068 415.16 265.313 410.157 265.313 410.157C265.303 412.317 266.457 415.083 268.054 417.593C270.502 421.299 273.919 421.533 273.919 421.533C273.919 421.533 273.541 418.375 277.744 418.445C288.427 418.664 294.755 420.414 302.442 424.463C307.099 426.89 306.669 429.759 307.682 429.58C311.889 436.808 320.501 436.479 329.254 436.709C337.899 437.06 344.961 442.286 344.961 442.286C344.961 442.286 348.821 444.65 351.063 444.051C353.078 443.466 352.581 440.202 352.581 440.202C352.581 440.202 348.657 438.865 340.723 436.764C332.907 434.769 319.876 437.656 313.45 431.48C309.881 428.074 314.051 425.077 314.234 424.156C314.45 423.915 314.665 423.674 314.989 423.312C317.24 420.553 318.91 417.491 320.634 415.561C321.065 415.079 321.496 414.596 322.046 414.22C325.689 412.053 341.326 401.952 345.401 401.689ZM311.591 416.373C309.004 416.88 306.298 417.283 303.474 417.579L311.591 416.373ZM313.027 425.03C312.607 425.739 312.187 426.448 311.422 427.065C311.099 427.427 310.764 427.562 310.419 427.471C310.074 427.38 309.956 427.274 309.719 427.062C309.374 426.97 309.018 426.652 308.673 426.561C308.091 426.258 307.724 425.713 307.368 425.395C306.894 424.971 306.419 424.547 305.945 424.123C305.708 423.912 305.578 423.579 305.341 423.367C305.104 423.155 304.748 422.837 304.737 422.611C304.478 421.946 304.661 421.025 304.413 420.586C304.844 420.104 305.167 419.742 305.728 419.592C305.836 419.471 306.062 419.457 306.278 419.216C306.612 419.08 306.827 418.839 307.161 418.704C307.937 418.313 308.713 417.922 309.619 417.864C309.953 417.728 310.513 417.578 310.847 417.443C311.408 417.293 311.861 417.264 312.313 417.235C312.992 417.191 313.671 417.147 314.361 417.33C314.933 417.407 315.741 417.695 316.108 418.24C316.475 418.784 316.054 419.493 315.85 419.961C315.753 420.308 315.43 420.67 315.333 421.017C315.128 421.485 314.923 421.953 314.719 422.421C314.406 423.009 314.083 423.371 313.771 423.959C313.555 424.2 313.232 424.562 313.027 425.03Z" fill="url(#paint27_linear_665_290)"/>
<path fill-rule="evenodd" clip-rule="evenodd" d="M320.097 288.209C320.097 288.209 317.847 295.741 320.06 306.393C320.06 306.393 324.821 296.767 326.081 292.254C326.081 292.254 325.778 288.297 320.097 288.209Z" fill="#FFFF0E"/>
<path fill-rule="evenodd" clip-rule="evenodd" d="M339.827 335.118C339.827 335.118 345.832 337.23 346.608 339.225C346.716 339.104 341.369 336.495 339.827 335.118Z" fill="#FFFF0E"/>
<path fill-rule="evenodd" clip-rule="evenodd" d="M358.424 344.146C359.47 344.646 360.516 345.147 361.551 345.421C362.478 345.816 363.394 345.984 364.429 346.258C365.69 346.517 366.952 346.777 368.202 346.81C368.547 346.901 368.773 346.886 369.118 346.978C369.463 347.069 369.916 347.04 370.261 347.131C370.606 347.222 370.94 347.087 371.285 347.179C371.63 347.27 371.964 347.135 372.309 347.226C372.88 347.303 373.56 347.259 374.012 347.23C374.239 347.215 374.465 347.2 374.918 347.171C375.144 347.157 375.263 347.263 375.381 347.369C375.274 347.489 374.939 347.624 374.832 347.745C374.498 347.88 374.271 347.895 373.937 348.03C373.269 348.3 372.579 348.118 371.792 348.282C371.339 348.311 370.887 348.341 370.315 348.264C369.744 348.187 369.054 348.005 368.364 347.822C367.674 347.639 367.092 347.336 366.521 347.259C365.949 347.182 365.259 347 364.796 346.802C364.451 346.711 363.88 346.634 363.535 346.543C363.19 346.451 362.845 346.36 362.5 346.269C361.928 346.192 361.465 345.995 360.893 345.918C360.548 345.827 360.43 345.721 360.085 345.629C359.514 345.552 358.813 345.143 358.338 344.719C358.22 344.613 357.983 344.401 357.864 344.295C357.745 344.189 357.734 343.963 357.734 343.963C358.079 344.054 358.306 344.04 358.424 344.146Z" fill="#FFFF0E"/>
<path fill-rule="evenodd" clip-rule="evenodd" d="M377.289 346.903C376.944 346.811 376.718 346.826 376.265 346.855C376.157 346.976 375.931 346.99 376.168 347.202C376.405 347.414 376.632 347.4 377.084 347.37C377.311 347.356 377.645 347.221 377.634 346.994C377.623 346.768 377.278 346.676 377.052 346.691L377.289 346.903Z" fill="#FFFF0E"/>
<path fill-rule="evenodd" clip-rule="evenodd" d="M400.796 339.931C400.462 340.066 400.009 340.095 399.675 340.23C399.341 340.366 399.233 340.486 398.899 340.621C398.458 340.877 397.908 341.254 397.466 341.509C396.582 342.021 395.709 342.759 394.707 343.165C394.265 343.421 393.931 343.556 393.371 343.706C393.144 343.72 392.81 343.856 392.702 343.976C392.476 343.991 392.368 344.111 392.034 344.247C391.808 344.261 391.7 344.382 391.474 344.396C391.247 344.411 391.032 344.652 390.805 344.667C390.579 344.681 390.019 344.831 390.029 345.058C390.148 345.164 390.256 345.043 390.374 345.149C390.601 345.135 390.946 345.226 391.28 345.091C391.851 345.168 392.412 345.018 392.972 344.868C393.199 344.853 393.425 344.839 393.759 344.703C394.093 344.568 394.438 344.66 394.772 344.524C395.333 344.375 396.012 344.331 396.464 344.301C396.691 344.287 397.025 344.152 397.251 344.137C397.478 344.122 397.704 344.108 398.038 343.972C398.944 343.914 399.73 343.75 400.636 343.691C401.315 343.647 401.983 343.377 402.662 343.333C403.223 343.183 403.783 343.033 404.225 342.777C404.451 342.763 404.893 342.507 405.001 342.386C405.098 342.039 404.968 341.707 404.731 341.495C404.375 341.177 404.02 340.859 403.664 340.541C403.2 340.344 402.855 340.252 402.392 340.055C402.047 339.964 401.594 339.993 401.13 339.796C400.796 339.931 400.451 339.839 400.796 339.931Z" fill="#FFFF0E"/>
<path fill-rule="evenodd" clip-rule="evenodd" d="M397.5 349.345C397.166 349.481 396.832 349.616 396.498 349.751C396.272 349.766 395.938 349.901 395.711 349.916C395.151 350.065 394.709 350.321 394.256 350.35C393.362 350.635 392.348 350.815 391.572 351.206C391.238 351.341 390.904 351.476 390.57 351.611C390.236 351.746 389.794 352.002 389.579 352.243C389.244 352.379 389.029 352.62 388.587 352.876C388.372 353.117 388.038 353.252 387.822 353.493C388.275 353.464 388.717 353.208 389.169 353.179C389.503 353.044 389.837 352.909 390.182 353C390.527 353.091 390.862 352.956 391.196 352.821C391.53 352.686 391.875 352.777 392.209 352.642C392.543 352.507 392.769 352.492 393.103 352.357C393.33 352.342 393.664 352.207 393.998 352.072C394.332 351.936 394.666 351.801 395 351.666C395.55 351.29 396.218 351.019 396.768 350.643C396.983 350.402 397.318 350.266 397.414 349.919C397.522 349.799 397.716 349.104 397.5 349.345Z" fill="#FFFF0E"/>
<path fill-rule="evenodd" clip-rule="evenodd" d="M386.583 353.69C386.141 353.945 385.807 354.081 385.484 354.442C385.376 354.563 385.268 354.684 385.268 354.684C385.387 354.79 385.505 354.896 385.613 354.775C385.732 354.881 385.839 354.76 385.947 354.64C386.174 354.625 386.508 354.49 386.605 354.143C386.82 353.902 386.691 353.569 386.356 353.704L386.583 353.69Z" fill="#FFFF0E"/>
<path fill-rule="evenodd" clip-rule="evenodd" d="M366.008 365.018C364.877 365.091 363.508 364.952 362.387 365.252C362.279 365.372 361.708 365.296 361.718 365.522C361.729 365.749 362.074 365.84 362.193 365.946C362.656 366.143 363.228 366.22 363.691 366.418C364.036 366.509 364.489 366.48 364.834 366.571C365.75 366.739 366.656 366.681 367.669 366.502C368.122 366.472 368.456 366.337 368.79 366.202C368.898 366.081 369.232 365.946 369.232 365.946C369.436 365.478 368.401 365.204 368.175 365.219C367.949 365.233 367.604 365.142 367.377 365.157C367.151 365.171 366.925 365.186 366.806 365.08C366.58 365.095 366.353 365.109 366.008 365.018C365.674 365.153 365.901 365.138 366.008 365.018Z" fill="#FFFF0E"/>
<path fill-rule="evenodd" clip-rule="evenodd" d="M360.468 365.49C360.123 365.398 359.778 365.307 359.552 365.322C359.444 365.442 359.099 365.351 359.11 365.577C359.121 365.804 359.466 365.895 359.466 365.895C359.584 366.001 359.811 365.987 360.037 365.972C360.253 365.731 360.253 365.731 360.468 365.49Z" fill="#FFFF0E"/>
<path fill-rule="evenodd" clip-rule="evenodd" d="M333.272 366.564C332.475 366.502 331.558 366.334 330.642 366.166C329.607 365.892 328.68 365.497 327.764 365.329C326.157 364.979 324.659 364.507 323.16 364.036C322.934 364.05 320.735 363.17 321.005 364.061C321.134 364.394 321.49 364.712 321.727 364.924C321.964 365.136 322.094 365.468 322.331 365.68C322.568 365.892 322.805 366.104 323.043 366.316C324.347 367.482 326.094 368.392 327.711 368.969C328.056 369.061 328.519 369.258 328.864 369.349C329.091 369.335 329.317 369.32 329.662 369.411C330.115 369.382 330.568 369.353 331.009 369.097C331.678 368.827 332.119 368.571 332.658 367.968C332.874 367.727 332.863 367.5 332.96 367.153C333.068 367.032 333.057 366.806 333.272 366.564Z" fill="#FFFF0E"/>
<path fill-rule="evenodd" clip-rule="evenodd" d="M320.357 362.398C320.228 362.065 320.087 361.506 319.732 361.188C319.613 361.082 319.494 360.976 319.376 360.87C319.139 360.658 318.675 360.461 318.33 360.369C317.877 360.399 318.255 361.17 318.384 361.502C318.514 361.835 318.988 362.259 319.333 362.35C319.57 362.562 320.142 362.639 320.357 362.398C320.476 362.504 320.476 362.504 320.476 362.504L320.357 362.398Z" fill="#FFFF0E"/>
<path fill-rule="evenodd" clip-rule="evenodd" d="M340.896 374.025C342.405 374.723 344.022 375.301 345.629 375.651C346.319 375.834 346.89 375.911 347.58 376.094C347.925 376.185 348.496 376.262 348.841 376.353C348.96 376.459 350.102 376.613 350.005 376.96C349.909 377.307 348.766 377.153 348.54 377.168C348.087 377.197 347.515 377.12 346.944 377.044C346.491 377.073 346.136 376.755 345.683 376.784C345.112 376.708 344.648 376.51 343.958 376.328C343.613 376.236 343.15 376.039 342.805 375.948C342.46 375.856 342.222 375.644 341.877 375.553C341.759 375.447 341.522 375.235 341.403 375.129C341.274 374.796 340.691 374.493 340.896 374.025Z" fill="#FFFF0E"/>
<path fill-rule="evenodd" clip-rule="evenodd" d="M361.419 404.291C362.012 404.821 362.616 405.578 363.316 405.987C363.899 406.29 364.254 406.608 364.836 406.912C365.775 407.533 366.939 408.14 367.769 408.881C368.125 409.199 368.481 409.517 368.837 409.835C369.074 410.047 369.311 410.259 369.43 410.365C369.548 410.471 369.678 410.804 369.57 410.924C369.592 411.377 369.354 411.165 369.236 411.059C368.772 410.862 368.32 410.891 367.964 410.573C367.263 410.164 366.681 409.861 365.98 409.451C365.624 409.134 365.268 408.816 364.794 408.392C364.212 408.088 363.737 407.664 363.144 407.135C362.67 406.711 362.314 406.393 361.84 405.969C361.484 405.651 361.354 405.318 360.998 405C360.761 404.789 360.524 404.577 360.513 404.35C360.524 404.577 360.502 404.123 361.419 404.291Z" fill="#FFFF0E"/>
<path fill-rule="evenodd" clip-rule="evenodd" d="M375.113 417.612C375.717 418.368 376.191 418.792 377.01 419.307C377.593 419.611 378.067 420.035 378.531 420.232C379.231 420.641 380.159 421.036 381.075 421.204C381.646 421.281 382.562 421.449 382.811 421.887C383.059 422.326 383.091 423.006 382.768 423.367C382.337 423.85 381.647 423.667 381.194 423.696C380.397 423.634 379.351 423.133 378.758 422.604C378.046 421.968 377.324 421.105 376.72 420.349C376.483 420.137 376.353 419.804 376.116 419.592C375.986 419.26 375.512 418.836 375.113 417.612Z" fill="#FFFF0E"/>
<path fill-rule="evenodd" clip-rule="evenodd" d="M401.988 390.875C401.557 391.357 400.016 392.366 400.286 393.258C400.426 393.817 401.083 393.32 401.299 393.078C401.741 392.823 402.365 391.646 401.988 390.875Z" fill="#FFFF0E"/>
<path fill-rule="evenodd" clip-rule="evenodd" d="M285.513 308.056C285.459 309.309 285.169 310.351 285.557 311.348C285.816 312.013 285.849 312.693 286.215 313.238C286.582 313.782 287.067 314.433 287.542 314.857C287.779 315.069 287.898 315.174 288.221 314.813C288.329 314.692 288.425 314.345 288.415 314.118C288.511 313.771 288.382 313.439 288.36 312.985C288.339 312.532 288.435 312.185 288.414 311.732C288.23 310.267 287.831 309.042 287.087 307.727C286.839 307.288 286.839 307.288 286.375 307.091C286.03 307 286.03 307 285.696 307.135C285.373 307.497 285.287 308.07 285.201 308.644L285.513 308.056Z" fill="#FFFF0E"/>
<path fill-rule="evenodd" clip-rule="evenodd" d="M275.966 319.697C275.503 321.886 275.493 324.045 275.375 326.326C275.332 327.806 274.729 329.436 274.805 331.022C274.816 331.248 275.173 333.952 275.819 333.229C275.927 333.108 276.099 331.961 276.207 331.84C276.293 331.266 276.487 330.572 276.454 329.892C276.54 329.319 276.4 328.759 276.605 328.292C276.691 327.718 276.669 327.265 276.755 326.691C276.722 326.011 277.024 325.196 277.11 324.623C277.196 324.049 277.271 323.249 277.357 322.675C277.54 321.754 277.605 320.727 277.227 319.956C277.216 319.729 277.087 319.397 276.742 319.306C275.825 319.137 275.416 320.073 275.966 319.697Z" fill="#FFFF0E"/>
<path fill-rule="evenodd" clip-rule="evenodd" d="M306.021 394.914C307.541 395.839 308.705 396.446 309.687 397.973C310.172 398.624 310.55 399.395 311.035 400.045C311.283 400.484 311.768 401.134 311.79 401.587C311.704 402.161 311.273 402.643 310.702 402.567C310.023 402.61 309.3 401.748 308.826 401.324C307.985 400.356 307.262 399.493 306.529 398.404C306.162 397.86 305.666 396.983 305.515 396.197C305.504 395.971 305.46 395.064 306.021 394.914Z" fill="#FFFF0E"/>
<path fill-rule="evenodd" clip-rule="evenodd" d="M317.185 417.033C316.7 416.383 317.659 415.071 318.327 414.801C318.661 414.665 319.211 414.289 319.674 414.486C320.019 414.578 319.922 414.925 320.16 415.137C319.384 415.528 318.597 415.692 317.81 415.857L317.185 417.033Z" fill="#FFFF0E"/>
<path fill-rule="evenodd" clip-rule="evenodd" d="M341.111 437.763C342.48 437.902 343.396 438.07 344.56 438.677C345.143 438.98 345.725 439.284 346.307 439.587C347.008 439.996 347.806 440.058 348.399 440.588C348.636 440.8 348.754 440.906 349.099 440.997C349.337 441.209 349.326 440.983 349.455 441.315C349.714 441.981 349.154 442.13 348.701 442.16C347.677 442.112 346.987 441.929 346.167 441.414C345.585 441.111 345.133 441.14 344.55 440.837C344.205 440.745 343.968 440.533 343.623 440.442C342.34 439.729 341.488 438.534 341.111 437.763Z" fill="#FFFF0E"/>
<path fill-rule="evenodd" clip-rule="evenodd" d="M267.509 368.31C267.014 369.819 266.519 371.329 266.368 372.929C266.293 373.73 266.207 374.303 266.466 374.968C266.714 375.407 266.962 375.846 267.501 375.243C267.716 375.001 267.91 374.307 268.007 373.96C268.287 372.692 268.233 371.559 268.405 370.411C268.383 369.958 268.577 369.264 268.447 368.931C268.199 368.493 267.822 367.722 267.509 368.31Z" fill="#FFFF0E"/>
<path fill-rule="evenodd" clip-rule="evenodd" d="M267.686 412.275C269.206 413.199 270.705 413.671 272.214 414.369C272.904 414.551 273.378 414.975 273.972 415.505L274.198 415.491C274.316 415.597 274.554 415.808 274.672 415.914C274.791 416.02 275.492 416.43 275.503 416.656C275.654 417.442 273.843 417.559 273.498 417.468C271.913 417.57 270.178 416.887 268.981 415.6C268.495 414.95 268.118 414.179 267.633 413.528C267.277 413.21 266.662 412.227 267.093 411.745C267.104 411.971 267.212 411.851 267.686 412.275Z" fill="#FFFF0E"/>
<path fill-rule="evenodd" clip-rule="evenodd" d="M301.038 418.872C299.324 418.642 297.373 418.2 295.465 418.664C294.117 418.978 295.4 419.691 295.983 419.994C296.446 420.191 296.91 420.389 297.362 420.359C297.815 420.33 298.16 420.422 298.721 420.272C299.173 420.242 299.4 420.228 299.745 420.319C300.079 420.184 300.521 419.928 300.866 420.02C300.973 419.899 300.855 419.793 300.963 419.672L301.038 418.872Z" fill="#FFFF0E"/>
<path fill-rule="evenodd" clip-rule="evenodd" d="M286.062 374.044C287.216 374.424 288.262 374.925 289.404 375.078C290.439 375.352 291.582 375.506 292.617 375.78C293.997 376.145 295.484 376.39 296.659 377.223C297.015 377.541 297.587 377.618 297.727 378.177C297.975 378.616 297.986 378.842 298.008 379.295C297.846 380.669 296.014 380.333 295.097 380.165C294.3 380.103 293.621 380.147 292.812 379.858C292.004 379.569 291.303 379.16 290.494 378.872C289.222 378.385 287.724 377.914 286.548 377.081C285.848 376.672 285.589 376.007 285.438 375.221C285.308 374.888 285.286 374.435 285.383 374.088C285.372 373.861 285.469 373.514 286.062 374.044Z" fill="#FFFF0E"/>
<defs>
<linearGradient id="paint0_linear_665_290" x1="44.3806" y1="108.688" x2="44.3806" y2="62.6518" gradientUnits="userSpaceOnUse">
<stop stop-color="#9A00B3"/>
<stop offset="1" stop-color="#7F72FF"/>
</linearGradient>
<linearGradient id="paint1_linear_665_290" x1="34.1929" y1="111.02" x2="51.4909" y2="58.2108" gradientUnits="userSpaceOnUse">
<stop stop-color="#5B008B"/>
<stop offset="1" stop-color="#8E00FF"/>
</linearGradient>
<radialGradient id="paint2_radial_665_290" cx="0" cy="0" r="1" gradientUnits="userSpaceOnUse" gradientTransform="translate(50.3575 117.832) scale(213.529 213.529)">
<stop offset="0.00558659" stop-color="#60DBFF"/>
<stop offset="0.0937306" stop-color="#60D5FF"/>
<stop offset="0.211" stop-color="#5FC4FF"/>
<stop offset="0.3446" stop-color="#5DA9FF"/>
<stop offset="0.4903" stop-color="#5A82FF"/>
<stop offset="0.6442" stop-color="#5751FF"/>
<stop offset="0.6844" stop-color="#5643FF"/>
<stop offset="0.7432" stop-color="#563DF8"/>
<stop offset="0.8282" stop-color="#552EE5"/>
<stop offset="0.9287" stop-color="#5315C6"/>
<stop offset="1" stop-color="#5200AB"/>
</radialGradient>
<linearGradient id="paint3_linear_665_290" x1="-0.247475" y1="143.54" x2="190.97" y2="143.54" gradientUnits="userSpaceOnUse">
<stop offset="0.0111732" stop-color="#81E0FF"/>
<stop offset="0.3224" stop-color="#82DDFF"/>
<stop offset="0.5506" stop-color="#86D4FF"/>
<stop offset="0.7523" stop-color="#8BC4FF"/>
<stop offset="0.9375" stop-color="#94ADFF"/>
<stop offset="1" stop-color="#97A4FF"/>
</linearGradient>
<linearGradient id="paint4_linear_665_290" x1="0.968519" y1="105.913" x2="168.143" y2="105.913" gradientUnits="userSpaceOnUse">
<stop stop-color="#B8C2FF"/>
<stop offset="1" stop-color="#7D72B3"/>
</linearGradient>
<linearGradient id="paint5_linear_665_290" x1="28.0972" y1="230.35" x2="265.612" y2="230.35" gradientUnits="userSpaceOnUse">
<stop stop-color="#B8C2FF"/>
<stop offset="1" stop-color="#7D72B3"/>
</linearGradient>
<linearGradient id="paint6_linear_665_290" x1="14.0695" y1="181.22" x2="251.107" y2="181.22" gradientUnits="userSpaceOnUse">
<stop stop-color="#B8C2FF"/>
<stop offset="1" stop-color="#7D72B3"/>
</linearGradient>
<linearGradient id="paint7_linear_665_290" x1="-0.241583" y1="148.098" x2="232.755" y2="148.098" gradientUnits="userSpaceOnUse">
<stop stop-color="#B8C2FF"/>
<stop offset="1" stop-color="#7D72B3"/>
</linearGradient>
<linearGradient id="paint8_linear_665_290" x1="172.851" y1="132.287" x2="176.049" y2="132.287" gradientUnits="userSpaceOnUse">
<stop stop-color="#E8DDFF"/>
<stop offset="1" stop-color="#AA8AD8"/>
</linearGradient>
<linearGradient id="paint9_linear_665_290" x1="145.885" y1="199.238" x2="157.258" y2="164.519" gradientUnits="userSpaceOnUse">
<stop stop-color="#5B008B"/>
<stop offset="1" stop-color="#8E00FF"/>
</linearGradient>
<linearGradient id="paint10_linear_665_290" x1="8.09271" y1="187.99" x2="8.75679" y2="187.99" gradientUnits="userSpaceOnUse">
<stop stop-color="#E8DDFF"/>
<stop offset="1" stop-color="#AA8AD8"/>
</linearGradient>
<linearGradient id="paint11_linear_665_290" x1="158.166" y1="73.4317" x2="243.48" y2="73.4317" gradientUnits="userSpaceOnUse">
<stop stop-color="#7F72FF"/>
<stop offset="1" stop-color="#9A00B3"/>
</linearGradient>
<linearGradient id="paint12_linear_665_290" x1="177.545" y1="278.232" x2="220.821" y2="146.116" gradientUnits="userSpaceOnUse">
<stop stop-color="#280077"/>
<stop offset="1" stop-color="#812CFF"/>
</linearGradient>
<linearGradient id="paint13_linear_665_290" x1="189.934" y1="275.543" x2="231.217" y2="149.519" gradientUnits="userSpaceOnUse">
<stop stop-color="#7A00B3"/>
<stop offset="1" stop-color="#B136FF"/>
</linearGradient>
<linearGradient id="paint14_linear_665_290" x1="204.155" y1="239.389" x2="204.155" y2="148.105" gradientUnits="userSpaceOnUse">
<stop stop-color="#8E00B3"/>
<stop offset="1" stop-color="#E05CFF"/>
</linearGradient>
<linearGradient id="paint15_linear_665_290" x1="42.7351" y1="276.836" x2="60.6111" y2="222.263" gradientUnits="userSpaceOnUse">
<stop stop-color="#280077"/>
<stop offset="1" stop-color="#812CFF"/>
</linearGradient>
<linearGradient id="paint16_linear_665_290" x1="152.036" y1="324.145" x2="152.036" y2="300.505" gradientUnits="userSpaceOnUse">
<stop stop-color="#7A00B3"/>
<stop offset="0.9162" stop-color="#7006FC"/>
<stop offset="1" stop-color="#7006F9"/>
</linearGradient>
<linearGradient id="paint17_linear_665_290" x1="43.8085" y1="285.555" x2="43.8085" y2="217.604" gradientUnits="userSpaceOnUse">
<stop stop-color="#7A00B3"/>
<stop offset="1" stop-color="#B136FF"/>
</linearGradient>
<linearGradient id="paint18_linear_665_290" x1="47.3686" y1="285.532" x2="47.3686" y2="217.607" gradientUnits="userSpaceOnUse">
<stop stop-color="#8E00B3"/>
<stop offset="1" stop-color="#E05CFF"/>
</linearGradient>
<linearGradient id="paint19_linear_665_290" x1="149.371" y1="193.335" x2="158.777" y2="164.618" gradientUnits="userSpaceOnUse">
<stop stop-color="#A400CA"/>
<stop offset="1" stop-color="#B136FF"/>
</linearGradient>
<linearGradient id="paint20_linear_665_290" x1="196.525" y1="91.1473" x2="210.101" y2="49.7039" gradientUnits="userSpaceOnUse">
<stop stop-color="#5B008B"/>
<stop offset="1" stop-color="#8E00FF"/>
</linearGradient>
<linearGradient id="paint21_linear_665_290" x1="211.958" y1="87.0916" x2="211.958" y2="42.6479" gradientUnits="userSpaceOnUse">
<stop stop-color="#B000D9"/>
<stop offset="1" stop-color="#E05CFF"/>
</linearGradient>
<radialGradient id="paint22_radial_665_290" cx="0" cy="0" r="1" gradientUnits="userSpaceOnUse" gradientTransform="translate(318.794 310.361) rotate(41.7811) scale(121.043 123.073)">
<stop offset="0.00558659" stop-color="#9D9D94"/>
<stop offset="0.2018" stop-color="#DFD2C1"/>
<stop offset="0.3542" stop-color="#C2B5A2"/>
<stop offset="0.4919" stop-color="#D5C8B5"/>
<stop offset="0.6209" stop-color="#A09277"/>
<stop offset="0.7437" stop-color="#847B60"/>
<stop offset="0.8606" stop-color="#736950"/>
<stop offset="0.942708" stop-color="#A09277"/>
</radialGradient>
<radialGradient id="paint23_radial_665_290" cx="0" cy="0" r="1" gradientUnits="userSpaceOnUse" gradientTransform="translate(318.794 309.397) rotate(41.7811) scale(121.043 123.073)">
<stop offset="0.00558659" stop-color="#9D9D94"/>
<stop offset="0.2018" stop-color="#DFD2C1"/>
<stop offset="0.3542" stop-color="#C2B5A2"/>
<stop offset="0.4919" stop-color="#D5C8B5"/>
<stop offset="0.6209" stop-color="#A09277"/>
<stop offset="0.7437" stop-color="#847B60"/>
<stop offset="0.8606" stop-color="#736950"/>
<stop offset="0.942708" stop-color="#A09277"/>
</radialGradient>
<linearGradient id="paint24_linear_665_290" x1="287.53" y1="302.296" x2="368.361" y2="374.518" gradientUnits="userSpaceOnUse">
<stop offset="0.0111732" stop-color="#D7CAB7"/>
<stop offset="0.2983" stop-color="#E1DAC0"/>
<stop offset="0.695" stop-color="#EDE0CE"/>
<stop offset="0.8659" stop-color="#C3B6A2"/>
<stop offset="1" stop-color="#9A968B"/>
</linearGradient>
<linearGradient id="paint25_linear_665_290" x1="295.247" y1="293.142" x2="394.519" y2="381.843" gradientUnits="userSpaceOnUse">
<stop offset="0.00558659" stop-color="#FFB80B"/>
<stop offset="0.388" stop-color="#FFB60C"/>
<stop offset="0.5789" stop-color="#FEAE10"/>
<stop offset="0.7274" stop-color="#FCA117"/>
<stop offset="0.8539" stop-color="#FA8E21"/>
<stop offset="0.9655" stop-color="#F7762E"/>
<stop offset="1" stop-color="#F66D33"/>
</linearGradient>
<radialGradient id="paint26_radial_665_290" cx="0" cy="0" r="1" gradientUnits="userSpaceOnUse" gradientTransform="translate(258.097 352.262) rotate(41.7811) scale(38.2728 38.9146)">
<stop offset="0.00558659" stop-color="#FFB80B"/>
<stop offset="0.388" stop-color="#FFB60C"/>
<stop offset="0.5789" stop-color="#FEAE10"/>
<stop offset="0.7274" stop-color="#FCA117"/>
<stop offset="0.8539" stop-color="#FA8E21"/>
<stop offset="0.9655" stop-color="#F7762E"/>
<stop offset="1" stop-color="#F66D33"/>
</radialGradient>
<linearGradient id="paint27_linear_665_290" x1="256.117" y1="333.085" x2="372.513" y2="437.086" gradientUnits="userSpaceOnUse">
<stop offset="0.00558659" stop-color="#FFB80B"/>
<stop offset="0.388" stop-color="#FFB60C"/>
<stop offset="0.5789" stop-color="#FEAE10"/>
<stop offset="0.7274" stop-color="#FCA117"/>
<stop offset="0.8539" stop-color="#FA8E21"/>
<stop offset="0.9655" stop-color="#F7762E"/>
<stop offset="1" stop-color="#F66D33"/>
</linearGradient>
</defs>
</svg>
