<svg width="915" height="369" viewBox="0 0 915 369" fill="none" xmlns="http://www.w3.org/2000/svg">
<path d="M660.571 0.249664L914.321 348.804H0.491211L254.242 0.249664H660.571Z" fill="url(#paint0_linear_138_77)" stroke="black" stroke-width="0.5"/>
<rect x="0.25" y="349.304" width="914.312" height="19.4459" fill="#686249" stroke="#080808" stroke-width="0.5"/>
<path d="M449.782 1.24609H465.029V347.807H449.782V1.24609Z" fill="white"/>
<path d="M134.495 122.444H777V162.44H134.495V122.444Z" fill="#944A33" fill-opacity="0.47"/>
<path d="M134.995 122.944H776.5V161.94H134.995V122.944Z" stroke="white" stroke-opacity="0.74"/>
<path d="M143.42 127.707H772.19" stroke="white" stroke-width="0.05" stroke-linecap="round"/>
<path d="M140.87 138.37H773.605" stroke="white" stroke-width="0.05" stroke-linecap="round"/>
<path d="M140.05 141.107H773.973" stroke="white" stroke-width="0.05" stroke-linecap="round"/>
<path d="M139.398 143.773H774.292" stroke="white" stroke-width="0.05" stroke-linecap="round"/>
<path d="M138.626 146.44L774.641 146.44" stroke="white" stroke-width="0.05" stroke-linecap="round"/>
<path d="M136.753 154.439H775.727" stroke="white" stroke-width="0.05" stroke-linecap="round"/>
<path d="M135.45 159.702H776.35" stroke="white" stroke-width="0.05" stroke-linecap="round"/>
<path d="M141.435 135.772H773.257" stroke="white" stroke-width="0.05" stroke-linecap="round"/>
<path d="M142.146 133.107H772.884" stroke="white" stroke-width="0.05" stroke-linecap="round"/>
<path d="M142.723 130.441H772.532" stroke="white" stroke-width="0.05" stroke-linecap="round"/>
<path d="M137.934 149.104H774.961" stroke="white" stroke-width="0.05" stroke-linecap="round"/>
<path d="M137.404 151.773H774.452" stroke="white" stroke-width="0.05" stroke-linecap="round"/>
<path d="M135.979 157.104H775.909" stroke="white" stroke-width="0.05" stroke-linecap="round"/>
<rect x="142" y="123" width="628" height="6" fill="#D9D9D9"/>
<rect x="134" y="118" width="8.82333" height="44.4398" fill="url(#paint1_linear_138_77)"/>
<rect x="769" y="118" width="8.82333" height="44.4398" fill="url(#paint2_linear_138_77)"/>
<defs>
<linearGradient id="paint0_linear_138_77" x1="457.71" y1="-0.000582195" x2="457.71" y2="272.16" gradientUnits="userSpaceOnUse">
<stop offset="0.0212659" stop-color="#A32010"/>
<stop offset="0.921396" stop-color="#837B5C"/>
</linearGradient>
<linearGradient id="paint1_linear_138_77" x1="134" y1="141.886" x2="142.823" y2="141.886" gradientUnits="userSpaceOnUse">
<stop stop-color="#1B1818"/>
<stop offset="1" stop-color="#9C9C9C"/>
</linearGradient>
<linearGradient id="paint2_linear_138_77" x1="769" y1="141.886" x2="777.823" y2="141.886" gradientUnits="userSpaceOnUse">
<stop stop-color="#9C9C9C"/>
<stop offset="1" stop-color="#1B1818"/>
</linearGradient>
</defs>
</svg>
