<svg width="886" height="168" viewBox="0 0 886 168" fill="none" xmlns="http://www.w3.org/2000/svg">
<path d="M224.466 67H202.416C196.582 67 192.242 65.8333 189.396 63.5C186.596 61.1667 185.196 57.5733 185.196 52.72V30.88C185.196 26.0267 186.596 22.4333 189.396 20.1C192.242 17.7667 196.582 16.6 202.416 16.6H219.916C220.802 16.6 221.432 16.81 221.806 17.23C222.226 17.6033 222.436 18.2333 222.436 19.12V27.59C222.436 28.4767 222.226 29.13 221.806 29.55C221.432 29.9233 220.802 30.11 219.916 30.11H205.356C203.909 30.11 202.836 30.4133 202.136 31.02C201.436 31.58 201.086 32.4433 201.086 33.61V50.34C201.086 51.5067 201.342 52.37 201.856 52.93C202.416 53.49 203.232 53.77 204.306 53.77H211.096V42.85C211.096 41.9633 211.282 41.3333 211.656 40.96C212.076 40.54 212.729 40.33 213.616 40.33H224.466C225.352 40.33 225.982 40.54 226.356 40.96C226.776 41.3333 226.986 41.9633 226.986 42.85V64.48C226.986 65.3667 226.776 66.02 226.356 66.44C225.982 66.8133 225.352 67 224.466 67ZM205.426 60.7H219.356V46.63H218.656V60H205.426C200.712 60 197.539 59.37 195.906 58.11C194.319 56.85 193.526 54.7033 193.526 51.67V32.07C193.526 28.99 194.249 26.82 195.696 25.56C197.142 24.2533 199.919 23.6 204.026 23.6H216.136V22.9H204.026C199.546 22.9 196.559 23.6 195.066 25C193.572 26.4 192.826 28.7567 192.826 32.07V51.67C192.826 53.3033 192.989 54.7033 193.316 55.87C193.689 56.99 194.342 57.9233 195.276 58.67C196.209 59.37 197.492 59.8833 199.126 60.21C200.759 60.5367 202.859 60.7 205.426 60.7ZM243.296 45.79C243.296 44.53 243.39 43.3633 243.576 42.29C243.81 41.2167 244.09 40.2133 244.416 39.28L248.896 27.8C249.363 26.6333 249.876 25.6533 250.436 24.86C250.996 24.02 251.976 23.6 253.376 23.6H260.236C261.543 23.6 262.476 24.02 263.036 24.86C263.596 25.6533 264.133 26.6567 264.646 27.87L269.476 39.28C269.803 40.2133 270.06 41.2167 270.246 42.29C270.48 43.3633 270.596 44.53 270.596 45.79V47.96H243.296V45.79ZM254.496 31.3L251.206 41.94H262.196L258.906 31.3C258.72 30.88 258.51 30.5767 258.276 30.39C258.09 30.2033 257.856 30.11 257.576 30.11H255.826C255.546 30.11 255.29 30.2033 255.056 30.39C254.87 30.5767 254.683 30.88 254.496 31.3ZM270.596 60.7H271.296V45.79C271.296 44.4833 271.18 43.2933 270.946 42.22C270.76 41.1 270.48 40.0267 270.106 39L265.276 27.59C264.716 26.2367 264.11 25.1167 263.456 24.23C262.85 23.3433 261.776 22.9 260.236 22.9H253.376C251.79 22.9 250.67 23.3433 250.016 24.23C249.363 25.1167 248.78 26.2133 248.266 27.52L243.786 39C243.413 40.0267 243.11 41.1 242.876 42.22C242.69 43.2933 242.596 44.4833 242.596 45.79V60.7H243.296V48.66H270.596V60.7ZM250.506 64.48C250.506 65.3667 250.296 66.02 249.876 66.44C249.503 66.8133 248.873 67 247.986 67H237.696C236.81 67 236.156 66.8133 235.736 66.44C235.363 66.02 235.176 65.3667 235.176 64.48V46C235.176 44.6 235.386 42.99 235.806 41.17C236.273 39.35 236.973 37.2267 237.906 34.8L243.996 18.91C244.276 18.1167 244.696 17.5333 245.256 17.16C245.863 16.7867 246.633 16.6 247.566 16.6H266.396C267.283 16.6 268.006 16.7867 268.566 17.16C269.173 17.5333 269.616 18.1167 269.896 18.91L275.986 34.8C276.92 37.2267 277.596 39.35 278.016 41.17C278.483 42.99 278.716 44.6 278.716 46V64.48C278.716 65.3667 278.506 66.02 278.086 66.44C277.713 66.8133 277.083 67 276.196 67H265.626C264.693 67 263.993 66.8133 263.526 66.44C263.106 66.02 262.896 65.3667 262.896 64.48V54.68H250.506V64.48ZM326.209 67H290.579C289.692 67 289.039 66.8133 288.619 66.44C288.246 66.02 288.059 65.3667 288.059 64.48V19.12C288.059 18.2333 288.246 17.6033 288.619 17.23C289.039 16.81 289.692 16.6 290.579 16.6H301.429C302.316 16.6 302.946 16.81 303.319 17.23C303.739 17.6033 303.949 18.2333 303.949 19.12V53.77H313.539V42.43C313.539 41.5433 313.726 40.9133 314.099 40.54C314.519 40.12 315.172 39.91 316.059 39.91H326.209C327.096 39.91 327.726 40.12 328.099 40.54C328.519 40.9133 328.729 41.5433 328.729 42.43V64.48C328.729 65.3667 328.519 66.02 328.099 66.44C327.726 66.8133 327.096 67 326.209 67ZM295.689 60.7H321.449V46.21H320.749V60H296.389V22.9H295.689V60.7ZM344.501 45.79C344.501 44.53 344.594 43.3633 344.781 42.29C345.014 41.2167 345.294 40.2133 345.621 39.28L350.101 27.8C350.568 26.6333 351.081 25.6533 351.641 24.86C352.201 24.02 353.181 23.6 354.581 23.6H361.441C362.748 23.6 363.681 24.02 364.241 24.86C364.801 25.6533 365.338 26.6567 365.851 27.87L370.681 39.28C371.008 40.2133 371.264 41.2167 371.451 42.29C371.684 43.3633 371.801 44.53 371.801 45.79V47.96H344.501V45.79ZM355.701 31.3L352.411 41.94H363.401L360.111 31.3C359.924 30.88 359.714 30.5767 359.481 30.39C359.294 30.2033 359.061 30.11 358.781 30.11H357.031C356.751 30.11 356.494 30.2033 356.261 30.39C356.074 30.5767 355.888 30.88 355.701 31.3ZM371.801 60.7H372.501V45.79C372.501 44.4833 372.384 43.2933 372.151 42.22C371.964 41.1 371.684 40.0267 371.311 39L366.481 27.59C365.921 26.2367 365.314 25.1167 364.661 24.23C364.054 23.3433 362.981 22.9 361.441 22.9H354.581C352.994 22.9 351.874 23.3433 351.221 24.23C350.568 25.1167 349.984 26.2133 349.471 27.52L344.991 39C344.618 40.0267 344.314 41.1 344.081 42.22C343.894 43.2933 343.801 44.4833 343.801 45.79V60.7H344.501V48.66H371.801V60.7ZM351.711 64.48C351.711 65.3667 351.501 66.02 351.081 66.44C350.708 66.8133 350.078 67 349.191 67H338.901C338.014 67 337.361 66.8133 336.941 66.44C336.568 66.02 336.381 65.3667 336.381 64.48V46C336.381 44.6 336.591 42.99 337.011 41.17C337.478 39.35 338.178 37.2267 339.111 34.8L345.201 18.91C345.481 18.1167 345.901 17.5333 346.461 17.16C347.068 16.7867 347.838 16.6 348.771 16.6H367.601C368.488 16.6 369.211 16.7867 369.771 17.16C370.378 17.5333 370.821 18.1167 371.101 18.91L377.191 34.8C378.124 37.2267 378.801 39.35 379.221 41.17C379.688 42.99 379.921 44.6 379.921 46V64.48C379.921 65.3667 379.711 66.02 379.291 66.44C378.918 66.8133 378.288 67 377.401 67H366.831C365.898 67 365.198 66.8133 364.731 66.44C364.311 66.02 364.101 65.3667 364.101 64.48V54.68H351.711V64.48ZM396.824 57.55C396.824 56.57 396.87 55.6367 396.964 54.75C397.057 53.8167 397.337 53.0467 397.804 52.44L406.064 41.1H414.464L422.654 52.44C423.12 53.0933 423.4 53.8633 423.494 54.75C423.587 55.6367 423.634 56.57 423.634 57.55V60.7H424.334V57.55C424.334 56.5233 424.287 55.5667 424.194 54.68C424.1 53.7467 423.797 52.9067 423.284 52.16L415.024 40.82L423.284 29.34C423.797 28.5933 424.1 27.7767 424.194 26.89C424.287 25.9567 424.334 24.9767 424.334 23.95V22.9H423.634V23.95C423.634 24.93 423.587 25.8633 423.494 26.75C423.4 27.6367 423.12 28.4067 422.654 29.06L414.534 40.4H406.204L397.804 29.06C397.337 28.4067 397.057 27.6367 396.964 26.75C396.87 25.8633 396.824 24.93 396.824 23.95V22.9H396.124V23.95C396.124 24.9767 396.17 25.9567 396.264 26.89C396.357 27.7767 396.66 28.5933 397.174 29.34L405.574 40.68L397.174 52.16C396.614 52.9067 396.287 53.7467 396.194 54.68C396.147 55.5667 396.124 56.5233 396.124 57.55V60.7H396.824V57.55ZM404.314 64.48C404.314 65.3667 404.104 66.02 403.684 66.44C403.31 66.8133 402.68 67 401.794 67H391.154C390.267 67 389.614 66.8133 389.194 66.44C388.82 66.02 388.634 65.3667 388.634 64.48V56.99C388.634 54.8433 388.82 53.2333 389.194 52.16C389.567 51.0867 390.267 49.8267 391.294 48.38L396.964 40.75L391.294 33.12C390.22 31.6733 389.497 30.4133 389.124 29.34C388.797 28.2667 388.634 26.6567 388.634 24.51V19.12C388.634 18.2333 388.82 17.6033 389.194 17.23C389.614 16.81 390.267 16.6 391.154 16.6H401.934C402.82 16.6 403.45 16.81 403.824 17.23C404.244 17.6033 404.454 18.2333 404.454 19.12V23.95C404.454 24.4167 404.477 24.9067 404.524 25.42C404.57 25.9333 404.757 26.4233 405.084 26.89L408.164 31.3C408.397 31.6733 408.63 31.9767 408.864 32.21C409.144 32.3967 409.47 32.49 409.844 32.49H410.684C411.057 32.49 411.36 32.3967 411.594 32.21C411.827 31.9767 412.084 31.6733 412.364 31.3L415.514 26.89C415.84 26.4233 416.027 25.9333 416.074 25.42C416.12 24.9067 416.144 24.4167 416.144 23.95V19.12C416.144 18.2333 416.33 17.6033 416.704 17.23C417.124 16.81 417.777 16.6 418.664 16.6H429.304C430.19 16.6 430.82 16.81 431.194 17.23C431.614 17.6033 431.824 18.2333 431.824 19.12V24.51C431.824 26.6567 431.637 28.2667 431.264 29.34C430.89 30.4133 430.19 31.6733 429.164 33.12L423.494 40.82L429.164 48.38C430.237 49.8267 430.937 51.0867 431.264 52.16C431.637 53.2333 431.824 54.8433 431.824 56.99V64.48C431.824 65.3667 431.614 66.02 431.194 66.44C430.82 66.8133 430.19 67 429.304 67H418.664C417.777 67 417.124 66.8133 416.704 66.44C416.33 66.02 416.144 65.3667 416.144 64.48V57.55C416.144 57.0833 416.12 56.5933 416.074 56.08C416.027 55.5667 415.84 55.0767 415.514 54.61L412.434 50.2C412.154 49.78 411.897 49.4767 411.664 49.29C411.43 49.1033 411.127 49.01 410.754 49.01H409.774C409.4 49.01 409.097 49.1033 408.864 49.29C408.63 49.4767 408.374 49.78 408.094 50.2L404.944 54.61C404.617 55.0767 404.43 55.5667 404.384 56.08C404.337 56.5933 404.314 57.0833 404.314 57.55V64.48ZM465.758 67H454.418C453.531 67 452.878 66.8133 452.458 66.44C452.085 66.02 451.898 65.3667 451.898 64.48V55.52L441.188 41.17C440.115 39.7233 439.391 38.4633 439.018 37.39C438.691 36.3167 438.528 34.7067 438.528 32.56V19.12C438.528 18.2333 438.715 17.6033 439.088 17.23C439.508 16.81 440.161 16.6 441.048 16.6H451.828C452.715 16.6 453.345 16.81 453.718 17.23C454.138 17.6033 454.348 18.2333 454.348 19.12V30.6C454.348 31.0667 454.371 31.5567 454.418 32.07C454.465 32.5833 454.651 33.0733 454.978 33.54L458.198 38.58C458.431 39 458.665 39.3033 458.898 39.49C459.178 39.6767 459.505 39.77 459.878 39.77H460.578C460.951 39.77 461.255 39.6767 461.488 39.49C461.768 39.3033 462.025 39 462.258 38.58L465.478 33.54C465.805 33.0733 465.991 32.5833 466.038 32.07C466.085 31.5567 466.108 31.0667 466.108 30.6V19.12C466.108 18.2333 466.295 17.6033 466.668 17.23C467.088 16.81 467.741 16.6 468.628 16.6H479.058C479.945 16.6 480.575 16.81 480.948 17.23C481.368 17.6033 481.578 18.2333 481.578 19.12V32.56C481.578 34.7067 481.391 36.3167 481.018 37.39C480.645 38.4633 479.945 39.7233 478.918 41.17L468.278 55.59V64.48C468.278 65.3667 468.068 66.02 467.648 66.44C467.275 66.8133 466.645 67 465.758 67ZM460.928 48.73C462.001 48.73 462.935 48.4967 463.728 48.03C464.568 47.5633 465.361 46.8167 466.108 45.79L473.108 36.34C473.668 35.5933 473.971 34.7767 474.018 33.89C474.111 32.9567 474.158 31.9767 474.158 30.95V22.9H473.458V30.95C473.458 31.93 473.411 32.8867 473.318 33.82C473.225 34.7067 472.945 35.4533 472.478 36.06L465.478 45.51C464.778 46.3967 464.055 47.05 463.308 47.47C462.608 47.8433 461.815 48.03 460.928 48.03H459.038C458.245 48.03 457.451 47.8433 456.658 47.47C455.865 47.0967 455.165 46.4433 454.558 45.51L447.768 36.06C447.301 35.36 447.021 34.59 446.928 33.75C446.835 32.8633 446.788 31.93 446.788 30.95V22.9H446.088V30.95C446.088 31.9767 446.135 32.9567 446.228 33.89C446.321 34.8233 446.625 35.64 447.138 36.34L453.928 45.79C454.675 46.8167 455.445 47.5633 456.238 48.03C457.078 48.4967 458.011 48.73 459.038 48.73H459.738V60.7H460.438V48.73H460.928ZM519.372 67H508.522C507.636 67 506.982 66.8133 506.562 66.44C506.189 66.02 506.002 65.3667 506.002 64.48V19.12C506.002 18.2333 506.189 17.6033 506.562 17.23C506.982 16.81 507.636 16.6 508.522 16.6H529.942C536.289 16.6 540.629 17.86 542.962 20.38C545.296 22.9 546.462 26.19 546.462 30.25V39.21C546.462 43.27 545.296 46.56 542.962 49.08C540.629 51.6 536.289 52.86 529.942 52.86H521.892V64.48C521.892 65.3667 521.682 66.02 521.262 66.44C520.889 66.8133 520.259 67 519.372 67ZM528.962 46.91C531.156 46.91 532.929 46.6767 534.282 46.21C535.682 45.7433 536.756 45.1133 537.502 44.32C538.249 43.48 538.762 42.5 539.042 41.38C539.322 40.2133 539.462 38.9533 539.462 37.6V32.42C539.462 31.0667 539.322 29.8067 539.042 28.64C538.762 27.4733 538.249 26.47 537.502 25.63C536.756 24.79 535.682 24.1367 534.282 23.67C532.929 23.1567 531.156 22.9 528.962 22.9H513.842V60.7H514.542V46.91H528.962ZM514.542 46.21V23.6H528.962C531.016 23.6 532.672 23.8333 533.932 24.3C535.239 24.72 536.242 25.3267 536.942 26.12C537.642 26.9133 538.109 27.8467 538.342 28.92C538.622 29.9933 538.762 31.16 538.762 32.42V37.6C538.762 38.86 538.622 40.0267 538.342 41.1C538.109 42.1267 537.642 43.0367 536.942 43.83C536.242 44.5767 535.239 45.16 533.932 45.58C532.672 46 531.016 46.21 528.962 46.21H514.542ZM521.752 29.69V40.26H528.052C529.406 40.26 530.292 39.91 530.712 39.21C531.132 38.51 531.342 37.7167 531.342 36.83V33.12C531.342 32.2333 531.132 31.44 530.712 30.74C530.292 30.04 529.406 29.69 528.052 29.69H521.752ZM597.117 53.77C597.117 55.9167 596.791 57.8767 596.137 59.65C595.531 61.3767 594.411 62.87 592.777 64.13C591.191 65.3433 588.974 66.3 586.127 67C583.327 67.7 579.757 68.05 575.417 68.05C571.077 68.05 567.484 67.7 564.637 67C561.791 66.3 559.551 65.3433 557.917 64.13C556.331 62.87 555.211 61.3767 554.557 59.65C553.951 57.8767 553.647 55.9167 553.647 53.77V29.9C553.647 27.7533 553.951 25.8167 554.557 24.09C555.211 22.3167 556.331 20.8 557.917 19.54C559.551 18.28 561.791 17.3 564.637 16.6C567.484 15.9 571.077 15.55 575.417 15.55C579.757 15.55 583.327 15.9 586.127 16.6C588.974 17.3 591.191 18.28 592.777 19.54C594.411 20.8 595.531 22.3167 596.137 24.09C596.791 25.8167 597.117 27.7533 597.117 29.9V53.77ZM589.487 52.16V31.51C589.487 28.71 588.484 26.4467 586.477 24.72C584.471 22.9467 580.737 22.06 575.277 22.06C569.817 22.06 566.107 22.9467 564.147 24.72C562.187 26.4467 561.207 28.71 561.207 31.51V52.16C561.207 54.96 562.187 57.2467 564.147 59.02C566.107 60.7467 569.817 61.61 575.277 61.61C580.737 61.61 584.471 60.7467 586.477 59.02C588.484 57.2467 589.487 54.96 589.487 52.16ZM561.907 52.16V31.51C561.907 28.8967 562.841 26.7967 564.707 25.21C566.574 23.5767 570.097 22.76 575.277 22.76C580.457 22.76 584.004 23.5767 585.917 25.21C587.831 26.7967 588.787 28.8967 588.787 31.51V52.16C588.787 54.7733 587.831 56.8967 585.917 58.53C584.004 60.1167 580.457 60.91 575.277 60.91C570.097 60.91 566.574 60.1167 564.707 58.53C562.841 56.8967 561.907 54.7733 561.907 52.16ZM569.537 51.25C569.537 52.1833 569.887 52.9767 570.587 53.63C571.287 54.2367 572.897 54.54 575.417 54.54C577.937 54.54 579.547 54.2367 580.247 53.63C580.947 52.9767 581.297 52.1833 581.297 51.25V32.42C581.297 31.5333 580.947 30.7867 580.247 30.18C579.547 29.5267 577.937 29.2 575.417 29.2C572.897 29.2 571.287 29.5267 570.587 30.18C569.887 30.7867 569.537 31.5333 569.537 32.42V51.25ZM615.969 23.46C615.735 23.2267 615.549 23.0633 615.409 22.97C615.269 22.8767 615.105 22.83 614.919 22.83C614.732 22.83 614.545 22.9 614.359 23.04C614.172 23.18 614.079 23.39 614.079 23.67V60.7H614.779V23.81C614.779 23.7633 614.779 23.7167 614.779 23.67C614.825 23.6233 614.872 23.6 614.919 23.6C614.965 23.6 615.012 23.6233 615.059 23.67C615.152 23.7167 615.222 23.7633 615.269 23.81L641.729 53.49V60.7H642.429V22.9H641.729V52.44L615.969 23.46ZM619.749 67H609.249C608.362 67 607.709 66.8133 607.289 66.44C606.915 66.02 606.729 65.3667 606.729 64.48V19.12C606.729 18.2333 606.915 17.6033 607.289 17.23C607.709 16.81 608.362 16.6 609.249 16.6H616.529C617.415 16.6 618.162 16.74 618.769 17.02C619.422 17.3 620.052 17.79 620.659 18.49L634.239 34.03V19.12C634.239 18.2333 634.425 17.6033 634.799 17.23C635.219 16.81 635.872 16.6 636.759 16.6H647.259C648.145 16.6 648.775 16.81 649.149 17.23C649.569 17.6033 649.779 18.2333 649.779 19.12V64.48C649.779 65.3667 649.569 66.02 649.149 66.44C648.775 66.8133 648.145 67 647.259 67H636.759C635.872 67 635.219 66.8133 634.799 66.44C634.425 66.02 634.239 65.3667 634.239 64.48V55.87L622.269 41.38V64.48C622.269 65.3667 622.059 66.02 621.639 66.44C621.265 66.8133 620.635 67 619.749 67ZM698.634 67H676.584C670.75 67 666.41 65.8333 663.564 63.5C660.764 61.1667 659.364 57.5733 659.364 52.72V30.88C659.364 26.0267 660.764 22.4333 663.564 20.1C666.41 17.7667 670.75 16.6 676.584 16.6H694.084C694.97 16.6 695.6 16.81 695.974 17.23C696.394 17.6033 696.604 18.2333 696.604 19.12V27.59C696.604 28.4767 696.394 29.13 695.974 29.55C695.6 29.9233 694.97 30.11 694.084 30.11H679.524C678.077 30.11 677.004 30.4133 676.304 31.02C675.604 31.58 675.254 32.4433 675.254 33.61V50.34C675.254 51.5067 675.51 52.37 676.024 52.93C676.584 53.49 677.4 53.77 678.474 53.77H685.264V42.85C685.264 41.9633 685.45 41.3333 685.824 40.96C686.244 40.54 686.897 40.33 687.784 40.33H698.634C699.52 40.33 700.15 40.54 700.524 40.96C700.944 41.3333 701.154 41.9633 701.154 42.85V64.48C701.154 65.3667 700.944 66.02 700.524 66.44C700.15 66.8133 699.52 67 698.634 67ZM679.594 60.7H693.524V46.63H692.824V60H679.594C674.88 60 671.707 59.37 670.074 58.11C668.487 56.85 667.694 54.7033 667.694 51.67V32.07C667.694 28.99 668.417 26.82 669.864 25.56C671.31 24.2533 674.087 23.6 678.194 23.6H690.304V22.9H678.194C673.714 22.9 670.727 23.6 669.234 25C667.74 26.4 666.994 28.7567 666.994 32.07V51.67C666.994 53.3033 667.157 54.7033 667.484 55.87C667.857 56.99 668.51 57.9233 669.444 58.67C670.377 59.37 671.66 59.8833 673.294 60.21C674.927 60.5367 677.027 60.7 679.594 60.7ZM51.0066 151H24.1266C23.2399 151 22.5866 150.813 22.1666 150.44C21.7932 150.02 21.6066 149.367 21.6066 148.48V103.12C21.6066 102.233 21.7932 101.603 22.1666 101.23C22.5866 100.81 23.2399 100.6 24.1266 100.6H46.4566C51.0299 100.6 54.4132 101.487 56.6066 103.26C58.7999 104.987 59.8966 107.67 59.8966 111.31V114.67C59.8966 116.63 59.5466 118.24 58.8466 119.5C58.1932 120.713 57.1666 121.623 55.7666 122.23C58.7532 122.51 60.9699 123.537 62.4166 125.31C63.8632 127.083 64.5866 129.673 64.5866 133.08V139.52C64.5866 143.44 63.4666 146.333 61.2266 148.2C59.0332 150.067 55.6266 151 51.0066 151ZM29.3766 144.7H48.2066C50.1666 144.7 51.7532 144.537 52.9666 144.21C54.1799 143.837 55.0899 143.347 55.6966 142.74C56.3499 142.133 56.7932 141.41 57.0266 140.57C57.2599 139.683 57.3766 138.727 57.3766 137.7V133.22C57.3766 132.053 57.2599 130.98 57.0266 130C56.8399 129.02 56.4199 128.18 55.7666 127.48C55.1132 126.733 54.1799 126.173 52.9666 125.8C51.7532 125.38 50.1899 125.17 48.2766 125.17C50.2832 124.657 51.5199 123.817 51.9866 122.65C52.4999 121.483 52.7566 120.2 52.7566 118.8V114.32C52.7566 113.293 52.6399 112.337 52.4066 111.45C52.1732 110.563 51.7299 109.793 51.0766 109.14C50.4232 108.44 49.4899 107.903 48.2766 107.53C47.0632 107.11 45.4999 106.9 43.5866 106.9H29.3766V144.7ZM43.5866 107.6C47.0866 107.6 49.3732 108.253 50.4466 109.56C51.5199 110.867 52.0566 112.453 52.0566 114.32V118.8C52.0566 119.64 51.9632 120.457 51.7766 121.25C51.6366 121.997 51.2632 122.673 50.6566 123.28C50.0966 123.84 49.2566 124.307 48.1366 124.68C47.0166 125.007 45.4999 125.17 43.5866 125.17H30.0766V107.6H43.5866ZM37.3566 112.5V120.06H43.3066C44.1932 120.06 44.8466 119.827 45.2666 119.36C45.7332 118.893 45.9666 118.193 45.9666 117.26V115.3C45.9666 114.367 45.7332 113.667 45.2666 113.2C44.8466 112.733 44.1932 112.5 43.3066 112.5H37.3566ZM48.2766 125.87C51.7766 125.87 54.0399 126.57 55.0666 127.97C56.1399 129.37 56.6766 131.12 56.6766 133.22V137.7C56.6766 139.613 56.1399 141.153 55.0666 142.32C53.9932 143.44 51.7066 144 48.2066 144H30.0766V125.87H48.2766ZM37.3566 130.84V139.1H46.4566C47.3432 139.1 47.9966 138.867 48.4166 138.4C48.8832 137.933 49.1166 137.233 49.1166 136.3V133.57C49.1166 132.637 48.8832 131.96 48.4166 131.54C47.9966 131.073 47.3432 130.84 46.4566 130.84H37.3566ZM80.0992 129.79C80.0992 128.53 80.1926 127.363 80.3792 126.29C80.6126 125.217 80.8926 124.213 81.2192 123.28L85.6992 111.8C86.1659 110.633 86.6792 109.653 87.2392 108.86C87.7992 108.02 88.7792 107.6 90.1792 107.6H97.0392C98.3459 107.6 99.2792 108.02 99.8392 108.86C100.399 109.653 100.936 110.657 101.449 111.87L106.279 123.28C106.606 124.213 106.863 125.217 107.049 126.29C107.283 127.363 107.399 128.53 107.399 129.79V131.96H80.0992V129.79ZM91.2992 115.3L88.0092 125.94H98.9992L95.7092 115.3C95.5226 114.88 95.3126 114.577 95.0792 114.39C94.8926 114.203 94.6592 114.11 94.3792 114.11H92.6292C92.3492 114.11 92.0926 114.203 91.8592 114.39C91.6726 114.577 91.4859 114.88 91.2992 115.3ZM107.399 144.7H108.099V129.79C108.099 128.483 107.983 127.293 107.749 126.22C107.563 125.1 107.283 124.027 106.909 123L102.079 111.59C101.519 110.237 100.913 109.117 100.259 108.23C99.6526 107.343 98.5792 106.9 97.0392 106.9H90.1792C88.5926 106.9 87.4726 107.343 86.8192 108.23C86.1659 109.117 85.5826 110.213 85.0692 111.52L80.5892 123C80.2159 124.027 79.9126 125.1 79.6792 126.22C79.4926 127.293 79.3992 128.483 79.3992 129.79V144.7H80.0992V132.66H107.399V144.7ZM87.3092 148.48C87.3092 149.367 87.0992 150.02 86.6792 150.44C86.3059 150.813 85.6759 151 84.7892 151H74.4992C73.6126 151 72.9592 150.813 72.5392 150.44C72.1659 150.02 71.9792 149.367 71.9792 148.48V130C71.9792 128.6 72.1892 126.99 72.6092 125.17C73.0759 123.35 73.7759 121.227 74.7092 118.8L80.7992 102.91C81.0792 102.117 81.4992 101.533 82.0592 101.16C82.6659 100.787 83.4359 100.6 84.3692 100.6H103.199C104.086 100.6 104.809 100.787 105.369 101.16C105.976 101.533 106.419 102.117 106.699 102.91L112.789 118.8C113.723 121.227 114.399 123.35 114.819 125.17C115.286 126.99 115.519 128.6 115.519 130V148.48C115.519 149.367 115.309 150.02 114.889 150.44C114.516 150.813 113.886 151 112.999 151H102.429C101.496 151 100.796 150.813 100.329 150.44C99.9092 150.02 99.6992 149.367 99.6992 148.48V138.68H87.3092V148.48ZM145.859 151H134.519C133.633 151 132.979 150.813 132.559 150.44C132.186 150.02 131.999 149.367 131.999 148.48V114.11H121.709C120.823 114.11 120.169 113.923 119.749 113.55C119.376 113.13 119.189 112.477 119.189 111.59V103.12C119.189 102.233 119.376 101.603 119.749 101.23C120.169 100.81 120.823 100.6 121.709 100.6H158.669C159.556 100.6 160.186 100.81 160.559 101.23C160.979 101.603 161.189 102.233 161.189 103.12V111.59C161.189 112.477 160.979 113.13 160.559 113.55C160.186 113.923 159.556 114.11 158.669 114.11H148.379V148.48C148.379 149.367 148.169 150.02 147.749 150.44C147.376 150.813 146.746 151 145.859 151ZM139.839 144.7H140.539V107.6H154.889V106.9H125.489V107.6H139.839V144.7ZM192.497 151H181.157C180.27 151 179.617 150.813 179.197 150.44C178.823 150.02 178.637 149.367 178.637 148.48V114.11H168.347C167.46 114.11 166.807 113.923 166.387 113.55C166.013 113.13 165.827 112.477 165.827 111.59V103.12C165.827 102.233 166.013 101.603 166.387 101.23C166.807 100.81 167.46 100.6 168.347 100.6H205.307C206.193 100.6 206.823 100.81 207.197 101.23C207.617 101.603 207.827 102.233 207.827 103.12V111.59C207.827 112.477 207.617 113.13 207.197 113.55C206.823 113.923 206.193 114.11 205.307 114.11H195.017V148.48C195.017 149.367 194.807 150.02 194.387 150.44C194.013 150.813 193.383 151 192.497 151ZM186.477 144.7H187.177V107.6H201.527V106.9H172.127V107.6H186.477V144.7ZM253.484 151H217.854C216.968 151 216.314 150.813 215.894 150.44C215.521 150.02 215.334 149.367 215.334 148.48V103.12C215.334 102.233 215.521 101.603 215.894 101.23C216.314 100.81 216.968 100.6 217.854 100.6H228.704C229.591 100.6 230.221 100.81 230.594 101.23C231.014 101.603 231.224 102.233 231.224 103.12V137.77H240.814V126.43C240.814 125.543 241.001 124.913 241.374 124.54C241.794 124.12 242.448 123.91 243.334 123.91H253.484C254.371 123.91 255.001 124.12 255.374 124.54C255.794 124.913 256.004 125.543 256.004 126.43V148.48C256.004 149.367 255.794 150.02 255.374 150.44C255.001 150.813 254.371 151 253.484 151ZM222.964 144.7H248.724V130.21H248.024V144H223.664V106.9H222.964V144.7ZM299.706 151H267.226C266.34 151 265.686 150.813 265.266 150.44C264.893 150.02 264.706 149.367 264.706 148.48V103.12C264.706 102.233 264.893 101.603 265.266 101.23C265.686 100.81 266.34 100.6 267.226 100.6H299.706C300.593 100.6 301.223 100.81 301.596 101.23C302.016 101.603 302.226 102.233 302.226 103.12V111.31C302.226 112.197 302.016 112.85 301.596 113.27C301.223 113.643 300.593 113.83 299.706 113.83H280.386V119.22H294.036C294.923 119.22 295.553 119.43 295.926 119.85C296.346 120.223 296.556 120.853 296.556 121.74V129.23C296.556 130.117 296.346 130.77 295.926 131.19C295.553 131.563 294.923 131.75 294.036 131.75H280.386V137.77H299.706C300.593 137.77 301.223 137.98 301.596 138.4C302.016 138.773 302.226 139.403 302.226 140.29V148.48C302.226 149.367 302.016 150.02 301.596 150.44C301.223 150.813 300.593 151 299.706 151ZM295.926 144H273.036V125.87H290.256V125.17H273.036V107.6H295.926V106.9H272.336V144.7H295.926V144ZM341 151H330.15C329.263 151 328.61 150.813 328.19 150.44C327.816 150.02 327.63 149.367 327.63 148.48V103.12C327.63 102.233 327.816 101.603 328.19 101.23C328.61 100.81 329.263 100.6 330.15 100.6H361.37C362.256 100.6 362.886 100.81 363.26 101.23C363.68 101.603 363.89 102.233 363.89 103.12V111.45C363.89 112.337 363.68 112.99 363.26 113.41C362.886 113.783 362.256 113.97 361.37 113.97H343.52V121.25H355.7C356.586 121.25 357.216 121.46 357.59 121.88C358.01 122.253 358.22 122.883 358.22 123.77V132.17C358.22 133.057 358.01 133.71 357.59 134.13C357.216 134.503 356.586 134.69 355.7 134.69H343.52V148.48C343.52 149.367 343.31 150.02 342.89 150.44C342.516 150.813 341.886 151 341 151ZM335.26 144.7H335.96V128.32H351.92V127.62H335.96V107.6H357.59V106.9H335.26V144.7ZM413.959 137.77C413.959 139.917 413.633 141.877 412.979 143.65C412.373 145.377 411.253 146.87 409.619 148.13C408.033 149.343 405.816 150.3 402.969 151C400.169 151.7 396.599 152.05 392.259 152.05C387.919 152.05 384.326 151.7 381.479 151C378.633 150.3 376.393 149.343 374.759 148.13C373.173 146.87 372.053 145.377 371.399 143.65C370.793 141.877 370.489 139.917 370.489 137.77V113.9C370.489 111.753 370.793 109.817 371.399 108.09C372.053 106.317 373.173 104.8 374.759 103.54C376.393 102.28 378.633 101.3 381.479 100.6C384.326 99.9 387.919 99.55 392.259 99.55C396.599 99.55 400.169 99.9 402.969 100.6C405.816 101.3 408.033 102.28 409.619 103.54C411.253 104.8 412.373 106.317 412.979 108.09C413.633 109.817 413.959 111.753 413.959 113.9V137.77ZM406.329 136.16V115.51C406.329 112.71 405.326 110.447 403.319 108.72C401.313 106.947 397.579 106.06 392.119 106.06C386.659 106.06 382.949 106.947 380.989 108.72C379.029 110.447 378.049 112.71 378.049 115.51V136.16C378.049 138.96 379.029 141.247 380.989 143.02C382.949 144.747 386.659 145.61 392.119 145.61C397.579 145.61 401.313 144.747 403.319 143.02C405.326 141.247 406.329 138.96 406.329 136.16ZM378.749 136.16V115.51C378.749 112.897 379.683 110.797 381.549 109.21C383.416 107.577 386.939 106.76 392.119 106.76C397.299 106.76 400.846 107.577 402.759 109.21C404.673 110.797 405.629 112.897 405.629 115.51V136.16C405.629 138.773 404.673 140.897 402.759 142.53C400.846 144.117 397.299 144.91 392.119 144.91C386.939 144.91 383.416 144.117 381.549 142.53C379.683 140.897 378.749 138.773 378.749 136.16ZM386.379 135.25C386.379 136.183 386.729 136.977 387.429 137.63C388.129 138.237 389.739 138.54 392.259 138.54C394.779 138.54 396.389 138.237 397.089 137.63C397.789 136.977 398.139 136.183 398.139 135.25V116.42C398.139 115.533 397.789 114.787 397.089 114.18C396.389 113.527 394.779 113.2 392.259 113.2C389.739 113.2 388.129 113.527 387.429 114.18C386.729 114.787 386.379 115.533 386.379 116.42V135.25ZM447.091 107.6C449.564 107.6 451.384 108.277 452.551 109.63C453.764 110.983 454.371 112.733 454.371 114.88V119.78C454.371 122.347 453.881 124.33 452.901 125.73C451.921 127.13 449.984 127.83 447.091 127.83H431.831V107.6H447.091ZM439.391 113.2V122.16H444.641C445.854 122.16 446.671 121.857 447.091 121.25C447.511 120.597 447.721 119.803 447.721 118.87V116.49C447.721 115.557 447.511 114.787 447.091 114.18C446.671 113.527 445.854 113.2 444.641 113.2H439.391ZM431.831 144.7V128.46H451.641C454.301 128.46 456.261 129.043 457.521 130.21C458.781 131.33 459.411 133.033 459.411 135.32V144.7H460.111V135.32C460.111 132.893 459.411 131.05 458.011 129.79C456.611 128.483 454.487 127.83 451.641 127.83H450.871C452.551 127.317 453.671 126.383 454.231 125.03C454.791 123.63 455.071 121.857 455.071 119.71V114.88C455.071 112.593 454.417 110.703 453.111 109.21C451.804 107.67 449.797 106.9 447.091 106.9H431.131V144.7H431.831ZM436.871 151H426.091C425.204 151 424.551 150.813 424.131 150.44C423.757 150.02 423.571 149.367 423.571 148.48V103.12C423.571 102.233 423.757 101.603 424.131 101.23C424.551 100.81 425.204 100.6 426.091 100.6H449.401C454.627 100.6 458.221 101.697 460.181 103.89C462.187 106.037 463.191 108.837 463.191 112.29V115.51C463.191 117.47 462.887 119.15 462.281 120.55C461.721 121.903 460.717 122.883 459.271 123.49C461.791 123.77 463.821 124.797 465.361 126.57C466.947 128.343 467.741 130.7 467.741 133.64V148.48C467.741 149.367 467.531 150.02 467.111 150.44C466.737 150.813 466.107 151 465.221 151H454.371C453.484 151 452.831 150.813 452.411 150.44C452.037 150.02 451.851 149.367 451.851 148.48V137.77C451.851 136.743 451.641 135.997 451.221 135.53C450.847 135.017 450.171 134.76 449.191 134.76H439.391V148.48C439.391 149.367 439.181 150.02 438.761 150.44C438.387 150.813 437.757 151 436.871 151ZM516.095 151H493.975C493.088 151 492.435 150.813 492.015 150.44C491.641 150.02 491.455 149.367 491.455 148.48V140.29C491.455 139.403 491.641 138.773 492.015 138.4C492.435 137.98 493.088 137.77 493.975 137.77H512.805C513.411 137.77 513.855 137.583 514.135 137.21C514.461 136.79 514.625 136.3 514.625 135.74C514.625 134.947 514.461 134.363 514.135 133.99C513.855 133.617 513.411 133.407 512.805 133.36L502.305 131.89C499.038 131.423 496.401 130.35 494.395 128.67C492.435 126.99 491.455 124.19 491.455 120.27V112.92C491.455 108.953 492.738 105.92 495.305 103.82C497.871 101.673 501.418 100.6 505.945 100.6H525.545C526.431 100.6 527.061 100.81 527.435 101.23C527.855 101.603 528.065 102.233 528.065 103.12V111.45C528.065 112.337 527.855 112.99 527.435 113.41C527.061 113.783 526.431 113.97 525.545 113.97H509.235C508.628 113.97 508.161 114.18 507.835 114.6C507.508 114.973 507.345 115.463 507.345 116.07C507.345 116.677 507.508 117.19 507.835 117.61C508.161 118.03 508.628 118.263 509.235 118.31L519.665 119.71C522.931 120.177 525.568 121.25 527.575 122.93C529.581 124.61 530.585 127.41 530.585 131.33V138.68C530.585 142.647 529.278 145.703 526.665 147.85C524.098 149.95 520.575 151 516.095 151ZM521.765 106.9H506.225C504.078 106.9 502.351 107.507 501.045 108.72C499.738 109.887 499.085 111.403 499.085 113.27V119.01C499.085 120.923 499.458 122.253 500.205 123C500.998 123.7 502.001 124.167 503.215 124.4L517.985 127.41C519.291 127.69 520.318 128.25 521.065 129.09C521.858 129.883 522.255 131.377 522.255 133.57V137.63C522.255 139.497 521.601 141.037 520.295 142.25C519.035 143.417 517.331 144 515.185 144H497.755V144.7H515.185C517.565 144.7 519.455 144.047 520.855 142.74C522.255 141.387 522.955 139.683 522.955 137.63V133.57C522.955 131.143 522.488 129.463 521.555 128.53C520.668 127.597 519.525 126.99 518.125 126.71L503.355 123.7C502.281 123.513 501.418 123.093 500.765 122.44C500.111 121.787 499.785 120.643 499.785 119.01V113.27C499.785 111.637 500.368 110.283 501.535 109.21C502.701 108.137 504.265 107.6 506.225 107.6H521.765V106.9ZM581.852 137.77C581.852 139.917 581.525 141.877 580.872 143.65C580.265 145.377 579.145 146.87 577.512 148.13C575.925 149.343 573.732 150.3 570.932 151C568.132 151.7 564.562 152.05 560.222 152.05C555.882 152.05 552.312 151.7 549.512 151C546.712 150.3 544.495 149.343 542.862 148.13C541.275 146.87 540.155 145.377 539.502 143.65C538.895 141.877 538.592 139.917 538.592 137.77V103.12C538.592 102.233 538.779 101.603 539.152 101.23C539.572 100.81 540.225 100.6 541.112 100.6H552.102C552.989 100.6 553.619 100.81 553.992 101.23C554.412 101.603 554.622 102.233 554.622 103.12V135.04C554.622 135.973 554.972 136.767 555.672 137.42C556.372 138.027 557.935 138.33 560.362 138.33C562.835 138.33 564.422 138.027 565.122 137.42C565.822 136.767 566.172 135.973 566.172 135.04V103.12C566.172 102.233 566.359 101.603 566.732 101.23C567.152 100.81 567.805 100.6 568.692 100.6H579.332C580.219 100.6 580.849 100.81 581.222 101.23C581.642 101.603 581.852 102.233 581.852 103.12V137.77ZM546.292 106.9V136.09C546.292 138.89 547.249 141.177 549.162 142.95C551.122 144.677 554.832 145.54 560.292 145.54C565.752 145.54 569.462 144.677 571.422 142.95C573.382 141.177 574.362 138.89 574.362 136.09V106.9H573.662V136.09C573.662 138.703 572.729 140.827 570.862 142.46C568.995 144.047 565.472 144.84 560.292 144.84C555.112 144.84 551.589 144.047 549.722 142.46C547.902 140.827 546.992 138.703 546.992 136.09V106.9H546.292ZM615.389 107.6C617.862 107.6 619.682 108.277 620.849 109.63C622.062 110.983 622.669 112.733 622.669 114.88V119.78C622.669 122.347 622.179 124.33 621.199 125.73C620.219 127.13 618.282 127.83 615.389 127.83H600.129V107.6H615.389ZM607.689 113.2V122.16H612.939C614.152 122.16 614.969 121.857 615.389 121.25C615.809 120.597 616.019 119.803 616.019 118.87V116.49C616.019 115.557 615.809 114.787 615.389 114.18C614.969 113.527 614.152 113.2 612.939 113.2H607.689ZM600.129 144.7V128.46H619.939C622.599 128.46 624.559 129.043 625.819 130.21C627.079 131.33 627.709 133.033 627.709 135.32V144.7H628.409V135.32C628.409 132.893 627.709 131.05 626.309 129.79C624.909 128.483 622.785 127.83 619.939 127.83H619.169C620.849 127.317 621.969 126.383 622.529 125.03C623.089 123.63 623.369 121.857 623.369 119.71V114.88C623.369 112.593 622.715 110.703 621.409 109.21C620.102 107.67 618.095 106.9 615.389 106.9H599.429V144.7H600.129ZM605.169 151H594.389C593.502 151 592.849 150.813 592.429 150.44C592.055 150.02 591.869 149.367 591.869 148.48V103.12C591.869 102.233 592.055 101.603 592.429 101.23C592.849 100.81 593.502 100.6 594.389 100.6H617.699C622.925 100.6 626.519 101.697 628.479 103.89C630.485 106.037 631.489 108.837 631.489 112.29V115.51C631.489 117.47 631.185 119.15 630.579 120.55C630.019 121.903 629.015 122.883 627.569 123.49C630.089 123.77 632.119 124.797 633.659 126.57C635.245 128.343 636.039 130.7 636.039 133.64V148.48C636.039 149.367 635.829 150.02 635.409 150.44C635.035 150.813 634.405 151 633.519 151H622.669C621.782 151 621.129 150.813 620.709 150.44C620.335 150.02 620.149 149.367 620.149 148.48V137.77C620.149 136.743 619.939 135.997 619.519 135.53C619.145 135.017 618.469 134.76 617.489 134.76H607.689V148.48C607.689 149.367 607.479 150.02 607.059 150.44C606.685 150.813 606.055 151 605.169 151ZM673.727 151H655.527C654.64 151 653.893 150.837 653.287 150.51C652.727 150.183 652.283 149.577 651.957 148.69L645.097 131.54C644.677 130.513 644.327 129.627 644.047 128.88C643.767 128.087 643.533 127.34 643.347 126.64C643.16 125.94 643.02 125.217 642.927 124.47C642.88 123.677 642.857 122.72 642.857 121.6V103.12C642.857 102.233 643.043 101.603 643.417 101.23C643.837 100.81 644.49 100.6 645.377 100.6H656.507C657.393 100.6 658.07 100.81 658.537 101.23C659.003 101.603 659.237 102.233 659.237 103.12V122.44C659.237 122.907 659.283 123.373 659.377 123.84C659.47 124.307 659.61 124.797 659.797 125.31L663.087 135.11C663.227 135.577 663.39 135.903 663.577 136.09C663.763 136.23 664.043 136.3 664.417 136.3H665.187C665.56 136.3 665.84 136.23 666.027 136.09C666.213 135.903 666.377 135.577 666.517 135.11L669.807 125.24C669.993 124.727 670.133 124.237 670.227 123.77C670.32 123.303 670.367 122.837 670.367 122.37V103.12C670.367 102.233 670.553 101.603 670.927 101.23C671.347 100.81 672 100.6 672.887 100.6H683.877C684.763 100.6 685.393 100.81 685.767 101.23C686.187 101.603 686.397 102.233 686.397 103.12V121.6C686.397 122.72 686.35 123.677 686.257 124.47C686.21 125.217 686.093 125.94 685.907 126.64C685.72 127.34 685.487 128.087 685.207 128.88C684.927 129.627 684.577 130.513 684.157 131.54L677.297 148.69C676.97 149.577 676.503 150.183 675.897 150.51C675.337 150.837 674.613 151 673.727 151ZM650.767 106.9V122.02C650.767 123.327 650.837 124.54 650.977 125.66C651.163 126.733 651.467 127.783 651.887 128.81L656.507 140.01C657.067 141.363 657.697 142.483 658.397 143.37C659.097 144.257 660.17 144.7 661.617 144.7H667.777C669.223 144.7 670.297 144.257 670.997 143.37C671.697 142.483 672.327 141.363 672.887 140.01L677.507 128.81C677.927 127.783 678.207 126.733 678.347 125.66C678.533 124.54 678.627 123.327 678.627 122.02V106.9H677.927V122.02C677.927 123.233 677.833 124.4 677.647 125.52C677.46 126.593 677.18 127.597 676.807 128.53L672.187 139.73C671.72 140.943 671.183 141.97 670.577 142.81C670.017 143.603 669.083 144 667.777 144H661.617C660.31 144 659.353 143.603 658.747 142.81C658.187 141.97 657.673 140.943 657.207 139.73L652.587 128.53C652.213 127.597 651.933 126.593 651.747 125.52C651.56 124.4 651.467 123.233 651.467 122.02V106.9H650.767ZM697.139 151C696.253 151 695.599 150.813 695.179 150.44C694.806 150.02 694.619 149.367 694.619 148.48V140.15C694.619 139.263 694.806 138.633 695.179 138.26C695.599 137.84 696.253 137.63 697.139 137.63H704.069V114.11H697.139C696.253 114.11 695.599 113.923 695.179 113.55C694.806 113.13 694.619 112.477 694.619 111.59V103.12C694.619 102.233 694.806 101.603 695.179 101.23C695.599 100.81 696.253 100.6 697.139 100.6H726.959C727.846 100.6 728.476 100.81 728.849 101.23C729.269 101.603 729.479 102.233 729.479 103.12V111.59C729.479 112.477 729.269 113.13 728.849 113.55C728.476 113.923 727.846 114.11 726.959 114.11H720.169V137.63H726.959C727.846 137.63 728.476 137.84 728.849 138.26C729.269 138.633 729.479 139.263 729.479 140.15V148.48C729.479 149.367 729.269 150.02 728.849 150.44C728.476 150.813 727.846 151 726.959 151H697.139ZM723.179 144.7V144H712.469V107.6H723.179V106.9H700.919V107.6H711.769V144H700.919V144.7H723.179ZM768.642 151H750.442C749.556 151 748.809 150.837 748.202 150.51C747.642 150.183 747.199 149.577 746.872 148.69L740.012 131.54C739.592 130.513 739.242 129.627 738.962 128.88C738.682 128.087 738.449 127.34 738.262 126.64C738.076 125.94 737.936 125.217 737.842 124.47C737.796 123.677 737.772 122.72 737.772 121.6V103.12C737.772 102.233 737.959 101.603 738.332 101.23C738.752 100.81 739.406 100.6 740.292 100.6H751.422C752.309 100.6 752.986 100.81 753.452 101.23C753.919 101.603 754.152 102.233 754.152 103.12V122.44C754.152 122.907 754.199 123.373 754.292 123.84C754.386 124.307 754.526 124.797 754.712 125.31L758.002 135.11C758.142 135.577 758.306 135.903 758.492 136.09C758.679 136.23 758.959 136.3 759.332 136.3H760.102C760.476 136.3 760.756 136.23 760.942 136.09C761.129 135.903 761.292 135.577 761.432 135.11L764.722 125.24C764.909 124.727 765.049 124.237 765.142 123.77C765.236 123.303 765.282 122.837 765.282 122.37V103.12C765.282 102.233 765.469 101.603 765.842 101.23C766.262 100.81 766.916 100.6 767.802 100.6H778.792C779.679 100.6 780.309 100.81 780.682 101.23C781.102 101.603 781.312 102.233 781.312 103.12V121.6C781.312 122.72 781.266 123.677 781.172 124.47C781.126 125.217 781.009 125.94 780.822 126.64C780.636 127.34 780.402 128.087 780.122 128.88C779.842 129.627 779.492 130.513 779.072 131.54L772.212 148.69C771.886 149.577 771.419 150.183 770.812 150.51C770.252 150.837 769.529 151 768.642 151ZM745.682 106.9V122.02C745.682 123.327 745.752 124.54 745.892 125.66C746.079 126.733 746.382 127.783 746.802 128.81L751.422 140.01C751.982 141.363 752.612 142.483 753.312 143.37C754.012 144.257 755.086 144.7 756.532 144.7H762.692C764.139 144.7 765.212 144.257 765.912 143.37C766.612 142.483 767.242 141.363 767.802 140.01L772.422 128.81C772.842 127.783 773.122 126.733 773.262 125.66C773.449 124.54 773.542 123.327 773.542 122.02V106.9H772.842V122.02C772.842 123.233 772.749 124.4 772.562 125.52C772.376 126.593 772.096 127.597 771.722 128.53L767.102 139.73C766.636 140.943 766.099 141.97 765.492 142.81C764.932 143.603 763.999 144 762.692 144H756.532C755.226 144 754.269 143.603 753.662 142.81C753.102 141.97 752.589 140.943 752.122 139.73L747.502 128.53C747.129 127.597 746.849 126.593 746.662 125.52C746.476 124.4 746.382 123.233 746.382 122.02V106.9H745.682ZM797.041 129.79C797.041 128.53 797.135 127.363 797.321 126.29C797.555 125.217 797.835 124.213 798.161 123.28L802.641 111.8C803.108 110.633 803.621 109.653 804.181 108.86C804.741 108.02 805.721 107.6 807.121 107.6H813.981C815.288 107.6 816.221 108.02 816.781 108.86C817.341 109.653 817.878 110.657 818.391 111.87L823.221 123.28C823.548 124.213 823.805 125.217 823.991 126.29C824.225 127.363 824.341 128.53 824.341 129.79V131.96H797.041V129.79ZM808.241 115.3L804.951 125.94H815.941L812.651 115.3C812.465 114.88 812.255 114.577 812.021 114.39C811.835 114.203 811.601 114.11 811.321 114.11H809.571C809.291 114.11 809.035 114.203 808.801 114.39C808.615 114.577 808.428 114.88 808.241 115.3ZM824.341 144.7H825.041V129.79C825.041 128.483 824.925 127.293 824.691 126.22C824.505 125.1 824.225 124.027 823.851 123L819.021 111.59C818.461 110.237 817.855 109.117 817.201 108.23C816.595 107.343 815.521 106.9 813.981 106.9H807.121C805.535 106.9 804.415 107.343 803.761 108.23C803.108 109.117 802.525 110.213 802.011 111.52L797.531 123C797.158 124.027 796.855 125.1 796.621 126.22C796.435 127.293 796.341 128.483 796.341 129.79V144.7H797.041V132.66H824.341V144.7ZM804.251 148.48C804.251 149.367 804.041 150.02 803.621 150.44C803.248 150.813 802.618 151 801.731 151H791.441C790.555 151 789.901 150.813 789.481 150.44C789.108 150.02 788.921 149.367 788.921 148.48V130C788.921 128.6 789.131 126.99 789.551 125.17C790.018 123.35 790.718 121.227 791.651 118.8L797.741 102.91C798.021 102.117 798.441 101.533 799.001 101.16C799.608 100.787 800.378 100.6 801.311 100.6H820.141C821.028 100.6 821.751 100.787 822.311 101.16C822.918 101.533 823.361 102.117 823.641 102.91L829.731 118.8C830.665 121.227 831.341 123.35 831.761 125.17C832.228 126.99 832.461 128.6 832.461 130V148.48C832.461 149.367 832.251 150.02 831.831 150.44C831.458 150.813 830.828 151 829.941 151H819.371C818.438 151 817.738 150.813 817.271 150.44C816.851 150.02 816.641 149.367 816.641 148.48V138.68H804.251V148.48ZM879.954 151H844.324C843.438 151 842.784 150.813 842.364 150.44C841.991 150.02 841.804 149.367 841.804 148.48V103.12C841.804 102.233 841.991 101.603 842.364 101.23C842.784 100.81 843.438 100.6 844.324 100.6H855.174C856.061 100.6 856.691 100.81 857.064 101.23C857.484 101.603 857.694 102.233 857.694 103.12V137.77H867.284V126.43C867.284 125.543 867.471 124.913 867.844 124.54C868.264 124.12 868.918 123.91 869.804 123.91H879.954C880.841 123.91 881.471 124.12 881.844 124.54C882.264 124.913 882.474 125.543 882.474 126.43V148.48C882.474 149.367 882.264 150.02 881.844 150.44C881.471 150.813 880.841 151 879.954 151ZM849.434 144.7H875.194V130.21H874.494V144H850.134V106.9H849.434V144.7Z" fill="url(#paint0_linear_164_2)"/>
<defs>
<linearGradient id="paint0_linear_164_2" x1="0" y1="84" x2="886" y2="84" gradientUnits="userSpaceOnUse">
<stop stop-color="#FF2C22"/>
<stop offset="0.33" stop-color="#F3DC50"/>
<stop offset="0.66" stop-color="#F3DC50"/>
<stop offset="1" stop-color="#FF2C22"/>
</linearGradient>
</defs>
</svg>
