<svg width="1658" height="1094" viewBox="0 0 1658 1094" fill="none" xmlns="http://www.w3.org/2000/svg">
<circle cx="268.013" cy="229.621" r="6.64496" fill="#F6DBA8"/>
<circle cx="1170.25" cy="53.8979" r="6.64496" fill="#F6DBA8"/>
<circle cx="1251.47" cy="242.911" r="6.64496" fill="#F6DBA8"/>
<circle cx="37.6545" cy="93.768" r="6.64496" fill="#F6DBA8"/>
<circle cx="6.64496" cy="928.08" r="6.64496" fill="#F6DBA8"/>
<circle cx="384.67" cy="623.888" r="6.64496" fill="#F6DBA8"/>
<circle cx="165.386" cy="385.407" r="2.95332" fill="#F6DBA8"/>
<circle cx="759.002" cy="107.796" r="2.95332" fill="#F6DBA8"/>
<circle cx="928.817" cy="160.956" r="2.95332" fill="#F6DBA8"/>
<circle cx="1032.18" cy="44.299" r="2.95332" fill="#F6DBA8"/>
<circle cx="522.737" cy="364.735" r="2.95332" fill="#F6DBA8"/>
<circle cx="1001.17" cy="282.042" r="2.95332" fill="#F6DBA8"/>
<circle cx="1402.82" cy="287.949" r="2.95332" fill="#F6DBA8"/>
<circle cx="437.091" cy="444.474" r="2.95332" fill="#F6DBA8"/>
<circle cx="1448.6" cy="8.86054" r="2.95332" fill="#F6DBA8"/>
<circle cx="1374.77" cy="181.628" r="2.95332" fill="#F6DBA8"/>
<circle cx="1342.28" cy="674.832" r="2.95332" fill="#F6DBA8"/>
<circle cx="1485.52" cy="611.336" r="2.95332" fill="#F6DBA8"/>
<circle cx="1439.74" cy="787.059" r="2.95332" fill="#F6DBA8"/>
<circle cx="1488.47" cy="843.171" r="2.95332" fill="#F6DBA8"/>
<circle cx="1469.27" cy="1055.81" r="2.95332" fill="#F6DBA8"/>
<circle cx="129.946" cy="163.908" r="2.95332" fill="#F6DBA8"/>
<circle cx="69.4028" cy="769.339" r="2.95332" fill="#F6DBA8"/>
<circle cx="301.238" cy="645.299" r="2.95332" fill="#F6DBA8"/>
<circle cx="129.946" cy="893.377" r="2.95332" fill="#F6DBA8"/>
<circle cx="680.739" cy="220.023" r="2.95332" fill="#F6DBA8"/>
<circle cx="344.061" cy="1058.76" r="2.95332" fill="#F6DBA8"/>
<circle cx="437.09" cy="905.192" r="2.95332" fill="#F6DBA8"/>
<circle cx="471.053" cy="970.164" r="2.95332" fill="#F6DBA8"/>
<circle cx="620.935" cy="654.898" r="6.64496" fill="#F6DBA8"/>
<circle cx="925.126" cy="551.532" r="6.64496" fill="#F6DBA8"/>
<circle cx="1244.08" cy="471.791" r="6.64496" fill="#F6DBA8"/>
<circle cx="1478.87" cy="496.896" r="6.64496" fill="#F6DBA8"/>
<circle cx="959.089" cy="750.879" r="6.64496" fill="#F6DBA8"/>
<circle cx="1134.81" cy="871.965" r="6.64496" fill="#F6DBA8"/>
<circle cx="1121.52" cy="589.924" r="6.64496" fill="#F6DBA8"/>
<circle cx="513.138" cy="18.4575" r="6.64496" fill="#F6DBA8"/>
<g filter="url(#filter0_f_130_4)">
<path d="M214.109 1007.07C214.111 1007.38 214.019 1007.67 213.846 1007.92C213.672 1008.17 213.425 1008.36 213.14 1008.46L205.988 1010.03L205.157 1016.44C205.052 1016.72 204.932 1016.86 204.616 1017.14C204.3 1017.42 203.772 1017.4 203.772 1017.4C203.772 1017.4 203.177 1017.31 202.929 1017.14C202.682 1016.97 202.493 1016.72 202.388 1016.44L201.558 1010.03L194.405 1008.46C194.122 1008.35 193.879 1008.16 193.707 1007.92C193.534 1007.67 193.442 1007.37 193.442 1007.07C193.442 1006.77 193.534 1006.48 193.707 1006.23C193.879 1005.98 194.122 1005.79 194.405 1005.69L201.558 1004.12L202.388 997.706C202.493 997.423 202.682 997.18 202.929 997.008C203.177 996.835 203.471 996.743 203.772 996.743C204.074 996.743 204.368 996.835 204.616 997.008C204.863 997.18 205.052 997.423 205.157 997.706L205.988 1004.12L213.14 1005.69C213.425 1005.79 213.672 1005.98 213.846 1006.23C214.019 1006.47 214.111 1006.77 214.109 1007.07Z" fill="#F6DBA8"/>
</g>
<g filter="url(#filter1_f_130_4)">
<path d="M568.507 813.633C568.509 813.936 568.417 814.232 568.243 814.48C568.07 814.728 567.823 814.916 567.538 815.017L560.385 816.587L559.555 823.001C559.45 823.283 559.329 823.422 559.013 823.699C558.697 823.976 558.17 823.963 558.17 823.963C558.17 823.963 557.575 823.871 557.327 823.699C557.08 823.527 556.891 823.283 556.786 823.001L555.955 816.587L548.803 815.017C548.52 814.913 548.276 814.724 548.104 814.476C547.932 814.229 547.84 813.935 547.84 813.633C547.84 813.332 547.932 813.037 548.104 812.79C548.276 812.542 548.52 812.354 548.803 812.249L555.955 810.68L556.786 804.266C556.891 803.983 557.08 803.739 557.327 803.567C557.575 803.395 557.869 803.303 558.17 803.303C558.472 803.303 558.766 803.395 559.013 803.567C559.261 803.739 559.45 803.983 559.555 804.266L560.385 810.68L567.538 812.249C567.823 812.35 568.07 812.538 568.243 812.786C568.417 813.034 568.509 813.33 568.507 813.633Z" fill="#F6DBA8"/>
</g>
<g filter="url(#filter2_f_130_4)">
<path d="M274.667 500.33C274.669 500.633 274.577 500.929 274.404 501.177C274.23 501.425 273.983 501.613 273.698 501.715L266.545 503.284L265.715 509.698C265.61 509.98 265.49 510.119 265.173 510.396C264.857 510.673 264.33 510.661 264.33 510.661C264.33 510.661 263.735 510.568 263.487 510.396C263.24 510.224 263.051 509.98 262.946 509.698L262.115 503.284L254.963 501.715C254.68 501.61 254.436 501.421 254.264 501.173C254.092 500.926 254 500.632 254 500.33C254 500.029 254.092 499.735 254.264 499.487C254.436 499.24 254.68 499.051 254.963 498.946L262.115 497.378L262.946 490.963C263.051 490.68 263.24 490.436 263.487 490.264C263.735 490.092 264.029 490 264.33 490C264.632 490 264.926 490.092 265.173 490.264C265.421 490.436 265.61 490.68 265.715 490.963L266.545 497.378L273.698 498.946C273.983 499.047 274.23 499.235 274.404 499.483C274.577 499.731 274.669 500.028 274.667 500.33Z" fill="#F6DBA8"/>
</g>
<g filter="url(#filter3_f_130_4)">
<path d="M28.0507 503.534C28.0531 503.837 27.961 504.133 27.7874 504.381C27.6137 504.63 27.367 504.817 27.0817 504.919L19.9292 506.488L19.0985 512.902C18.9936 513.185 18.8733 513.324 18.5573 513.6C18.2412 513.877 17.7141 513.865 17.7141 513.865C17.7141 513.865 17.1185 513.773 16.871 513.6C16.6235 513.428 16.4347 513.185 16.3298 512.902L15.4993 506.488L8.34659 504.919C8.06399 504.814 7.82027 504.625 7.64815 504.378C7.47604 504.13 7.38379 503.836 7.38379 503.534C7.38379 503.233 7.47604 502.939 7.64815 502.691C7.82027 502.444 8.06399 502.255 8.34659 502.15L15.4993 500.582L16.3298 494.167C16.4347 493.884 16.6235 493.641 16.871 493.468C17.1185 493.296 17.4127 493.204 17.7141 493.204C18.0156 493.204 18.3098 493.296 18.5573 493.468C18.8047 493.641 18.9936 493.884 19.0985 494.167L19.9292 500.582L27.0817 502.15C27.367 502.252 27.6137 502.439 27.7874 502.687C27.961 502.936 28.0531 503.232 28.0507 503.534Z" fill="#F6DBA8"/>
</g>
<g filter="url(#filter4_f_130_4)">
<path d="M831.352 810.679C831.354 810.982 831.262 811.278 831.089 811.526C830.915 811.774 830.668 811.962 830.383 812.063L823.231 813.633L822.4 820.047C822.295 820.329 822.175 820.468 821.859 820.745C821.542 821.022 821.015 821.009 821.015 821.009C821.015 821.009 820.42 820.917 820.172 820.745C819.925 820.573 819.736 820.329 819.631 820.047L818.801 813.633L811.648 812.063C811.365 811.958 811.122 811.77 810.949 811.522C810.777 811.275 810.685 810.98 810.685 810.679C810.685 810.378 810.777 810.083 810.949 809.836C811.122 809.588 811.365 809.4 811.648 809.295L818.801 807.726L819.631 801.311C819.736 801.029 819.925 800.785 820.172 800.613C820.42 800.441 820.714 800.349 821.015 800.349C821.317 800.349 821.611 800.441 821.859 800.613C822.106 800.785 822.295 801.029 822.4 801.311L823.231 807.726L830.383 809.295C830.668 809.396 830.915 809.584 831.089 809.832C831.262 810.08 831.354 810.376 831.352 810.679Z" fill="#F6DBA8"/>
</g>
<g filter="url(#filter5_f_130_4)">
<path d="M1587.4 961.297C1587.4 961.6 1587.31 961.896 1587.14 962.144C1586.96 962.392 1586.72 962.58 1586.43 962.682L1579.28 964.251L1578.45 970.665C1578.34 970.947 1578.22 971.086 1577.91 971.363C1577.59 971.64 1577.06 971.627 1577.06 971.627C1577.06 971.627 1576.47 971.535 1576.22 971.363C1575.97 971.191 1575.78 970.947 1575.68 970.665L1574.85 964.251L1567.7 962.682C1567.41 962.577 1567.17 962.388 1567 962.14C1566.83 961.893 1566.73 961.599 1566.73 961.297C1566.73 960.996 1566.83 960.701 1567 960.454C1567.17 960.207 1567.41 960.018 1567.7 959.913L1574.85 958.344L1575.68 951.93C1575.78 951.647 1575.97 951.403 1576.22 951.231C1576.47 951.059 1576.76 950.967 1577.06 950.967C1577.37 950.967 1577.66 951.059 1577.91 951.231C1578.15 951.403 1578.34 951.647 1578.45 951.93L1579.28 958.344L1586.43 959.913C1586.72 960.014 1586.96 960.202 1587.14 960.45C1587.31 960.698 1587.4 960.994 1587.4 961.297Z" fill="#F6DBA8"/>
</g>
<g filter="url(#filter6_f_130_4)">
<path d="M341.102 70.8733C341.104 71.1762 341.012 71.4722 340.839 71.7203C340.665 71.9684 340.418 72.1562 340.133 72.2577L332.981 73.8271L332.15 80.2409C332.045 80.5235 331.925 80.6624 331.609 80.9393C331.292 81.2162 330.765 81.2037 330.765 81.2037C330.765 81.2037 330.17 81.1114 329.922 80.9393C329.675 80.7672 329.486 80.5235 329.381 80.2409L328.551 73.8271L321.398 72.2577C321.115 72.1528 320.872 71.9639 320.699 71.7164C320.527 71.469 320.435 71.1748 320.435 70.8733C320.435 70.5719 320.527 70.2777 320.699 70.0302C320.872 69.7827 321.115 69.5938 321.398 69.489L328.551 67.9205L329.381 61.5058C329.486 61.2232 329.675 60.9794 329.922 60.8073C330.17 60.6352 330.464 60.543 330.765 60.543C331.067 60.543 331.361 60.6352 331.609 60.8073C331.856 60.9794 332.045 61.2232 332.15 61.5058L332.981 67.9205L340.133 69.489C340.418 69.5904 340.665 69.7782 340.839 70.0263C341.012 70.2744 341.104 70.5705 341.102 70.8733Z" fill="#F6DBA8"/>
</g>
<g filter="url(#filter7_f_130_4)">
<path d="M1237.43 627.574C1237.43 627.876 1237.34 628.172 1237.17 628.42C1237 628.669 1236.75 628.856 1236.46 628.958L1229.31 630.527L1228.48 636.941C1228.38 637.224 1228.26 637.363 1227.94 637.639C1227.62 637.916 1227.1 637.904 1227.1 637.904C1227.1 637.904 1226.5 637.812 1226.25 637.639C1226.01 637.467 1225.82 637.224 1225.71 636.941L1224.88 630.527L1217.73 628.958C1217.45 628.853 1217.2 628.664 1217.03 628.417C1216.86 628.169 1216.77 627.875 1216.77 627.574C1216.77 627.272 1216.86 626.978 1217.03 626.73C1217.2 626.483 1217.45 626.294 1217.73 626.189L1224.88 624.621L1225.71 618.206C1225.82 617.923 1226.01 617.68 1226.25 617.508C1226.5 617.335 1226.79 617.243 1227.1 617.243C1227.4 617.243 1227.69 617.335 1227.94 617.508C1228.19 617.68 1228.38 617.923 1228.48 618.206L1229.31 624.621L1236.46 626.189C1236.75 626.291 1237 626.478 1237.17 626.727C1237.34 626.975 1237.43 627.271 1237.43 627.574Z" fill="#F6DBA8"/>
</g>
<g filter="url(#filter8_f_130_4)">
<path d="M634.957 126.987C634.959 127.289 634.867 127.585 634.693 127.834C634.519 128.082 634.273 128.27 633.987 128.371L626.835 129.94L626.004 136.354C625.899 136.637 625.779 136.776 625.463 137.053C625.147 137.329 624.62 137.317 624.62 137.317C624.62 137.317 624.024 137.225 623.777 137.053C623.529 136.88 623.34 136.637 623.236 136.354L622.405 129.94L615.252 128.371C614.97 128.266 614.726 128.077 614.554 127.83C614.382 127.582 614.29 127.288 614.29 126.987C614.29 126.685 614.382 126.391 614.554 126.143C614.726 125.896 614.97 125.707 615.252 125.602L622.405 124.034L623.236 117.619C623.34 117.336 623.529 117.093 623.777 116.921C624.024 116.749 624.318 116.656 624.62 116.656C624.921 116.656 625.216 116.749 625.463 116.921C625.71 117.093 625.899 117.336 626.004 117.619L626.835 124.034L633.987 125.602C634.273 125.704 634.519 125.892 634.693 126.14C634.867 126.388 634.959 126.684 634.957 126.987Z" fill="#F6DBA8"/>
</g>
<g filter="url(#filter9_f_130_4)">
<path d="M1608.07 212.632C1608.08 212.935 1607.98 213.231 1607.81 213.479C1607.64 213.727 1607.39 213.915 1607.1 214.016L1599.95 215.586L1599.12 222C1599.02 222.282 1598.9 222.421 1598.58 222.698C1598.26 222.975 1597.74 222.962 1597.74 222.962C1597.74 222.962 1597.14 222.87 1596.89 222.698C1596.65 222.526 1596.46 222.282 1596.35 222L1595.52 215.586L1588.37 214.016C1588.09 213.912 1587.84 213.723 1587.67 213.475C1587.5 213.228 1587.41 212.934 1587.41 212.632C1587.41 212.331 1587.5 212.036 1587.67 211.789C1587.84 211.542 1588.09 211.353 1588.37 211.248L1595.52 209.679L1596.35 203.265C1596.46 202.982 1596.65 202.738 1596.89 202.566C1597.14 202.394 1597.44 202.302 1597.74 202.302C1598.04 202.302 1598.33 202.394 1598.58 202.566C1598.83 202.738 1599.02 202.982 1599.12 203.265L1599.95 209.679L1607.1 211.248C1607.39 211.349 1607.64 211.537 1607.81 211.785C1607.98 212.033 1608.08 212.329 1608.07 212.632Z" fill="#F6DBA8"/>
</g>
<defs>
<filter id="filter0_f_130_4" x="191.442" y="994.743" width="24.667" height="24.6611" filterUnits="userSpaceOnUse" color-interpolation-filters="sRGB">
<feFlood flood-opacity="0" result="BackgroundImageFix"/>
<feBlend mode="normal" in="SourceGraphic" in2="BackgroundImageFix" result="shape"/>
<feGaussianBlur stdDeviation="1" result="effect1_foregroundBlur_130_4"/>
</filter>
<filter id="filter1_f_130_4" x="545.84" y="801.303" width="24.667" height="24.6611" filterUnits="userSpaceOnUse" color-interpolation-filters="sRGB">
<feFlood flood-opacity="0" result="BackgroundImageFix"/>
<feBlend mode="normal" in="SourceGraphic" in2="BackgroundImageFix" result="shape"/>
<feGaussianBlur stdDeviation="1" result="effect1_foregroundBlur_130_4"/>
</filter>
<filter id="filter2_f_130_4" x="252" y="488" width="24.667" height="24.6611" filterUnits="userSpaceOnUse" color-interpolation-filters="sRGB">
<feFlood flood-opacity="0" result="BackgroundImageFix"/>
<feBlend mode="normal" in="SourceGraphic" in2="BackgroundImageFix" result="shape"/>
<feGaussianBlur stdDeviation="1" result="effect1_foregroundBlur_130_4"/>
</filter>
<filter id="filter3_f_130_4" x="5.38379" y="491.204" width="24.667" height="24.6611" filterUnits="userSpaceOnUse" color-interpolation-filters="sRGB">
<feFlood flood-opacity="0" result="BackgroundImageFix"/>
<feBlend mode="normal" in="SourceGraphic" in2="BackgroundImageFix" result="shape"/>
<feGaussianBlur stdDeviation="1" result="effect1_foregroundBlur_130_4"/>
</filter>
<filter id="filter4_f_130_4" x="808.685" y="798.349" width="24.667" height="24.6611" filterUnits="userSpaceOnUse" color-interpolation-filters="sRGB">
<feFlood flood-opacity="0" result="BackgroundImageFix"/>
<feBlend mode="normal" in="SourceGraphic" in2="BackgroundImageFix" result="shape"/>
<feGaussianBlur stdDeviation="1" result="effect1_foregroundBlur_130_4"/>
</filter>
<filter id="filter5_f_130_4" x="1564.73" y="948.967" width="24.667" height="24.6611" filterUnits="userSpaceOnUse" color-interpolation-filters="sRGB">
<feFlood flood-opacity="0" result="BackgroundImageFix"/>
<feBlend mode="normal" in="SourceGraphic" in2="BackgroundImageFix" result="shape"/>
<feGaussianBlur stdDeviation="1" result="effect1_foregroundBlur_130_4"/>
</filter>
<filter id="filter6_f_130_4" x="318.435" y="58.543" width="24.667" height="24.6611" filterUnits="userSpaceOnUse" color-interpolation-filters="sRGB">
<feFlood flood-opacity="0" result="BackgroundImageFix"/>
<feBlend mode="normal" in="SourceGraphic" in2="BackgroundImageFix" result="shape"/>
<feGaussianBlur stdDeviation="1" result="effect1_foregroundBlur_130_4"/>
</filter>
<filter id="filter7_f_130_4" x="1214.77" y="615.243" width="24.667" height="24.6611" filterUnits="userSpaceOnUse" color-interpolation-filters="sRGB">
<feFlood flood-opacity="0" result="BackgroundImageFix"/>
<feBlend mode="normal" in="SourceGraphic" in2="BackgroundImageFix" result="shape"/>
<feGaussianBlur stdDeviation="1" result="effect1_foregroundBlur_130_4"/>
</filter>
<filter id="filter8_f_130_4" x="612.29" y="114.656" width="24.667" height="24.6611" filterUnits="userSpaceOnUse" color-interpolation-filters="sRGB">
<feFlood flood-opacity="0" result="BackgroundImageFix"/>
<feBlend mode="normal" in="SourceGraphic" in2="BackgroundImageFix" result="shape"/>
<feGaussianBlur stdDeviation="1" result="effect1_foregroundBlur_130_4"/>
</filter>
<filter id="filter9_f_130_4" x="1585.41" y="200.302" width="24.667" height="24.6611" filterUnits="userSpaceOnUse" color-interpolation-filters="sRGB">
<feFlood flood-opacity="0" result="BackgroundImageFix"/>
<feBlend mode="normal" in="SourceGraphic" in2="BackgroundImageFix" result="shape"/>
<feGaussianBlur stdDeviation="1" result="effect1_foregroundBlur_130_4"/>
</filter>
</defs>
</svg>
