<svg width="152" height="152" viewBox="0 0 152 152" fill="none" xmlns="http://www.w3.org/2000/svg">
<circle cx="76" cy="76" r="76" fill="#9E8585"/>
<path fill-rule="evenodd" clip-rule="evenodd" d="M46.0004 47.5714C45.6215 47.5714 45.2581 47.7219 44.9902 47.9898C44.7223 48.2578 44.5718 48.6211 44.5718 49V108.937C44.7491 109.262 44.9878 109.549 45.2746 109.783C45.5855 110.042 45.9295 110.26 46.2975 110.429H83.1446C83.5235 110.429 83.8869 110.278 84.1548 110.01C84.4228 109.742 84.5733 109.379 84.5733 109V94.7143C84.5733 93.5776 85.0248 92.4876 85.8286 91.6838C86.6323 90.8801 87.7225 90.4286 88.8591 90.4286C89.9958 90.4286 91.086 90.8801 91.8897 91.6838C92.6935 92.4876 93.145 93.5776 93.145 94.7143V109C93.145 111.652 92.0914 114.196 90.216 116.071C88.3405 117.946 85.7969 119 83.1446 119H46.0004C44.804 118.975 43.6284 118.682 42.5602 118.143C41.5888 117.686 40.6059 117.057 39.7144 116.303C38.0629 114.897 36 112.383 36 109V49C36 43.48 40.4802 39 46.0004 39H64.5725C65.7092 39 66.7993 39.4515 67.6031 40.2553C68.4068 41.059 68.8584 42.1491 68.8584 43.2857C68.8584 44.4224 68.4068 45.5124 67.6031 46.3162C66.7993 47.1199 65.7092 47.5714 64.5725 47.5714H46.0004ZM93.145 39C87.0827 39 81.2687 41.4082 76.982 45.6947C72.6953 49.9812 70.287 55.7951 70.287 61.8571C70.3078 64.9565 70.9288 68.0225 72.1157 70.8857L68.2126 80.0286C68.1346 80.2138 68.1068 80.4163 68.132 80.6157C68.1572 80.8152 68.2346 81.0044 68.3563 81.1644C68.478 81.3243 68.6398 81.4493 68.8253 81.5268C69.0107 81.6043 69.2134 81.6315 69.4127 81.6057L79.6588 80.3143C82.5735 82.4434 85.9511 83.852 89.5149 84.4247C93.0788 84.9974 96.7277 84.7181 100.163 83.6094C103.598 82.5008 106.722 80.5944 109.278 78.0464C111.835 75.4984 113.752 72.3811 114.872 68.9498C115.992 65.5185 116.283 61.8708 115.722 58.3052C115.161 54.7396 113.764 51.3575 111.644 48.4358C109.525 45.5141 106.744 43.1359 103.528 41.4958C100.313 39.8558 96.7546 39.0005 93.145 39ZM93.145 47.5714C93.9028 47.5714 94.6296 47.8724 95.1654 48.4083C95.7012 48.9441 96.0023 49.6708 96.0023 50.4286V59C96.0023 59.7578 95.7012 60.4845 95.1654 61.0203C94.6296 61.5561 93.9028 61.8571 93.145 61.8571C92.3872 61.8571 91.6605 61.5561 91.1246 61.0203C90.5888 60.4845 90.2878 59.7578 90.2878 59V50.4286C90.2878 49.6708 90.5888 48.9441 91.1246 48.4083C91.6605 47.8724 92.3872 47.5714 93.145 47.5714ZM97.4309 70.4286C97.4309 69.2919 96.9793 68.2018 96.1756 67.3981C95.3718 66.5944 94.2817 66.1429 93.145 66.1429C92.0083 66.1429 90.9182 66.5944 90.1144 67.3981C89.3107 68.2018 88.8591 69.2919 88.8591 70.4286C88.8591 71.5652 89.3107 72.6553 90.1144 73.459C90.9182 74.2628 92.0083 74.7143 93.145 74.7143C94.2817 74.7143 95.3718 74.2628 96.1756 73.459C96.9793 72.6553 97.4309 71.5652 97.4309 70.4286ZM61.7153 94.7143C60.5786 94.7143 59.4884 95.1658 58.6847 95.9695C57.8809 96.7733 57.4294 97.8634 57.4294 99C57.4294 100.137 57.8809 101.227 58.6847 102.03C59.4884 102.834 60.5786 103.286 61.7153 103.286H67.4298C68.5664 103.286 69.6566 102.834 70.4603 102.03C71.2641 101.227 71.7156 100.137 71.7156 99C71.7156 97.8634 71.2641 96.7733 70.4603 95.9695C69.6566 95.1658 68.5664 94.7143 67.4298 94.7143H61.7153Z" fill="black"/>
</svg>
