<svg version="1.2" xmlns="http://www.w3.org/2000/svg" viewBox="0 0 411 408" width="101" height="100">
	<title>p1v1</title>
	<defs>
		<linearGradient id="g1" x2="1" gradientUnits="userSpaceOnUse" gradientTransform="matrix(0,-46.036,47.72,0,44.381,70.688)">
			<stop offset="0" stop-color="#9a00b3"/>
			<stop offset="1" stop-color="#7f72ff"/>
		</linearGradient>
		<linearGradient id="g2" x2="1" gradientUnits="userSpaceOnUse" gradientTransform="matrix(17.298,-52.809,33.365,10.929,34.193,73.02)">
			<stop offset="0" stop-color="#5b008b"/>
			<stop offset="1" stop-color="#8e00ff"/>
		</linearGradient>
		<radialGradient id="g3" cx="0" cy="0" r="1" gradientUnits="userSpaceOnUse" gradientTransform="matrix(213.529,0,0,213.529,50.357,79.832)">
			<stop offset=".006" stop-color="#60dbff"/>
			<stop offset=".094" stop-color="#60d5ff"/>
			<stop offset=".211" stop-color="#5fc4ff"/>
			<stop offset=".344" stop-color="#5da9ff"/>
			<stop offset=".49" stop-color="#5a82ff"/>
			<stop offset=".644" stop-color="#5751ff"/>
			<stop offset=".684" stop-color="#5643ff"/>
			<stop offset=".743" stop-color="#563df8"/>
			<stop offset=".828" stop-color="#552ee5"/>
			<stop offset=".929" stop-color="#5315c6"/>
			<stop offset="1" stop-color="#5200ab"/>
		</radialGradient>
		<linearGradient id="g4" x2="1" gradientUnits="userSpaceOnUse" gradientTransform="matrix(191.217,0,0,192.902,-0.247,105.54)">
			<stop offset=".011" stop-color="#81e0ff"/>
			<stop offset=".323" stop-color="#82ddff"/>
			<stop offset=".551" stop-color="#86d4ff"/>
			<stop offset=".752" stop-color="#8bc4ff"/>
			<stop offset=".938" stop-color="#94adff"/>
			<stop offset="1" stop-color="#97a4ff"/>
		</linearGradient>
		<linearGradient id="g5" x2="1" gradientUnits="userSpaceOnUse" gradientTransform="matrix(167.174,0,0,117.104,.969,67.913)">
			<stop offset="0" stop-color="#b8c2ff"/>
			<stop offset="1" stop-color="#7d72b3"/>
		</linearGradient>
		<linearGradient id="g6" x2="1" gradientUnits="userSpaceOnUse" gradientTransform="matrix(237.515,0,0,164.886,28.097,192.35)">
			<stop offset="0" stop-color="#b8c2ff"/>
			<stop offset="1" stop-color="#7d72b3"/>
		</linearGradient>
		<linearGradient id="g7" x2="1" gradientUnits="userSpaceOnUse" gradientTransform="matrix(237.037,0,0,167.57,14.07,143.22)">
			<stop offset="0" stop-color="#b8c2ff"/>
			<stop offset="1" stop-color="#7d72b3"/>
		</linearGradient>
		<linearGradient id="g8" x2="1" gradientUnits="userSpaceOnUse" gradientTransform="matrix(232.997,0,0,188.228,-0.242,110.098)">
			<stop offset="0" stop-color="#b8c2ff"/>
			<stop offset="1" stop-color="#7d72b3"/>
		</linearGradient>
		<linearGradient id="g9" x2="1" gradientUnits="userSpaceOnUse" gradientTransform="matrix(3.198,0,0,.581,172.851,94.287)">
			<stop offset="0" stop-color="#e8ddff"/>
			<stop offset="1" stop-color="#aa8ad8"/>
		</linearGradient>
		<linearGradient id="g10" x2="1" gradientUnits="userSpaceOnUse" gradientTransform="matrix(11.373,-34.719,28.045,9.187,145.885,161.238)">
			<stop offset="0" stop-color="#5b008b"/>
			<stop offset="1" stop-color="#8e00ff"/>
		</linearGradient>
		<linearGradient id="g11" x2="1" gradientUnits="userSpaceOnUse" gradientTransform="matrix(.664,0,0,.248,8.093,149.99)">
			<stop offset="0" stop-color="#e8ddff"/>
			<stop offset="1" stop-color="#aa8ad8"/>
		</linearGradient>
		<linearGradient id="g12" x2="1" gradientUnits="userSpaceOnUse" gradientTransform="matrix(85.314,0,0,66.23,158.166,35.432)">
			<stop offset="0" stop-color="#7f72ff"/>
			<stop offset="1" stop-color="#9a00b3"/>
		</linearGradient>
		<linearGradient id="g13" x2="1" gradientUnits="userSpaceOnUse" gradientTransform="matrix(43.276,-132.116,104.289,34.161,177.545,240.232)">
			<stop offset="0" stop-color="#280077"/>
			<stop offset="1" stop-color="#812cff"/>
		</linearGradient>
		<linearGradient id="g14" x2="1" gradientUnits="userSpaceOnUse" gradientTransform="matrix(41.283,-126.024,100.902,33.054,189.934,237.543)">
			<stop offset="0" stop-color="#7a00b3"/>
			<stop offset="1" stop-color="#b136ff"/>
		</linearGradient>
		<linearGradient id="g15" x2="1" gradientUnits="userSpaceOnUse" gradientTransform="matrix(0,-91.284,104.002,0,204.155,201.389)">
			<stop offset="0" stop-color="#8e00b3"/>
			<stop offset="1" stop-color="#e05cff"/>
		</linearGradient>
		<linearGradient id="g16" x2="1" gradientUnits="userSpaceOnUse" gradientTransform="matrix(17.876,-54.573,62.017,20.314,42.735,238.836)">
			<stop offset="0" stop-color="#280077"/>
			<stop offset="1" stop-color="#812cff"/>
		</linearGradient>
		<linearGradient id="g17" x2="1" gradientUnits="userSpaceOnUse" gradientTransform="matrix(0,-23.64,74.172,0,152.036,286.145)">
			<stop offset="0" stop-color="#7a00b3"/>
			<stop offset=".916" stop-color="#7006fc"/>
			<stop offset="1" stop-color="#7006f9"/>
		</linearGradient>
		<linearGradient id="g18" x2="1" gradientUnits="userSpaceOnUse" gradientTransform="matrix(0,-67.951,48.892,0,43.809,247.555)">
			<stop offset="0" stop-color="#7a00b3"/>
			<stop offset="1" stop-color="#b136ff"/>
		</linearGradient>
		<linearGradient id="g19" x2="1" gradientUnits="userSpaceOnUse" gradientTransform="matrix(0,-67.925,41.953,0,47.369,247.532)">
			<stop offset="0" stop-color="#8e00b3"/>
			<stop offset="1" stop-color="#e05cff"/>
		</linearGradient>
		<linearGradient id="g20" x2="1" gradientUnits="userSpaceOnUse" gradientTransform="matrix(9.406,-28.717,22.821,7.475,149.371,155.335)">
			<stop offset="0" stop-color="#a400ca"/>
			<stop offset="1" stop-color="#b136ff"/>
		</linearGradient>
		<linearGradient id="g21" x2="1" gradientUnits="userSpaceOnUse" gradientTransform="matrix(13.576,-41.443,93.852,30.744,196.525,53.147)">
			<stop offset="0" stop-color="#5b008b"/>
			<stop offset="1" stop-color="#8e00ff"/>
		</linearGradient>
		<linearGradient id="g22" x2="1" gradientUnits="userSpaceOnUse" gradientTransform="matrix(0,-44.444,60.02,0,211.958,49.092)">
			<stop offset="0" stop-color="#b000d9"/>
			<stop offset="1" stop-color="#e05cff"/>
		</linearGradient>
		<radialGradient id="g23" cx="0" cy="0" r="1" gradientUnits="userSpaceOnUse" gradientTransform="matrix(90.261,80.649,-80.649,90.261,318.794,272.361)">
			<stop offset=".006" stop-color="#9d9d94"/>
			<stop offset=".202" stop-color="#dfd2c1"/>
			<stop offset=".354" stop-color="#c2b5a2"/>
			<stop offset=".492" stop-color="#d5c8b5"/>
			<stop offset=".621" stop-color="#a09277"/>
			<stop offset=".744" stop-color="#847b60"/>
			<stop offset=".861" stop-color="#736950"/>
			<stop offset=".943" stop-color="#a09277"/>
		</radialGradient>
		<radialGradient id="g24" cx="0" cy="0" r="1" gradientUnits="userSpaceOnUse" gradientTransform="matrix(90.261,80.649,-80.649,90.261,318.794,271.397)">
			<stop offset=".006" stop-color="#9d9d94"/>
			<stop offset=".202" stop-color="#dfd2c1"/>
			<stop offset=".354" stop-color="#c2b5a2"/>
			<stop offset=".492" stop-color="#d5c8b5"/>
			<stop offset=".621" stop-color="#a09277"/>
			<stop offset=".744" stop-color="#847b60"/>
			<stop offset=".861" stop-color="#736950"/>
			<stop offset=".943" stop-color="#a09277"/>
		</radialGradient>
		<linearGradient id="g25" x2="1" gradientUnits="userSpaceOnUse" gradientTransform="matrix(80.831,72.222,-74.079,82.91,287.53,264.296)">
			<stop offset=".011" stop-color="#d7cab7"/>
			<stop offset=".298" stop-color="#e1dac0"/>
			<stop offset=".695" stop-color="#ede0ce"/>
			<stop offset=".866" stop-color="#c3b6a2"/>
			<stop offset="1" stop-color="#9a968b"/>
		</linearGradient>
		<linearGradient id="g26" x2="1" gradientUnits="userSpaceOnUse" gradientTransform="matrix(99.272,88.701,-49.901,55.848,295.247,255.142)">
			<stop offset=".006" stop-color="#ffb80b"/>
			<stop offset=".388" stop-color="#ffb60c"/>
			<stop offset=".579" stop-color="#feae10"/>
			<stop offset=".727" stop-color="#fca117"/>
			<stop offset=".854" stop-color="#fa8e21"/>
			<stop offset=".966" stop-color="#f7762e"/>
			<stop offset="1" stop-color="#f66d33"/>
		</linearGradient>
		<radialGradient id="g27" cx="0" cy="0" r="1" gradientUnits="userSpaceOnUse" gradientTransform="matrix(28.54,25.501,-25.501,28.54,258.097,314.262)">
			<stop offset=".006" stop-color="#ffb80b"/>
			<stop offset=".388" stop-color="#ffb60c"/>
			<stop offset=".579" stop-color="#feae10"/>
			<stop offset=".727" stop-color="#fca117"/>
			<stop offset=".854" stop-color="#fa8e21"/>
			<stop offset=".966" stop-color="#f7762e"/>
			<stop offset="1" stop-color="#f66d33"/>
		</radialGradient>
		<linearGradient id="g28" x2="1" gradientUnits="userSpaceOnUse" gradientTransform="matrix(116.396,104.001,-73.447,82.2,256.117,295.085)">
			<stop offset=".006" stop-color="#ffb80b"/>
			<stop offset=".388" stop-color="#ffb60c"/>
			<stop offset=".579" stop-color="#feae10"/>
			<stop offset=".727" stop-color="#fca117"/>
			<stop offset=".854" stop-color="#fa8e21"/>
			<stop offset=".966" stop-color="#f7762e"/>
			<stop offset="1" stop-color="#f66d33"/>
		</linearGradient>
	</defs>
	<style>
		.s0 { fill: url(#g1) } 
		.s1 { fill: url(#g2) } 
		.s2 { fill: url(#g3) } 
		.s3 { fill: url(#g4) } 
		.s4 { opacity: .1;fill: #000000 } 
		.s5 { opacity: .4;fill: url(#g5) } 
		.s6 { opacity: .4;fill: url(#g6) } 
		.s7 { opacity: .4;fill: url(#g7) } 
		.s8 { opacity: .4;fill: url(#g8) } 
		.s9 { opacity: .4;fill: url(#g9) } 
		.s10 { fill: url(#g10) } 
		.s11 { opacity: .4;fill: url(#g11) } 
		.s12 { fill: url(#g12) } 
		.s13 { fill: url(#g13) } 
		.s14 { fill: url(#g14) } 
		.s15 { fill: url(#g15) } 
		.s16 { opacity: .3;fill: #000000 } 
		.s17 { fill: url(#g16) } 
		.s18 { fill: url(#g17) } 
		.s19 { fill: url(#g18) } 
		.s20 { fill: url(#g19) } 
		.s21 { fill: url(#g20) } 
		.s22 { fill: url(#g21) } 
		.s23 { fill: #0edbff } 
		.s24 { fill: url(#g22) } 
		.s25 { opacity: .2;fill: #000000 } 
		.s26 { fill: url(#g23) } 
		.s27 { fill: url(#g24) } 
		.s28 { opacity: .5;fill: url(#g25) } 
		.s29 { fill: url(#g26) } 
		.s30 { fill: url(#g27) } 
		.s31 { fill: url(#g28) } 
		.s32 { fill: #ffff0e } 
	</style>
	<path fill-rule="evenodd" class="s0" d="m20.5 70.6c0 0 1.7-14.1 2.8-21.6 0 0 9.5-13.5 24.7-24.5l20.2 1.2c0 0-41 32.8-47.7 44.9z"/>
	<path fill-rule="evenodd" class="s1" d="m48 24.5c0 0 0 11.3-10.4 20.2-10.4 9-14.9 5.9-14.9 5.9l-2.5 18 47.7-42.9z"/>
	<path fill-rule="evenodd" class="s2" d="m265.7 142.1c0 12.6-1.7 25.3-5 36.8-6.8 23.5-20 44.3-37.4 60.6-12.3 11.5-27.2 20.7-43.4 26.9-14.6 5.6-30.6 8.7-47.2 8.7-2.2 0-4.8 0-7-0.3-3.4-0.3-7-0.5-10.4-0.8-25.5-3.4-49.1-14.1-67.9-30-7-5.9-13.4-12.7-19.3-20-4.3-5.6-8.2-11.2-11.5-17.4-0.9-1.4-1.7-3-2.6-4.4 0 0 0 0 0-0.3-0.8-1.7-1.7-3.1-2.2-4.8-2.3-5.1-4.2-10.4-5.9-15.7-1.1-3.9-2.3-7.9-3.1-11.8-0.6-2.8-1.1-5.6-1.4-8.7-0.8-6.2-1.4-12.3-1.4-18.8 0-3.6 0-7.3 0.6-10.9q0.4-3.4 0.8-6.8c1.7-13.2 5.3-25.5 10.7-37 2.5-5.6 5.6-11.2 8.9-16.3 5.7-8.7 12.1-16.8 19.7-24.1 23.8-23.3 56.7-37.6 92.6-37.6q2.1 0 4.2 0c1.4 0 3.1 0 4.5 0.3 7.6 0.5 15.1 1.7 22.4 3.3 4.2 1.2 8.4 2.3 12.4 3.7 2.8 0.8 5.3 1.9 8.1 3.1q3 1.2 5.9 2.5c0.3 0.3 0.6 0.3 1.1 0.6 12.9 6.1 24.7 14.5 34.8 24.6 1.4 1.5 2.8 2.9 4.2 4.5 0.9 1.2 2 2 2.8 3.1 1.7 1.7 3.1 3.7 4.5 5.4 5.3 6.7 9.8 14 13.8 21.6 4.5 8.9 8.1 18.5 10.6 28.3 1.7 9.8 3.1 20.5 3.1 31.7z"/>
	<path fill-rule="evenodd" class="s3" d="m191.1 22.6c-0.6 0-0.9 0-1.4 0.3-1.4 0.2-2.8 0-4.2-0.3-1.2-0.3-1.7-0.9-3.1-0.9-1.7-0.2-3.1-0.8-4.8-1.1-1.7-0.3-3.1-0.8-4.8-1.4-1.4-0.6-1.9-0.3-3 0-1.2 0.3-2-0.3-3.1-0.6-1.2-0.5-2.6-0.5-3.7-0.8-3.3-0.6-6.7-1.7-10.1-2.5-1.9-0.6-3.9-0.6-6.2-0.6-1.6 0-3 0.6-4.7 0.6-1.1 0-2-0.3-3.1-0.3-1.1-0.3-2.3 0-3.4 0-1.7-0.3-2.5-0.6-4.2 0-1.4 0.3-2.2 0.3-3.6 0.6-1.4 0-3.1 0.5-4.5 0.8-2.5 0.6-5.4 1.1-7.9 1.1-1.7 0-3.9-0.5-5.3 0-0.9 0.3-1.4 1.4-2.3 2-1.4 1.4-2.8 2.5-3.9 3.9-1.1 1.4-2.2 3.1-2.2 5.1 0 1.7 0.8 3.6 1.7 5 0.8 1.7 1.1 3.1-0.6 4.2-2 1.4-4.5 2.6-6.7 3.4-1.7 0.6-3.1 0.8-4.2-0.3-0.6-0.3-0.9-1.1-1.5-1.7-0.5-0.2-1.4 0-1.9 0.3-1.7 0.6-3.4 1.1-5.1 1.4-1.1 0.3-1.9 0.9-3.1 0.9-1.1 0.2-1.9-0.6-3.3-0.3-1.7 0.3-3.7 1.1-5.4 1.1-1.4 0-3-0.6-4.2-1.1-0.5-0.3-0.8-0.9-1.6-0.6-0.6 0-1.4 0.9-1.7 1.4-0.6 0.6-0.6 1.4-1.1 2-0.6 0.8-0.9 1.4-1.5 2.2q-1.2 2.1-2.5 4.2c-0.5 0.9-1.1 2.3-1.9 3.1-0.3 0.6-1.2 0.9-1.7 1.1-1.4 0.9-2.8 2-4.2 2.9-2.6 1.9-5.1 4.2-7.6 6.1-2 1.4-4.8 2.3-7 3.4q-2.1 0.8-4.2 1.7c-0.6 0.3-1.4 0.3-1.7 0.8-0.6 0.6-0.9 1.1-1.1 2-1.2 1.4-2.6 3.1-3.4 4.8-0.6 1.1-0.8 1.9-1.4 3-0.6 1.4-1.4 2.8-1.7 4.5-1.1 3.1-1.1 6.5-2.5 9.6-0.6 1.6-1.7 3.3-2.5 5-1.4 2.8-1.7 6.2-2 9.3-0.3 1.7 0 3.9 0.3 5.6 0.3 2 0.3 3.9 0.3 5.9 0 1.9-1.4 4.2-2.6 5.6-1.1 1.4-3.1 2-4.5 3.4-1.1 1.1-2.5 2.2-3 3.9-0.3 0.5 0 1.4 0 2.2-0.3 1.7-0.9 3.1-0.9 4.8-0.3 2-0.3 3.9-0.3 6.2 0 1.1 0 1.9 0 3.1 0 1.1 0.3 1.9 0.6 2.8 0 0.5 0 1.4 0 1.9 0 0.9 0.6 1.7 0.6 2.3 0.5 1.9 0.8 3.6 1.1 5.6 0.3 1.7 1.1 3.4 1.4 5 0.8 2.3 1.1 4.5 1.7 7.1 0.2 1.6 0.2 3.6 0.5 5.3 0.3 1.4 0.6 2.8 0.6 4.2 0 2.2-0.6 4.2-0.6 6.4 0 3.7 1.4 7.3 2.3 11 0.2 1.1 0.5 2 0.8 3.1-9.2-18-14.3-38.5-14.3-60.1 0-26.3 7.6-50.8 20.8-71.2 5.6-8.7 12-16.9 19.6-23.9 23.9-23.3 56.7-37.6 92.6-37.6 2.8 0 5.9 0 8.7 0.3 17.4-0.3 34.2 4.2 49.4 11.8z"/>
	<path fill-rule="evenodd" class="s4" d="m141.1 204.4c0 0 12.4 18.2 28.9 33.1 16.6 14.9 18.8 25 18.8 25 0 0 31.2-12.9 53.3-43.8 22.2-30.6-101-14.3-101-14.3z"/>
	<path fill-rule="evenodd" class="s5" d="m167.8 32.4c-1.4 6.5-3.9 13.2-7 19.1-2.8 5.6-7 9.5-11.8 13.7-4.8 4.2-9.5 8.2-13.5 13.2-4.7 5.6-7.6 11.2-14.3 15.2-16.3 9.5-33.9 15.7-51.9 20.2-5.3 1.1-9.8 0.5-15.1 1.1-5.1 0.5-9.9 3.1-14.4 4.8-8.9 3.3-19.6 7.8-29.4 6.7-3.1-0.3-6.7-0.8-9.8-2.3 1.6-12.9 5.3-25.5 10.6-37 2.3 3.4 2.6 7 1.7 11.8-1.4 7.3 2.3 10.4 9 12.1 4.5 1.1 8.1 0.5 12.6 0 5.1-0.9 10.1-0.6 14.9-1.7 3.6-0.9 6.7-2.3 10.6-2.8 2.3-0.6 4.8-0.9 7.1-1.4 2.5-0.6 5-1.7 7.8-2 2.3-0.3 4.5 0 6.8 0 6.4-0.3 11.2-3.9 16.8-7 3.9-2.3 7.6-3.9 11.8-5.6 3.1-1.1 6.7-2.8 9.2-5.4 1.2-1.1 1.7-2.5 2.6-3.9 0.8-1.1 1.6-1.7 2.5-2.8 2.5-2.8 4.8-5.9 6.7-9 1.4-1.9 2.8-3.9 3.9-6.1 1.2-2.3 2.9-3.4 4.5-5.1 2.6-2.5 4.5-5 5.9-8.1 2.6-4.8 2.8-11.5 1.7-16.9-0.8-5.3-2.8-10.3-3.9-16-0.6-3.3-3.7-6.4-6.8-8.1 1.5 0 3.1 0.3 4.5 0.3 7.9 0.6 15.2 1.7 22.5 3.4 3.6 5.6 5.6 12.3 4.2 19.6zm-5.9-8.1c-0.6-2.3-1.1-5.4-2.8-7.3-1.4-1.4-4.2-2.3-6.2-1.4-3.9 1.6-3.3 8.1-3.9 5.6 0.6 4.5 0.6 9 0.6 13.4 0 2 0.2 3.7 0.5 5.7 0 0.8 0 1.9 0.6 2.8 0.8 1.4 3.1 1.9 4.5 1.1 3.3-1.7 5.6-5.3 6.7-9 0.3-1.4 0.6-3.1 0.8-4.5 0.3-2.2-0.2-3.9-0.8-6.4z"/>
	<path fill-rule="evenodd" class="s6" d="m265.7 142.4c0 12.6-1.7 25-5 36.7-0.3 0.6-0.6 0.9-0.9 1.4-2.5 3.7-5 7.6-7.8 11.3-1.7 2.2-2.8 4.5-4.5 6.4-1.4 2-3.7 3.1-5.4 4.8-4.4 3.9-6.7 9.5-8.9 14.6-5.4 11.2-14.1 22.4-25.8 27.5-3.1 1.4-6.5 1.7-9.9 3.3-4.2 2.3-8.4 3.7-13.2 5.1-12.6 3.6-23.5 11.2-36.2 15.1-7.5 2.3-14.8 4.5-22.4 6.2-3.6 0-7-0.5-10.4-0.8-25.8-3.4-49.1-14-67.9-30-7.3-5.9-13.7-12.7-19.3-20 3.6 0.9 7.3 2.6 10.9 3.7 3.6 1.1 7 1.4 10.4 3.1 3.6 1.4 6.4 3.1 10.4 3.9 6.4 1.1 12.6 3.1 19 4.2 5.9 1.1 12.7 0.3 18.3 0.3 4.2 0 7.6 0.3 11.5 1.4 3.1 1.1 6.2 2.2 9.2 2.8 3.1 0.6 5.7-1.1 8.7-1.7 5.1-0.8 9.9-2 14.9-3.4 7-2.2 14.3-3.6 21.3-5.8 4.5-1.4 8.7-2.6 13.2-3.4 2.8-0.6 5.6 0 8.4-0.6 4.5-0.5 8.5-1.7 12.7-3.3 6.7-2.6 11.8-5.7 17.1-9.9 2.5-1.9 5-4.7 7.6-6.7 2.5-1.7 3.6-1.7 5-4.2 3.4-5.6 7.9-10.4 11-16 3-5.9 3.3-11.2 4.7-17.7 1.4-7 5.1-13.4 8.4-19.6 1.7-3.1 3.4-6.2 4.5-9.6 0.9-3 2.6-5.3 3.4-8.4 1.1-4.5 2-8.1 2-12.9 0-3.3 1.1-7 1.1-10.4 2.5 10.4 3.9 21.1 3.9 32.6zm-127.4 103.8c0.6 0.6 2 0.8 2.8 0.8 1.7 0.3 3.1 0 4.5-0.2 0.9 0 1.1 0 1.7-0.6 0.6-0.6 0.8-0.8 0.6-1.4-0.3-0.6-1.2-1.1-1.7-1.4-0.7-0.5-1.4-0.5-2.2-0.4q-0.2-0.1-0.3-0.2c-0.2 0-0.4 0.1-0.6 0.2-0.6-0.2-1.2-0.4-1.7-0.2-0.5 0.3-1.1 0.9-1.7 1.2-0.5 0.5-1.4 1.1-1.4 2.2zm5.1-3.1q-0.2-0.1-0.3-0.1c-0.2 0-0.4 0.1-0.6 0.1l2.4 0.3c-0.2-0.1-0.6-0.2-0.9-0.4q-0.3 0-0.6 0.1zm6.2 11.8c-0.6-1.1-1.5-2.2-2.6-3.1-1.4-0.8-3.6-1.4-5.3-1.7-4.5-0.8-9.5-0.2-14 0.3-4.5 0.3-9 1.4-13.5 2.5-1.7 0.6-3.6 1.2-5.6 1.4-1.4 0.3-2.8 0-4.2 0-2.5-0.2-5.1-0.5-7.6-0.2-1.1 0.2-2.2 0.2-3.1 0.8-0.3 0-0.8 0.6-1.4 0.8 0 0-0.3 0.3-0.3 0.6-0.2 0.8 0 1.4 0.3 2 0.9 1.7 1.7 3.1 3.1 4.2 1.1 1.4 2.5 2.8 4.2 3.9 2.3 1.4 4.8 2.8 7.3 3.7 2.8 1.1 5.3 1.6 8.4 1.4 1.7 0 3.7-0.3 5.4-0.3 1.6-0.3 3.6-0.6 5.3-0.6 1.4 0 3.1 0 4.5-0.3 1.1 0 2.5 0 3.6-0.2 2.8-0.9 5.6-2.6 8.4-4 0.9-0.8 2-1.1 3.1-1.9 1.1-0.6 2-1.7 2.8-2.8 1.4-2 2-4.3 1.2-6.5zm35-10.9c-1.4-3.1-5.9-2.8-8.4-2.6-2.2 0.3-5 0.6-7.3 1.4q-2.9 1.3-5 3.4c-1.7 1.7-3.4 3.1-4.5 5.3-0.3 0.6-0.9 1.4-1.2 2-0.2 1.1 0 2.5 0 3.4-0.2 0.5-0.5 1.6 0.6 2.8 0.6 0.5 1.7 0.8 2.5 1.1 1.2 0.3 2.3-0.3 3.4-0.6q2.1-0.8 4.2-1.7c1.4-0.8 2.5-1.4 3.9-1.9 1.2-0.6 2.6-1.1 3.7-2 1.4-0.8 2.8-1.4 4.2-2.5 1.1-0.8 2.2-1.4 3.1-2.2q2.1-3 0.8-5.9zm-39.7-0.6q0.1 0 0.2 0z"/>
	<path fill-rule="evenodd" class="s7" d="m251.1 81.5v0.6c-0.3 3.6-1.7 6.1-3.1 9.5-1.1 2.8-2.2 5.1-3.6 7.6-2.3 4.2-3.4 8.1-5.1 12.9-2.8 7-3.9 14.6-8.1 21-3.6 5.9-4.8 12.9-7.6 19.1-3.3 7-8.7 11.8-14.3 16.8-2.5 2.3-4.8 5.1-7 7.6-2.5 2.5-4.2 5.9-7.3 8.2-6.2 4.4-13.2 8.4-19.4 13.1-3.6 2.8-6.1 6.8-10.3 9-4 2.5-8.5 4.2-12.4 6.5-3.6 2.2-7.3 4.5-11.2 6.1-4.5 1.7-8.1 1.2-12.9 1.4-5.1 0.3-10.4 1.7-15.2 3.4-3.9 1.4-7.3 2.8-11.5 1.4-2.8-0.8-5-2.8-7.8-3.3-6.8-1.5-14.1 0-20.8-0.3-5.3-0.3-10.9-1.4-16.3-2.6-5-0.8-9.2-4.4-14-5.8-6.2-1.7-13.2-0.3-18.8-2.6-2.5-0.8-4.8-2.8-6.7-4.2-0.6-0.3-0.9-0.5-1.4-0.8-0.9-1.4-1.7-3.1-2.6-4.5 1.5 0.5 2.9 1.1 4.3 2 7.5 3.6 17.1 3 25.2 4.4 9.3 1.7 18.5 4 27.8 5.1 3.9 0.6 7.6 0.3 11.5 0 5.3-0.6 10.7-0.6 16-1.4 9-1.7 17.9-5.9 27.2-4.8 1.7 0.3 3.7 1.1 5.3 1.1 2.6 0 4.5-2.2 6.5-3.6 3.6-2.3 7.6-2 10.9-5.1 3.1-3 6.8-5 10.7-7 10.1-5 18.2-13.4 26.4-21.6 6.7-6.7 13.2-13.7 17.6-21.9 4.5-8.1 3.7-17.9 7.1-26.3 2.5-6.2 4.4-11.8 8.4-17.2 1.9-2.5 4.2-4.7 6.1-7.2 2.3-2.6 3.4-5.4 5.1-8.5 1.7-3.3 4.2-6.1 5.6-9.8 1.4-3.4 1.1-6.2 1.1-9.8 0-3.7 0-7.6 0-11.5 5.9 8.1 10.7 15.4 14.6 23z"/>
	<path fill-rule="evenodd" class="s8" d="m231.8 53.7c-0.3 0.6-0.3 1.4-0.6 2-1.1 3.9-2.5 7.8-3.1 11.8-0.8 5.6-2.2 10.6-4.2 15.7-0.8 2.8-2.5 5-3.9 7.3-1.7 2.8-4.8 5.3-6.2 8.4-0.8 2-1.1 4.5-1.7 6.5-0.8 3.3-2.2 6.7-3.9 9.5-3.7 6.2-4.8 12.6-6.7 19.4-2 7.2-4 15.4-9 21.3-3.7 4.2-7.3 8.1-11.5 11.5-2.3 1.7-4.8 3.3-7 4.7-3.1 2-5.9 4.5-8.7 6.8-3.4 2.5-6.8 5.3-10.1 8.1-2.8 2.5-5.1 5.6-8.5 7.9-2.5 1.7-5.3 2.5-8.1 3.1-4.8 1.1-9.5 2.2-14.3 2.8-9.5 0.8-19.1 3.3-28.9 2.8-3.6-0.3-7.6-0.9-11.2-1.4-4.8-0.6-9.8-1.2-14.9-1.4-5.6-0.3-11.2-1.2-16.6-2-4.7-0.8-9.2-2.5-14.3-2.8-5.3-0.3-10.3 0.6-15.7 1.4-3.6 0.6-7.3 0-10.9-0.6-2.3-5-4.2-10.3-5.9-15.7-1.1-3.6-2.3-7.8-3.1-11.8-0.6-3-1.1-5.8-1.4-8.7-0.8-6.1-1.4-12.3-1.4-18.8 0-3.6 0.3-7.2 0.6-10.9 1.6 1.4 4.2 3.9 6.1 5.1 0.9 0.5 2.3 0.2 3.1 0.5 3.1 0.9 6.8-0.5 9.6 1.7 1.4 1.1 2.8 2.2 4.4 3.1 0.9 0.5 1.7 1.1 2.3 1.4 0.6 0.3 1.4 0 2 0 1.9-0.3 3.9 0 6.1-0.3 4.2-0.6 8.4-0.3 12.9-0.3 4.8-0.3 7.3-4.7 11.5-6.4 1.2-0.3 2.3-0.6 3.7-0.6 1.7 0 3.4-0.3 5-0.5 4.8-0.6 9-3.4 13.5-5.1 2-0.6 4.2-1.1 6.5-2 4.5-1.6 8.4-4.2 12.9-6.1 4.5-2 8.4-4.2 12.9-6.2 3.9-1.7 7.8-3.9 12.3-5.1 3.7-0.8 7.3-0.8 10.7-1.9 4.8-1.4 9.8-3.1 14.3-5.4 3.9-1.6 7.3-4.7 10.1-8.1 3.1-3.6 8.4-4.5 12.1-7.8 3.6-3.7 6.1-8.5 7.5-13.2 2-6.2 3.4-12.1 5.6-18 1.4-3.6 3.7-7 2.9-11.2-0.6-2.3-1.5-4.5-2-6.8-0.3-1.1-0.3-1.9-0.6-2.8-0.3-1.6-1.1-3-1.4-4.7-0.3-1.7-0.5-3.7-0.5-5.4 0-1.9-0.6-3-1.7-4.4-1.1-1.4-2.5-2-4.2-2.9-0.3 0-1.4-0.5-2.3-1.1 2.8 0.9 5.4 2 8.2 3.1q2.9 1.3 5.9 2.5c0.5 0.3 0.8 0.3 1.1 0.6 12.9 6.5 24.7 14.6 34.8 24.7 1.4 1.4 2.8 3.1 4.2 4.5 0.8 0.8 1.7 1.9 1.7 2.2zm-174.8 90.1c0 1.4 0.5 3.1 1.4 4.2 0.8 1.1 1.6 1.7 3 1.4 1.5-0.3 4-0.8 4.8-2 2.9-3.6-2.6-7.1-6.3-6.6-1.4 0.6-2.8 1.3-2.9 1.6 0 0.3 0 1.1 0 1.4zm5.9-4.2c0 0 0 0-0.3 0l-3.4 1.4q0.3-0.1 0.7-0.2c1.3-0.5 2.7-1.1 3-1.2zm-19.4 37c5.6-2.2 12.9-4.2 15.7-10.1 0-0.5 0.3-1.4 0.3-1.9 0.3-1.7 0.3-3.4 0.3-5.4 0-1.7-0.6-2.5-1.2-3.9-1.1-2.2-2.2-5.1-4.4-6.2-3.1-1.4-6.2-1.1-9.6-0.5-2 0.2-3.6 0.8-5.6 1.1-2 0.3-3.9 0.3-5.9 0.3-4.2 0-8.7-0.6-12.9-0.6-3.6 0-7.3 0.3-11.2 0.6 0 0.5-1.4 2.5-2.3 4.2-0.8 1.4-1.6 3.3-1.9 5-0.6 2.3 0.3 4 0.5 6.2 0.6 2.5 1.7 4.5 3.4 6.7 2.2 3.4 4.8 4.8 8.7 5.9 8.4 2.3 17.7 2 26.1-1.4zm35.1 6.5c-0.6-2.6-2.3-4.2-4.8-5.4-3.4-1.6-7.3-3-10.9-1.1-2.3 1.1-4.5 2.8-6.5 4.5-1.1 1.1-2.2 2-3.1 3.1-1.1 2.2-1.7 4.5-2.2 7 2.2-0.6 3.1 0.9 3.6 1.7 0.9 1.1 1.7 2.2 2.8 2.8 2 1.1 4.5 1.4 6.5 1.4 4.2-0.3 11.5-1.7 13.2-6.2 1.1-2.8 2.2-4.7 1.4-7.8zm48.5-2c-0.8-1.1-1.7-1.7-2.5-2.5-1.4-1.7-2.8-2.8-5.1-3.7-5-2.2-10.9-1.6-15.4 0.9-2.8 1.4-5.3 3.6-6.7 6.1 0 0.6-0.3 1.2-0.9 1.5 0.3 2.2 0.9 4.4 2 6.7-1.7-0.6-1.1 2.8 1.4 5.3 0.8 0.9 2.2 1.1 3.4 1.7 1.6 0.8 3.6 1.7 5.6 1.7 3.6 0 8.1-1.4 11.5-3.1 2.8-1.7 4.7-2.5 6.1-5.6 0.9-2.5 1.4-6.7 0.6-9zm16.3 3.7c-1.1-2-2.8-1.7-4.5-2.6-1.1 2-2.3 3.7-3.4 5.6l0.6 0.6c0 1.1 1.4 2.5 2.2 2.8 0.9 0 2.3-1.1 3.1-1.7 1.4-1.1 3.4-2.8 2-4.7zm38.1-88.7c-0.2-2-1.9-3.7-3.6-4.2-0.9-0.3-2.3-0.9-3.4-0.9-3.3 1.7-4.7 2.6-6.4 5.9-1.2 2.3-1.4 4.2-1.4 6.8 0.2 4.5 4.2 3.3 7 2.2 2.2-0.8 4.2-2.8 5.6-4.8 1.1-1.4 2.5-3 2.2-5zm33.1-28.1c-1.4-3.1-3.3-3.9-6.4-4.5-2.8-0.2-5.3 0.3-7.9 1.4-8.1 4-13.1 14.9-13.1 23.6 0 2.5 0.5 5.3 0.8 7.9 0.3 2.8 0.3 5.6 0.8 8.4 0.3 2.8 0.6 5.6 1.2 8.1 0.5 2.3 1.6 5.1 2.5 7.3 0-1.1 2.2-1.7 3.6-1.7 1.4 0 2.6 0.3 4-0.2 2.8-1.2 4.4-4.5 5-7.6 1.4-5.3 1.7-10.7 3.9-15.7 2-4 4-8.2 5.4-12.7 1.1-4.4 1.9-10.1 0.2-14.3z"/>
	<path fill-rule="evenodd" class="s9" d="m176.1 93.9c-0.3 0.3-0.8 0.3-1.1 0.5-0.8 0-1.4-0.2-2 0z"/>
	<path fill-rule="evenodd" class="s10" d="m137.7 158.4c-5.6-2.8 0.8-27.8 6.4-33.4 5.7-5.6 20.5 7.3 22.2 17.7 2 10.7-15.4 21.9-28.6 15.7z"/>
	<path fill-rule="evenodd" class="s11" d="m8.7 150c-0.3 0-0.6 0-0.6 0 0.6-0.3 0.6-0.3 0.6 0z"/>
	<path fill-rule="evenodd" class="s12" d="m158.3 11.6l23.2-9.2c0 0 37.1 14.3 60.6 46l1.4 20.2c0 0-44.3-17.1-85.3-57z"/>
	<path fill-rule="evenodd" class="s13" d="m243 216.7c0 0-19.7 21.4-34.2 25.9l-12.1 3.6c0 0-55.3-19.9-58.4-54.4-2.5-29.2 47.2-73.8 60.6-79.2 13.5-5.3 29.2-2.2 29.2-2.2z"/>
	<path fill-rule="evenodd" class="s14" d="m228.1 110.4c-11.8-3.6-62 19.6-75.7 71.5-2.8 10.7 22.7 50.8 53.3 60.7 10.1 3.3 56.6-37.4 58.6-64.9 2-27.5-18.8-61.7-36.2-67.3z"/>
	<path fill-rule="evenodd" class="s15" d="m155.7 188.1c7.3-58.9 60.9-78.3 72.7-74.6 8.4 2.8 20.8 15.1 28.1 27.2-7.3-15.2-18.3-27.5-28.1-30.6-11.8-3.6-62 19.7-75.8 71.6-0.8 3.6 1.4 10.9 6.5 19.3-3.1-5.3-3.9-10.1-3.4-12.9z"/>
	<path fill-rule="evenodd" class="s16" d="m57 251.5c0 0 12 4.5 20.7 2 0 0 3.4-28.3-7.3-46.6-10.6-18.2-28.9 9.3-28.9 9.3l-4.2 17.4c0 0 10.1 12 19.7 17.9z"/>
	<path fill-rule="evenodd" class="s17" d="m67.3 247l7.6-1.9c0 0 3.7-15.7-2.8-33.7-7.3-20.2-34.2-35.3-38.1-35.6-4-0.3-7.9 8.7-7.9 8.7z"/>
	<path fill-rule="evenodd" class="s18" d="m188.8 262.5l-12.9 16.5c0 0-22.1 10.7-44.6 5.6l-16.3-10.9z"/>
	<path fill-rule="evenodd" class="s19" d="m20.5 196.8c1.4-6.2 6.7-16.3 11.5-17.4 4.8-1.1 27.8 20.8 33.1 34.8 5.3 14 2.5 29.5 2.2 32.6-0.2 3-26.1-5.7-39.2-16.3-12.9-10.7-7.6-33.7-7.6-33.7z"/>
	<path fill-rule="evenodd" class="s20" d="m65.1 214.2c-5.3-14-28.1-35.6-33.1-34.8-2 0.3-3.9 2.3-5.6 4.5 1.1-1.1 2.2-1.7 3.3-2 4.8-1.1 28.1 16.3 33.4 30.4 6.5 17.1 2.8 29.4 2.3 35 1.1 0 1.9 0 1.9-0.5 0.3-3.1 3.1-18.6-2.2-32.6z"/>
	<path fill-rule="evenodd" class="s21" d="m142.8 153.1c-4.5-2.3 0.6-23.1 5.1-27.8 4.5-4.5 16.2 6.1 17.9 14.8 1.7 8.7-12.3 18-23 13z"/>
	<path fill-rule="evenodd" class="s22" d="m181.5 2.4c0 0 1.2 14 17.2 31.4 15.9 17.4 43.4 14.6 43.4 14.6l1.4 20.2c0 0-58.3-25.8-85.3-57z"/>
	<path fill-rule="evenodd" class="s23" d="m227.3 127.8c-0.6 0.6-2.3 1.7-0.9 2.5 0.3 0.3 0.6 0 0.9 0.3 0.3 0 0.3 0.3 0.5 0.3 0.9-0.6 0.6-3.4-0.5-3.1z"/>
	<path fill-rule="evenodd" class="s23" d="m282.3 104.2c-0.6 0.6-2.3 1.7-0.9 2.5 0.3 0.3 0.6 0 0.9 0.3 0.3 0 0.3 0.3 0.5 0.3 1.2-0.8 0.6-3.4-0.5-3.1z"/>
	<path fill-rule="evenodd" class="s23" d="m258.1 201.9c-0.5 0.5-2.2 1.7-0.8 2.5 0.3 0.3 0.6 0 0.8 0.3 0.3 0 0.3 0.3 0.6 0.3 1.1-0.6 0.6-3.4-0.6-3.1z"/>
	<path fill-rule="evenodd" class="s23" d="m232 137.6c0.6-0.3 0.9-0.3 1.4-0.3 0 0.6 0.6 1.7-0.2 2.3-0.6 0.3-0.6-0.9-0.9-1.1z"/>
	<path fill-rule="evenodd" class="s23" d="m144.8 143.5c0.8 0.3 1.7 0.8 2.5 1.1 0.3-0.3 0.6-0.3 1.1-0.3 0.6-0.2 0.9-0.8 0.9-1.4 0.3-0.8 0-1.4-0.6-1.9-0.3-0.3-0.5-0.9-0.8-1.1-0.3-0.3-1.2-0.3-1.7 0-0.6 0.2-0.9 0.8-1.1 1.4-0.3 0.5-0.9 1.1-0.9 1.6 0 0.6 0.6 1.2 0.9 1.7z"/>
	<path fill-rule="evenodd" class="s23" d="m20.8 209.7c0.8 0.3 1.7 0.9 2.5 1.1 0.3-0.2 0.6-0.2 1.1-0.2 0.6-0.3 0.9-0.9 0.9-1.4 0.2-0.9 0-1.4-0.6-2-0.3-0.3-0.6-0.8-0.8-1.1-0.3-0.3-1.2-0.3-1.7 0-0.6 0.3-0.9 0.8-1.2 1.4-0.2 0.5-0.8 1.1-0.8 1.7 0 0.5 0.6 1.1 0.8 1.6z"/>
	<path fill-rule="evenodd" class="s23" d="m262.4 244.2c0.8 0.3 1.6 0.9 2.5 1.2 0.3-0.3 0.5-0.3 1.1-0.3 0.6-0.3 0.8-0.9 0.8-1.4 0.3-0.9 0-1.4-0.5-2-0.3-0.3-0.6-0.8-0.9-1.1-0.2-0.3-1.1-0.3-1.6 0-0.6 0.3-0.9 0.8-1.2 1.4-0.2 0.6-0.8 1.1-0.8 1.7 0 0.5 0.6 1.1 0.8 1.7z"/>
	<path fill-rule="evenodd" class="s23" d="m245 220.1c0.8 0.3 1.6 0.9 2.5 1.1 0.3-0.2 0.5-0.2 1.1-0.2 0.6-0.3 0.8-0.9 0.8-1.5 0.3-0.8 0-1.4-0.5-1.9-0.3-0.3-0.6-0.9-0.9-1.1-0.2-0.3-1.1-0.3-1.6 0-0.6 0.2-0.9 0.8-1.2 1.4-0.2 0.5-0.8 1.1-0.8 1.6 0 0.6 0.6 1.2 0.8 1.7z"/>
	<path fill-rule="evenodd" class="s23" d="m169.8 165.4c-0.3 0.3-0.6 0.6-0.9 1.1 0.3 0.6 0.6 0.9 1.1 1.1q0.5 0 0.9 0c0.3-0.2 0-0.5 0.3-0.8 0.2-0.6 0.2-0.8 0-1.4-0.3-0.3-0.3-0.6-0.6-0.6-0.3 0-0.8 0-0.8 0.3z"/>
	<path fill-rule="evenodd" class="s23" d="m171.7 179.4c0 0.3-0.8 2 0 1.4 0.6-0.3 0.6-1.1 0-1.4q0.4 0 0 0z"/>
	<path fill-rule="evenodd" class="s23" d="m215.8 204.7c-0.6 0.8-0.6 1.1-0.9 1.9 0.3 0.3 0.9 0.3 1.2 0.3 0.5 0 0.5-0.3 0.5-0.5 0-0.3 0.3-0.9 0-1.2-0.3-0.5-0.5-0.8-0.8-0.5z"/>
	<path fill-rule="evenodd" class="s23" d="m178.7 167.1c0.3 0.3 0.6 0.5 0.6 1.1-0.6 0-0.6-0.3-0.6-0.8 0-0.6 0.3-0.3 0.6-0.9 0 0 0 0 0.3 0z"/>
	<path fill-rule="evenodd" class="s23" d="m220.8 129.5q-0.4 0.4-0.8 0.8c0.3 0.3 0 0.9 0.5 0.9q0.5 0 0.9-0.9c0.3-0.3 0.3-0.5 0.3-1.1 0-0.3 0-1.1-0.3-0.6z"/>
	<path fill-rule="evenodd" class="s23" d="m214.9 31.6c0.6 0 0.9-0.3 1.4-0.3 0 0 0.3 0 0.6 0 0.6 0 0.6 0 0.6 0.3 0.2 0.2 0.2 0.8 0.2 1.1-0.2 1.7-2.5-0.9-1.6-1.4z"/>
	<path fill-rule="evenodd" class="s23" d="m36.5 34.6c-0.9 0.3-2 0.3-2 1.2 0 0.8 1.1 1.4 1.7 1.6 1.1 0.3 2.8 0.6 3.4-0.8 0.2-0.8 0-2.2-0.3-2.8-0.9-1.4-2.8-0.8-4.2-0.3z"/>
	<path fill-rule="evenodd" class="s23" d="m225.9 206.4c-0.3-2.6-0.9-5.1 1.4-6.5 1.1-0.8 3.3-0.8 4.7 0 0.9 0.6 1.7 1.7 2 2.5 0.9 1.4 0.6 1.4 0.3 2.6-0.9 2.8-1.7 4.4-4.2 4.4-3.7 0-4.2-2.8-4.2-6.1z"/>
	<path fill-rule="evenodd" class="s23" d="m227.6 134.8q1.6-0.4 2.5-1.7c-0.9-0.5-2.3-1.4-2.5 0z"/>
	<path fill-rule="evenodd" class="s23" d="m26.4 199.6q1.7-0.4 2.5-1.7c-0.8-0.5-2.2-1.4-2.5 0z"/>
	<path fill-rule="evenodd" class="s23" d="m26.4 220.9q1.7-0.4 2.5-1.6c-0.8-0.6-2.2-1.4-2.5 0z"/>
	<path fill-rule="evenodd" class="s23" d="m176.8 144.6c1.1-1.1 2.5-3.3 4.2-2.2 1.1 0.8 1.4 2.5 0.3 3.4-0.9 0.5-1.7 0.8-2.8 1.1-0.9 0.3-2-0.3-1.7-1.4z"/>
	<path fill-rule="evenodd" class="s23" d="m210.2 199.6c1.1-1.1 2.5-3.3 4.2-2.2 1.1 0.8 1.4 2.5 0.3 3.4-0.9 0.5-1.7 0.8-2.9 1.1-0.8 0.3-1.9-0.3-1.6-1.4z"/>
	<path fill-rule="evenodd" class="s23" d="m205.1 17.2c1.4 0.3 4.2 0.3 3.9 2.6 0 1.1-1.6 2.5-2.8 1.9-1.1-0.5-1.6-1.1-2.5-1.9-0.6-0.6-0.8-2 0.6-2.3z"/>
	<path fill-rule="evenodd" class="s23" d="m199.5 213.9c1.1-1.1 2.5-3.3 4.2-2.2 1.1 0.8 1.4 2.5 0.3 3.4-0.9 0.5-1.7 0.8-2.8 1.1-0.9 0.3-2-0.3-1.7-1.4z"/>
	<path fill-rule="evenodd" class="s23" d="m154 142.7c-1.1 0.8-3.3 1.7-3.6 3.6 0 1.1 0.3 1.7 1.4 2.3 0.8 0.2 2 0.2 2.8 0 1.1-0.6 2.5-1.7 3.1-2.8 0.3-0.9 0.3-1.4 0-2.3-0.3-0.6-0.6-1.1-1.1-1.1-1.7-0.6-2.6 1.1-3.7 1.7z"/>
	<path fill-rule="evenodd" class="s23" d="m158.3 138.2c0.5 0.3 1.4 0.5 1.6 1.1-0.5 0.3-1.4 0.8-2.2 0.6-0.9-0.3-1.1-1.2-0.9-2 0-0.6 0.9-1.4 1.5-1.1 0.2 0 0.2 0.5 0.2 0.5 0.3 0.6 0.3 0.3 0 0.9z"/>
	<path fill-rule="evenodd" class="s23" d="m193 130.6c-3.3 2.8-6.4 6.5-8.1 10.7-0.8 2.2 0.6 2.2 2.5 1.9 3.7-0.8 7.6-1.7 11.3-2.8 2.2-0.5 5.3-1.7 6.7-3.6 1.1-1.4 1.7-4 1.4-5.6-0.3-2.6-2.2-3.4-4.5-4.2-5.3-1.5-12.6 4.2-14.6 8.9z"/>
	<path fill-rule="evenodd" class="s23" d="m174.5 149.7c1.2 0 2 0.3 3.1 0.8-0.3 0.3-0.3 0.9-0.3 1.1-0.2 0.6-0.8 1.2-1.1 1.4-0.8 0.6-2.2 0.9-3.1 0.3-2.8-1.1 1.4-4.5 2.6-3.1z"/>
	<path fill-rule="evenodd" class="s23" d="m18.5 256c-0.3 0.3-0.5 0.6-0.8 1.1 0.3 0.6 0.5 0.9 1.1 1.2q0.4 0 0.8 0c0.3-0.3 0-0.6 0.3-0.9 0.3-0.5 0.3-0.8 0-1.4-0.3-0.3-0.3-0.5-0.5-0.5-0.3 0-0.9 0-0.9 0.2z"/>
	<path fill-rule="evenodd" class="s23" d="m20.8 270.1c0 0.2-0.9 1.9 0 1.4 0.5-0.3 0.2-1.2 0-1.4 0 0 0 0.2 0 0z"/>
	<path fill-rule="evenodd" class="s23" d="m27.5 257.7c0.3 0.3 0.6 0.6 0.6 1.1-0.6 0-0.6-0.3-0.6-0.8 0-0.6 0.3-0.3 0.6-0.9 0 0 0 0 0.2 0z"/>
	<path fill-rule="evenodd" class="s23" d="m199.5 19.8c0.8 0.5 2 1.1 2.8 1.9 0.8 1.2 1.7 2 2.2 3.1 0.3 0.6 1.2 2 0 2-1.1 0.3-3.3-1.4-4.4-2.3-1.7-1.1-3.1-1.9-4.2-3.6-0.6-0.9-1.5-2.3-0.9-3.1 0.6-0.8 1.1-0.8 2-0.8 0.8 0 1.4 0.2 2.2 0.8 0.3 0.3 2 2 1.4 2.2z"/>
	<path fill-rule="evenodd" class="s23" d="m211.8 125.8c-0.5 0.3-3.9 2.3-2.2 3.1 0.8 0.6 2.8 0.3 3.6 0 0.9-0.3 1.7-0.8 1.2-1.7-1.2-1.9-3.7-0.8-5.1 0z"/>
	<path fill-rule="evenodd" class="s23" d="m27.8 211.1c0.3 2 0.8 4.2 2.5 5.6 2 1.4 3.9 0.9 5.9-0.2 1.4-0.9 2.5-1.7 3.9-2.6 0.9-0.5 1.4-0.5 1.4-1.6 0-1.2-1.1-2.9-1.7-3.7-0.8-1.1-2.5-2.2-3.6-2.8-2.8-1.1-8.1 0-8.1 3.6z"/>
	<path fill-rule="evenodd" class="s23" d="m213.5 215.3c0.3 1.4 0.6 3.1 1.7 4 1.4 1.1 2.8 0.5 4.2-0.3 0.9-0.6 2-1.1 2.8-1.7 0.6-0.3 1.1-0.3 1.1-1.1 0-0.9-0.8-2-1.1-2.5-0.5-0.9-1.7-1.7-2.5-2-2-0.9-5.6 0-5.6 2.5z"/>
	<path fill-rule="evenodd" class="s24" d="m181.8 4.6c0 0 6.2 25.8 23.3 35.7 21.6 12.3 36.8 8.1 36.8 8.1 0 0-19.4-0.6-37.4-12.9-14.8-10.4-22.7-30.9-22.7-30.9z"/>
	<path fill-rule="evenodd" class="s25" d="m141.1 204.4l11.5-16.8c0 0 14.9 42 53.1 55.2l-8.4 5.4c0.2 0-39-11.3-56.2-43.8z"/>
	<path fill-rule="evenodd" class="s16" d="m163 17.2c0 0 55.3 55.6 95.1 80.3 0 0-3.9-15.2-14.6-29.2 0 0.3-33.3-10.7-80.5-51.1z"/>
	<path fill-rule="evenodd" class="s26" d="m385.9 380.4c-4.9 5.5-10.4 10.2-16.2 13.9-11.9 7.6-25.3 11.6-39.1 11.9-9.6 0.3-19.4-1.3-28.7-4.8-8.3-3.1-16.3-7.8-23.3-14.1-0.9-0.8-2-1.8-2.8-2.7-1.3-1.4-2.8-2.9-4.1-4.3-9.5-11.1-15.3-24.6-17.2-38.6-0.7-5.2-0.8-10.5-0.5-15.9 0.3-3.8 0.9-7.9 1.8-11.8 0.2-0.9 0.5-1.9 0.7-2.9 0.3-1 0.5-1.9 0.9-2.9 1-3 2.2-6 3.5-8.9 1-2.2 2.1-4.3 3.2-6.3 0.9-1.4 1.7-2.8 2.8-4.2 2-3 4.1-5.9 6.6-8.6 1.4-1.6 2.8-3.2 4.4-4.5 1-0.9 1.9-1.9 3-2.6 5.8-5 12-9 18.7-11.9 3.2-1.5 6.7-2.7 10.1-3.6 5.7-1.6 11.5-2.7 17.5-3 19.1-1 38.4 5.3 53.6 18.8q0.9 0.8 1.8 1.6c0.6 0.6 1.3 1.2 1.8 1.9 3 3.1 5.7 6.4 8.1 9.8 1.3 2 2.7 4.1 3.8 6.2 0.8 1.4 1.5 2.9 2.2 4.4q0.8 1.7 1.6 3.3c0 0.2 0.1 0.3 0.2 0.7 3.1 7.5 4.8 15.6 5.2 23.7q0.1 1.7 0.2 3.4c-0.1 0.8 0.1 1.6 0 2.4 0.1 1.4-0.1 2.8-0.1 4-0.4 4.9-1.3 9.7-2.5 14.5-1.6 5.5-3.7 11-6.4 16.2-3.1 5.1-6.6 10.2-10.8 14.9z"/>
	<path fill-rule="evenodd" class="s27" d="m385.9 379.4c-4.9 5.6-10.4 10.2-16.2 13.9-11.9 7.6-25.3 11.7-39.1 12-9.6 0.3-19.4-1.4-28.7-4.9-8.3-3.1-16.3-7.8-23.3-14-0.9-0.9-2-1.8-2.8-2.8-1.3-1.4-2.8-2.9-4.1-4.3-9.5-11.1-15.3-24.6-17.2-38.5-0.7-5.2-0.8-10.6-0.5-15.9 0.3-3.9 0.9-7.9 1.8-11.8 0.2-1 0.5-2 0.7-2.9 0.3-1.1 0.5-2 0.9-2.9 1-3 2.2-6.1 3.5-9 1-2.1 2.1-4.2 3.2-6.2 0.9-1.5 1.7-2.9 2.8-4.3 2-3 4.1-5.8 6.6-8.6 1.4-1.6 2.8-3.1 4.4-4.5 1-0.9 1.9-1.8 3-2.6 5.8-5 12-8.9 18.7-11.9 3.2-1.4 6.7-2.7 10.1-3.6 5.7-1.6 11.5-2.7 17.5-2.9 19.1-1 38.4 5.2 53.6 18.8q0.9 0.8 1.8 1.6c0.6 0.5 1.3 1.1 1.8 1.8 3 3.1 5.7 6.4 8.1 9.8 1.3 2.1 2.7 4.2 3.8 6.2 0.8 1.5 1.5 2.9 2.2 4.4q0.8 1.7 1.6 3.4c0 0.2 0.1 0.3 0.2 0.6 3.1 7.5 4.8 15.6 5.2 23.8q0.1 1.7 0.2 3.4c-0.1 0.8 0.1 1.6 0 2.4 0.1 1.3-0.1 2.7-0.1 3.9-0.4 4.9-1.3 9.8-2.5 14.5-1.6 5.6-3.7 11.1-6.4 16.2-3.1 5.1-6.6 10.2-10.8 14.9z"/>
	<path fill-rule="evenodd" class="s28" d="m400.3 300.8c-0.2-0.2-0.4-0.3-0.7-0.4-0.7-0.4-1.2-1-1.7-1.7-0.4-0.5-0.4-1-1-1.5-0.6-0.8-0.9-1.5-1.5-2.3-0.7-0.8-1-1.5-1.5-2.4-0.4-0.8-0.8-0.9-1.3-1.2-0.6-0.3-0.8-0.8-1.1-1.4-0.3-0.6-0.9-1.2-1.2-1.7-1.2-1.5-2.2-3.3-3.3-4.9-0.7-1-1.5-1.7-2.4-2.6-0.7-0.6-1.6-0.9-2.3-1.6-0.4-0.4-0.7-0.8-1.2-1.2-0.3-0.6-0.9-0.9-1.4-1.3-0.6-0.8-0.8-1.2-1.8-1.6-0.7-0.4-1-0.7-1.7-1.1-0.6-0.6-1.5-1-2.2-1.4-1.3-0.7-2.7-1.5-3.8-2.5-0.7-0.6-1.4-1.7-2.2-2-0.5-0.2-1.2 0.1-1.8 0-1.1 0.1-2.1 0.1-3.1 0.2-1 0.2-2.2 0.5-2.9 1.4-0.7 0.7-1.1 1.8-1.2 2.8-0.3 1-0.7 1.7-1.9 1.6-1.4-0.2-2.9-0.7-4.1-1.1-1-0.4-1.7-0.8-1.7-1.8-0.1-0.3 0.1-0.8 0.1-1.2-0.2-0.3-0.6-0.5-1-0.6-0.9-0.4-1.8-0.8-2.7-1.3-0.5-0.3-1.1-0.4-1.6-0.8-0.6-0.3-0.6-1-1.3-1.4-0.8-0.5-2-0.9-2.7-1.6-0.6-0.5-1.1-1.4-1.3-2-0.2-0.4-0.1-0.7-0.5-0.9-0.3-0.2-0.9-0.2-1.3 0-0.4 0-0.8 0.4-1.2 0.4-0.6 0.1-0.9 0.3-1.5 0.4q-1.3 0.4-2.7 0.9c-0.5 0.1-1.3 0.5-2 0.6-0.3 0.1-0.8-0.1-1.1-0.2-0.9-0.2-1.9-0.2-2.9-0.4-1.8-0.1-3.7-0.1-5.5-0.2-1.4-0.1-2.9-0.8-4.3-1.2q-1.2-0.4-2.4-0.9c-0.4 0-0.7-0.4-1.1-0.2-0.4 0-0.7 0.1-1.2 0.4-1 0.2-2.2 0.4-3.2 0.8-0.7 0.2-1.2 0.5-1.8 0.8-0.8 0.4-1.7 0.6-2.5 1.3-1.6 0.9-2.9 2.3-4.7 3.1-0.9 0.5-2 0.8-3 1.2-1.7 0.7-3.1 2-4.4 3.3-0.7 0.6-1.5 1.6-2 2.5-0.7 0.9-1.4 1.8-2.2 2.6-0.7 0.9-2.2 1.3-3.2 1.5-1 0.2-2-0.3-3.2-0.3-0.9 0.1-1.9 0-2.8 0.5-0.3 0.2-0.5 0.7-0.8 1-0.8 0.6-1.6 1-2.2 1.7-0.9 0.8-1.7 1.6-2.5 2.6-0.5 0.5-0.8 0.8-1.2 1.3-0.4 0.5-0.6 1-0.8 1.4-0.3 0.3-0.6 0.6-0.8 0.9-0.3 0.3-0.4 0.9-0.6 1.2-0.5 1-1.1 1.8-1.7 2.8-0.5 0.8-0.8 1.9-1.4 2.7-0.5 1.3-1.2 2.3-1.9 3.6-0.6 0.9-1.3 1.7-1.8 2.5-0.5 0.8-0.9 1.5-1.4 2.1-0.9 0.9-1.9 1.6-2.7 2.5-1.4 1.6-2.3 3.7-3.3 5.6-0.3 0.6-0.5 1-0.8 1.6 3-11.2 8.7-21.9 17-31.2 10.1-11.3 22.7-19 36.1-22.8 5.7-1.6 11.6-2.7 17.5-2.8 19-1 38.4 5.2 53.6 18.8 1.2 1.1 2.5 2.2 3.5 3.4 7.5 6.5 12.8 14.9 16.4 23.7z"/>
	<path fill-rule="evenodd" class="s29" d="m298.8 300.1c15.5 19.1 10 23.1 36.4 36.1 26.4 12.9 70.4-5.7 70.4-5.7 0 0 3.2-1.5 3.5-3.8 0.2-0.9-3.6-2.1-3.6-2.1-8.8 10.8-42.2 19.5-63.8 11.3-2.3-1-4.2-2.3-6.2-3.4-0.4-1-0.7-4.5 13.5-2.7 16.8 2.2 23.8 3.7 29.5-4.6 5.8-8.3 25.5-11.8 25.5-11.8 0 0 3.5-2.5 3.4-6 0-4.5-7.2-6.5-7.2-6.5 0 0-14.4 13.5-39.5 5.1-25.2-8.4-31.9-21.4-36.9-29.7-5-8.4 3.4-21.9 3.4-21.9 0 0-4.8-6.5-10.3-4.7-4 1.4-4.9 6.9-4.9 6.9 0 0 7.4 14 13.8 26.7 6.4 12.6 28.5 26.1 38 28.7 9.7 2.8 14.4-2.5 24.1-2.5 4 0.1 7.5 0.6 10.2 1.5 0 0-14.3 4-19.4 11.1-5.1 7.2-8.9 3.3-29.1 5.9-14.1 1.7-22.5-1.1-26.1-3-8.3-6.1-14.5-13.2-21.5-24.2-11.6-17.9-14.7-32.8-14.7-32.8 0 0-0.7-1.8-2.5-0.7-0.8 0.4-1 3.4-1 3.4 0 0-0.5 10.2 15 29.4z"/>
	<path fill-rule="evenodd" class="s30" d="m262.6 366.3c0 0-1.9-6.9 2.7-18.7 4.5-11.8 4.3-10.8 3-22-1.3-11.2-7.4-26.3-7.4-26.3 0 0-0.9-0.4-1.1-0.2-1 1.1 0.1 2.5 0.1 2.5 0 0 6.2 13.6 6.2 26.4 0.1 12.9-4.4 31.8-8.7 26.7 0 0-1.7 4.1 0.3 7.2 1.8 2.9 4.9 4.4 4.9 4.4z"/>
	<path class="s31" d="m345.4 363.7c4.2-0.4 9.4-1.2 19.7 7.8 10.3 9 13.5 16 13.5 16 0 0 2.6 1.3 5.3-1.3 2.8-2.6 1.8-5.8 1.8-5.8-0.9 0.7-7.1 5.6-12.7-5.5 0.1-0.2 5.6-0.2 11.4-5.4 5.9-5.2 15.3-11.7 15.3-11.7 0 0 3-1 3.8-3.3 0.3-0.8-1.5-2.9-1.5-2.9-8.6 13.3-25.5 23.4-31.8 20.8-5.8-4.9-13.6-10.2-18.8-10.9-6.3-0.9-20.7 7.5-30.7 13.6-2.4 1.5-5.7 2.6-9.3 3.3-7.7-4.1 1.2-10 0.5-14.7-0.7-4.7-6.8-8.1-9.2-12.4-2.1-4.3-0.7-7.8-3.9-11.4-3.1-3.7-14.9-1.9-19-10.5-4-8.6-2.3-53.9-2.3-53.9 0 0-1.5-2.2-3.1-1.3-1.4 0.8-1.4 5.8-1.4 5.8 0 0-5.5 36.4 6.2 52.3 11.6 15.8 27.2 24.7 28.2 32.6 1 8-4.3 14.6-4.4 14.7-9.1 0.9-18.6 0.3-22.4-0.7-6.5-1.7-15.3-6.7-15.3-6.7 0 2.1 1.2 4.9 2.8 7.4 2.4 3.7 5.8 3.9 5.8 3.9 0 0-0.4-3.1 3.8-3.1 10.7 0.3 17.1 2 24.7 6.1 4.7 2.4 4.3 5.3 5.3 5.1 4.2 7.2 12.8 6.9 21.6 7.1 8.6 0.4 15.7 5.6 15.7 5.6 0 0 3.8 2.3 6.1 1.8 2-0.6 1.5-3.9 1.5-3.9 0 0-3.9-1.3-11.9-3.4-7.8-2-20.8 0.9-27.2-5.3-3.6-3.4 0.6-6.4 0.7-7.3 0.3-0.3 0.5-0.5 0.8-0.9 2.2-2.7 3.9-5.8 5.6-7.7 0.5-0.5 0.9-1 1.4-1.4 3.7-2.1 19.3-12.2 23.4-12.5zm-33.8 14.7q-3.9 0.7-8.1 1.2zm1.4 8.6c-0.4 0.7-0.8 1.5-1.6 2.1q-0.5 0.5-1 0.4c-0.3-0.1-0.5-0.2-0.7-0.4-0.3-0.1-0.7-0.4-1-0.5-0.6-0.3-1-0.9-1.3-1.2q-0.8-0.6-1.5-1.3c-0.2-0.2-0.3-0.5-0.6-0.7-0.2-0.2-0.6-0.6-0.6-0.8-0.2-0.6-0.1-1.6-0.3-2 0.4-0.5 0.7-0.9 1.3-1 0.1-0.1 0.3-0.1 0.6-0.4 0.3-0.1 0.5-0.4 0.8-0.5 0.8-0.4 1.6-0.8 2.5-0.8 0.3-0.2 0.9-0.3 1.2-0.5 0.6-0.1 1-0.1 1.5-0.2 0.7 0 1.4 0 2 0.1 0.6 0.1 1.4 0.4 1.8 0.9 0.4 0.6-0.1 1.3-0.3 1.8-0.1 0.3-0.4 0.7-0.5 1q-0.3 0.7-0.6 1.4c-0.3 0.6-0.6 1-0.9 1.6-0.3 0.2-0.6 0.6-0.8 1z"/>
	<path fill-rule="evenodd" class="s32" d="m320.1 250.2c0 0-2.3 7.5 0 18.2 0 0 4.7-9.6 6-14.1 0 0-0.3-4-6-4.1z"/>
	<path fill-rule="evenodd" class="s32" d="m339.8 297.1c0 0 6 2.1 6.8 4.1 0.1-0.1-5.2-2.7-6.8-4.1z"/>
	<path fill-rule="evenodd" class="s32" d="m358.4 306.1c1.1 0.5 2.1 1 3.2 1.3 0.9 0.4 1.8 0.6 2.8 0.9 1.3 0.2 2.6 0.5 3.8 0.5 0.3 0.1 0.6 0.1 0.9 0.2 0.4 0.1 0.8 0 1.2 0.1 0.3 0.1 0.6 0 1 0.1 0.3 0.1 0.7-0.1 1 0 0.6 0.1 1.3 0.1 1.7 0 0.2 0 0.5 0 0.9 0 0.2 0 0.4 0.1 0.5 0.2-0.1 0.1-0.5 0.2-0.6 0.3-0.3 0.2-0.5 0.2-0.9 0.3-0.6 0.3-1.3 0.1-2.1 0.3-0.5 0-0.9 0-1.5 0-0.6-0.1-1.2-0.3-1.9-0.5-0.7-0.2-1.3-0.5-1.9-0.5-0.6-0.1-1.2-0.3-1.7-0.5-0.3-0.1-0.9-0.2-1.3-0.3q-0.5-0.1-1-0.2c-0.6-0.1-1-0.3-1.6-0.4-0.4-0.1-0.5-0.2-0.8-0.3-0.6 0-1.3-0.5-1.8-0.9-0.1-0.1-0.3-0.3-0.4-0.4-0.2-0.1-0.2-0.3-0.2-0.3 0.4 0.1 0.6 0 0.7 0.1z"/>
	<path fill-rule="evenodd" class="s32" d="m377.3 308.9c-0.4-0.1-0.6-0.1-1 0-0.1 0.1-0.4 0.1-0.1 0.3 0.2 0.2 0.4 0.2 0.9 0.2 0.2 0 0.5-0.2 0.5-0.4 0-0.2-0.3-0.3-0.5-0.3z"/>
	<path fill-rule="evenodd" class="s32" d="m400.8 301.9c-0.3 0.2-0.8 0.2-1.1 0.3-0.4 0.2-0.5 0.3-0.8 0.4-0.4 0.3-1 0.7-1.4 0.9-0.9 0.5-1.8 1.3-2.8 1.7-0.4 0.2-0.8 0.4-1.3 0.5-0.3 0-0.6 0.2-0.7 0.3-0.2 0-0.3 0.1-0.7 0.2-0.2 0.1-0.3 0.2-0.5 0.2-0.3 0-0.5 0.3-0.7 0.3-0.2 0-0.8 0.1-0.8 0.4 0.1 0.1 0.3-0.1 0.4 0 0.2 0 0.5 0.1 0.9 0 0.6 0.1 1.1-0.1 1.7-0.2 0.2 0 0.4-0.1 0.8-0.2 0.3-0.1 0.6 0 1-0.2 0.5-0.1 1.2-0.2 1.7-0.2 0.2 0 0.5-0.1 0.8-0.2 0.2 0 0.4 0 0.7-0.1 0.9-0.1 1.7-0.2 2.6-0.3 0.7-0.1 1.4-0.3 2.1-0.4 0.5-0.1 1.1-0.3 1.5-0.5 0.3 0 0.7-0.3 0.8-0.4 0.1-0.4 0-0.7-0.3-0.9q-0.5-0.5-1-1c-0.5-0.2-0.8-0.2-1.3-0.4-0.4-0.1-0.8-0.1-1.3-0.3-0.3 0.1-0.6 0-0.3 0.1z"/>
	<path fill-rule="evenodd" class="s32" d="m397.5 311.3q-0.5 0.2-1 0.5c-0.2 0-0.6 0.1-0.8 0.1-0.5 0.2-1 0.4-1.4 0.5-0.9 0.2-2 0.4-2.7 0.8q-0.5 0.2-1 0.4c-0.4 0.1-0.8 0.4-1 0.6-0.4 0.2-0.6 0.4-1 0.7-0.2 0.2-0.6 0.4-0.8 0.6 0.5 0 0.9-0.3 1.4-0.3 0.3-0.2 0.6-0.3 1-0.2 0.3 0.1 0.7 0 1-0.2 0.3-0.1 0.7 0 1-0.2 0.3-0.1 0.6-0.1 0.9-0.2 0.2-0.1 0.6-0.2 0.9-0.3q0.5-0.2 1-0.4c0.6-0.4 1.2-0.7 1.8-1.1 0.2-0.2 0.5-0.3 0.6-0.7 0.1-0.1 0.3-0.8 0.1-0.6z"/>
	<path fill-rule="evenodd" class="s32" d="m386.6 315.7c-0.5 0.2-0.8 0.4-1.1 0.7-0.1 0.2-0.2 0.3-0.2 0.3 0.1 0.1 0.2 0.2 0.3 0.1 0.1 0.1 0.2 0 0.3-0.2 0.3 0 0.6-0.1 0.7-0.5 0.2-0.2 0.1-0.5-0.2-0.4z"/>
	<path fill-rule="evenodd" class="s32" d="m366 327c-1.1 0.1-2.5 0-3.6 0.3-0.1 0.1-0.7 0-0.7 0.2 0 0.2 0.4 0.3 0.5 0.4 0.5 0.2 1 0.3 1.5 0.5 0.3 0.1 0.8 0.1 1.1 0.2 0.9 0.1 1.9 0.1 2.9-0.1 0.4 0 0.8-0.2 1.1-0.3 0.1-0.1 0.4-0.3 0.4-0.3 0.2-0.4-0.8-0.7-1-0.7-0.3 0-0.6-0.1-0.8 0-0.2 0-0.5 0-0.6-0.1-0.2 0-0.4 0-0.8-0.1-0.3 0.2-0.1 0.1 0 0z"/>
	<path fill-rule="evenodd" class="s32" d="m360.5 327.5c-0.4-0.1-0.7-0.2-0.9-0.2-0.2 0.1-0.5 0.1-0.5 0.3 0 0.2 0.4 0.3 0.4 0.3 0.1 0.1 0.3 0.1 0.5 0.1 0.3-0.3 0.3-0.3 0.5-0.5z"/>
	<path fill-rule="evenodd" class="s32" d="m333.3 328.6c-0.8-0.1-1.7-0.3-2.7-0.4-1-0.3-1.9-0.7-2.8-0.9-1.6-0.3-3.1-0.8-4.6-1.3-0.3 0-2.5-0.8-2.2 0.1 0.1 0.3 0.5 0.6 0.7 0.8 0.3 0.2 0.4 0.6 0.6 0.8q0.4 0.3 0.7 0.6c1.3 1.2 3.1 2.1 4.7 2.7 0.4 0.1 0.8 0.3 1.2 0.3 0.2 0 0.4 0 0.8 0.1 0.4 0 0.9 0 1.3-0.3 0.7-0.3 1.1-0.5 1.7-1.1 0.2-0.3 0.2-0.5 0.3-0.8 0.1-0.2 0.1-0.4 0.3-0.6z"/>
	<path fill-rule="evenodd" class="s32" d="m320.4 324.4c-0.2-0.3-0.3-0.9-0.7-1.2q-0.1-0.2-0.3-0.3c-0.3-0.2-0.7-0.4-1.1-0.5-0.4 0 0 0.8 0.1 1.1 0.1 0.3 0.6 0.8 0.9 0.9 0.3 0.2 0.8 0.2 1.1 0 0.1 0.1 0.1 0.1 0.1 0.1z"/>
	<path fill-rule="evenodd" class="s32" d="m340.9 336c1.5 0.7 3.1 1.3 4.7 1.7 0.7 0.1 1.3 0.2 2 0.4 0.3 0.1 0.9 0.2 1.2 0.3 0.2 0.1 1.3 0.2 1.2 0.6-0.1 0.3-1.2 0.2-1.5 0.2-0.4 0-1-0.1-1.6-0.2-0.4 0.1-0.8-0.2-1.2-0.2-0.6-0.1-1.1-0.3-1.7-0.5-0.4-0.1-0.9-0.3-1.2-0.4-0.3 0-0.6-0.3-0.9-0.3-0.1-0.2-0.4-0.4-0.5-0.5-0.1-0.3-0.7-0.6-0.5-1.1z"/>
	<path fill-rule="evenodd" class="s32" d="m361.4 366.3c0.6 0.5 1.2 1.3 1.9 1.7 0.6 0.3 1 0.6 1.5 0.9 1 0.6 2.1 1.2 3 2q0.5 0.5 1 0.9c0.3 0.2 0.5 0.5 0.6 0.6 0.1 0.1 0.3 0.4 0.2 0.5 0 0.5-0.2 0.3-0.4 0.2-0.4-0.2-0.9-0.2-1.2-0.5-0.7-0.4-1.3-0.7-2-1.1-0.4-0.4-0.7-0.7-1.2-1.1-0.6-0.3-1.1-0.7-1.7-1.3-0.4-0.4-0.8-0.7-1.3-1.1-0.3-0.3-0.4-0.7-0.8-1-0.2-0.2-0.5-0.4-0.5-0.6 0 0.2 0-0.3 0.9-0.1z"/>
	<path fill-rule="evenodd" class="s32" d="m375.1 379.6c0.6 0.8 1.1 1.2 1.9 1.7 0.6 0.3 1.1 0.7 1.5 0.9 0.7 0.4 1.7 0.8 2.6 1 0.5 0.1 1.5 0.2 1.7 0.7 0.3 0.4 0.3 1.1 0 1.5-0.5 0.5-1.2 0.3-1.6 0.3-0.8-0.1-1.8-0.6-2.4-1.1-0.8-0.6-1.5-1.5-2.1-2.3-0.2-0.2-0.3-0.5-0.6-0.7-0.1-0.3-0.6-0.8-1-2z"/>
	<path fill-rule="evenodd" class="s32" d="m402 352.9c-0.4 0.5-2 1.5-1.7 2.4 0.1 0.5 0.8 0 1-0.2 0.4-0.3 1.1-1.5 0.7-2.2z"/>
	<path fill-rule="evenodd" class="s32" d="m285.5 270.1c0 1.2-0.3 2.3 0.1 3.2 0.2 0.7 0.2 1.4 0.6 1.9 0.4 0.6 0.9 1.2 1.3 1.7 0.3 0.2 0.4 0.3 0.7-0.1 0.1-0.1 0.2-0.5 0.2-0.7 0.1-0.3 0-0.7 0-1.1-0.1-0.5 0-0.8 0-1.3-0.2-1.4-0.6-2.7-1.3-4-0.3-0.4-0.3-0.4-0.7-0.6-0.4-0.1-0.4-0.1-0.7 0-0.3 0.4-0.4 1-0.5 1.5z"/>
	<path fill-rule="evenodd" class="s32" d="m276 281.7c-0.5 2.2-0.5 4.3-0.6 6.6-0.1 1.5-0.7 3.1-0.6 4.7 0 0.2 0.4 3 1 2.2 0.1-0.1 0.3-1.2 0.4-1.4 0.1-0.5 0.3-1.2 0.3-1.9 0-0.6-0.1-1.1 0.1-1.6 0.1-0.6 0.1-1 0.2-1.6-0.1-0.7 0.2-1.5 0.3-2.1 0.1-0.6 0.2-1.4 0.3-1.9 0.1-0.9 0.2-2-0.2-2.7 0-0.3-0.1-0.6-0.5-0.7-0.9-0.2-1.3 0.8-0.7 0.4z"/>
	<path fill-rule="evenodd" class="s32" d="m306 356.9c1.5 0.9 2.7 1.5 3.7 3.1 0.5 0.6 0.9 1.4 1.3 2 0.3 0.5 0.8 1.1 0.8 1.6-0.1 0.6-0.5 1-1.1 1-0.7 0-1.4-0.9-1.9-1.3-0.8-0.9-1.5-1.8-2.3-2.9-0.3-0.5-0.8-1.4-1-2.2 0-0.2 0-1.1 0.5-1.3z"/>
	<path fill-rule="evenodd" class="s32" d="m317.2 379c-0.5-0.6 0.5-1.9 1.1-2.2 0.4-0.1 0.9-0.5 1.4-0.3 0.3 0.1 0.2 0.4 0.5 0.6-0.8 0.4-1.6 0.6-2.4 0.8z"/>
	<path fill-rule="evenodd" class="s32" d="m341.1 399.8c1.4 0.1 2.3 0.3 3.5 0.9q0.8 0.4 1.7 0.9c0.7 0.4 1.5 0.5 2.1 1 0.2 0.2 0.4 0.3 0.7 0.4 0.2 0.2 0.2 0 0.4 0.3 0.2 0.7-0.3 0.8-0.8 0.9-1-0.1-1.7-0.3-2.5-0.8-0.6-0.3-1.1-0.3-1.7-0.6-0.3-0.1-0.5-0.3-0.9-0.4-1.3-0.7-2.1-1.9-2.5-2.6z"/>
	<path fill-rule="evenodd" class="s32" d="m267.5 330.3c-0.5 1.5-1 3-1.1 4.6-0.1 0.8-0.2 1.4 0.1 2.1 0.2 0.4 0.5 0.8 1 0.2 0.2-0.2 0.4-0.9 0.5-1.2 0.3-1.3 0.2-2.4 0.4-3.6 0-0.4 0.2-1.1 0-1.5-0.2-0.4-0.6-1.2-0.9-0.6z"/>
	<path fill-rule="evenodd" class="s32" d="m267.7 374.3c1.5 0.9 3 1.4 4.5 2.1 0.7 0.2 1.2 0.6 1.8 1.1h0.2c0.1 0.1 0.4 0.3 0.5 0.4 0.1 0.1 0.8 0.5 0.8 0.8 0.2 0.7-1.7 0.9-2 0.8-1.6 0.1-3.3-0.6-4.5-1.9-0.5-0.7-0.9-1.4-1.4-2.1-0.3-0.3-0.9-1.3-0.5-1.8 0 0.3 0.1 0.2 0.6 0.6z"/>
	<path fill-rule="evenodd" class="s32" d="m301 380.9c-1.7-0.3-3.6-0.7-5.5-0.2-1.4 0.3-0.1 1 0.5 1.3 0.4 0.2 0.9 0.4 1.4 0.4 0.4-0.1 0.8 0 1.3-0.1 0.5-0.1 0.7-0.1 1 0 0.4-0.1 0.8-0.4 1.2-0.3 0.1-0.1 0-0.2 0.1-0.3z"/>
	<path fill-rule="evenodd" class="s32" d="m286.1 336c1.1 0.4 2.2 0.9 3.3 1.1 1 0.3 2.2 0.4 3.2 0.7 1.4 0.3 2.9 0.6 4.1 1.4 0.3 0.3 0.9 0.4 1 1 0.3 0.4 0.3 0.6 0.3 1.1-0.2 1.4-2 1-2.9 0.9-0.8-0.1-1.5-0.1-2.3-0.3-0.8-0.3-1.5-0.7-2.3-1-1.3-0.5-2.8-1-4-1.8-0.7-0.4-0.9-1.1-1.1-1.9-0.1-0.3-0.1-0.8 0-1.1 0-0.2 0.1-0.6 0.7-0.1z"/>
</svg>