<svg width="50" height="54" viewBox="0 0 50 54" fill="none" xmlns="http://www.w3.org/2000/svg">
<path d="M42.5 40.3437H36.1875C35.8148 40.3441 35.447 40.449 35.1115 40.6505C34.776 40.852 34.4815 41.145 34.25 41.5075L26.9375 52.8348C26.7033 53.1984 26.4062 53.4919 26.0682 53.6936C25.7302 53.8953 25.36 54 24.985 54C24.61 54 24.2398 53.8953 23.9018 53.6936C23.5638 53.4919 23.2667 53.1984 23.0325 52.8348L15.72 41.5075C15.4882 41.1445 15.1933 40.8513 14.8574 40.6498C14.5214 40.4483 14.1531 40.3437 13.78 40.3437H7.5C3.345 40.3437 0 36.1914 0 31.0336V9.31009C0 4.1523 3.345 0 7.5 0H42.5C46.6575 0 50 4.1523 50 9.31009V31.0336C50 36.1914 46.6575 40.3437 42.5 40.3437Z" fill="#201F1D"/>
</svg>
