<svg width="50" height="54" viewBox="0 0 50 54" fill="none" xmlns="http://www.w3.org/2000/svg">
<path d="M0 47.8286V20.0571C0 19.08 0.221874 18.1543 0.665624 17.28C1.10937 16.4057 1.72083 15.6857 2.5 15.12L21.25 1.23429C22.3437 0.411429 23.5937 0 25 0C26.4062 0 27.6562 0.411429 28.75 1.23429L47.5 15.12C48.2812 15.6857 48.8937 16.4057 49.3375 17.28C49.7812 18.1543 50.0021 19.08 50 20.0571V47.8286C50 49.5257 49.3875 50.9791 48.1625 52.1887C46.9375 53.3983 45.4667 54.002 43.75 54H34.375C33.4896 54 32.7479 53.7038 32.15 53.1113C31.5521 52.5188 31.2521 51.7865 31.25 50.9143V35.4857C31.25 34.6114 30.95 33.8791 30.35 33.2887C29.75 32.6983 29.0083 32.4021 28.125 32.4H21.875C20.9896 32.4 20.2479 32.6962 19.65 33.2887C19.0521 33.8811 18.7521 34.6135 18.75 35.4857V50.9143C18.75 51.7886 18.45 52.5219 17.85 53.1144C17.25 53.7068 16.5083 54.002 15.625 54H6.25C4.53125 54 3.06042 53.3962 1.8375 52.1887C0.614583 50.9811 0.00208333 49.5278 0 47.8286Z" fill="#201F1D"/>
</svg>
