<svg width="50" height="54" viewBox="0 0 50 54" fill="none" xmlns="http://www.w3.org/2000/svg">
<path d="M49.9989 39.5705C49.8913 40.6294 49.5056 41.6421 48.8801 42.508C48.3107 43.3426 47.5423 44.0255 46.6428 44.4964C45.7433 44.9673 44.7404 45.2117 43.7227 45.2079H35.7001C35.5584 45.9349 35.3483 46.6471 35.0725 47.3354C34.5232 48.6561 33.7146 49.8558 32.6935 50.8652C31.6724 51.8745 30.4591 52.6735 29.1238 53.2158C27.7731 53.7558 26.3241 54.0204 24.8669 53.9988H24.6486C23.3005 53.9864 21.9671 53.7207 20.7192 53.2158C19.3635 52.695 18.1356 51.8942 17.1172 50.8669C16.089 49.8637 15.2808 48.6615 14.7432 47.3354C14.4673 46.6463 14.2572 45.9331 14.1156 45.2052H6.42047C5.41546 45.2847 4.40616 45.1171 3.48251 44.7171C2.55886 44.3172 1.74954 43.6974 1.12666 42.913C0.537388 41.9662 0.168054 40.9018 0.0453558 39.7966C-0.0773425 38.6914 0.0496601 37.573 0.417184 36.5223C1.01055 34.9637 1.81863 33.4937 2.8185 32.1539C3.96789 30.7802 4.7387 29.1359 5.05609 27.3804C5.05609 19.5885 5.05609 16.9453 9.36754 11.8749C10.7889 10.1947 12.5566 8.83426 14.5522 7.88445L16.6806 6.85849C16.7848 6.79332 16.8771 6.71116 16.9535 6.6155C17.0359 6.51329 17.0921 6.39287 17.1172 6.26451C17.4271 4.94791 18.0651 3.72899 18.9731 2.71886C19.8811 1.70873 21.0301 0.939507 22.3155 0.48132C23.6014 0.0220031 24.983 -0.111403 26.3343 0.0932756C27.6856 0.297954 28.9636 0.834199 30.0516 1.65308C31.544 2.82937 32.5212 4.52914 32.7804 6.3995V6.66949C32.8597 6.77972 32.9621 6.87179 33.0805 6.93949L35.0452 7.88445C37.0372 8.82942 38.8055 10.1794 40.2299 11.8479C44.5414 16.9453 44.5414 19.5885 44.5414 27.3804C44.907 29.2434 45.742 30.9875 46.97 32.4509C47.9523 33.7495 48.7491 35.1751 49.344 36.6843C49.7915 37.5807 50.018 38.5688 49.9989 39.5705Z" fill="#201F1D"/>
</svg>
