<svg width="50" height="54" viewBox="0 0 50 54" fill="none" xmlns="http://www.w3.org/2000/svg">
<path fill-rule="evenodd" clip-rule="evenodd" d="M29.6823 0.4104C28.7086 -1.19209e-07 27.4718 0 25.0007 0C22.5297 0 21.2955 -1.19209e-07 20.3192 0.4104C19.6768 0.679713 19.0926 1.07671 18.6004 1.57855C18.1081 2.08038 17.7174 2.67715 17.4508 3.3345C17.2034 3.9366 17.1087 4.6413 17.0692 5.6646C17.0504 6.40575 16.8483 7.12984 16.4819 7.76886C16.1155 8.40787 15.5968 8.94084 14.9745 9.3177C14.3396 9.67978 13.6259 9.87159 12.8995 9.87537C12.1732 9.87914 11.4576 9.69476 10.8192 9.3393C9.92975 8.8587 9.28501 8.5941 8.64817 8.5077C7.25497 8.32119 5.84625 8.70533 4.72713 9.5769C3.89029 10.2303 3.27187 11.3211 2.03767 13.5C0.800828 15.6789 0.18504 16.767 0.045567 17.8335C-0.138643 19.2537 0.240303 20.6901 1.0982 21.8268C1.48767 22.3452 2.03767 22.7799 2.88766 23.3253C4.14292 24.1272 4.94818 25.4934 4.94818 27C4.94818 28.5066 4.14292 29.8728 2.89029 30.672C2.03767 31.2201 1.48767 31.6548 1.09556 32.1732C0.673371 32.7354 0.363327 33.3774 0.18316 34.0626C0.00299343 34.7478 -0.0437625 35.4627 0.045567 36.1665C0.18504 37.2303 0.800828 38.3211 2.03767 40.5C3.2745 42.6789 3.89029 43.767 4.72713 44.4231C5.84292 45.2952 7.25344 45.6786 8.64817 45.4923C9.28501 45.4059 9.92975 45.1413 10.8192 44.6607C11.458 44.3048 12.174 44.1201 12.9009 44.1239C13.6277 44.1277 14.3419 44.3197 14.9771 44.6823C16.256 45.4383 17.0139 46.8288 17.0692 48.3354C17.1087 49.3614 17.2034 50.0634 17.4508 50.6655C17.9876 51.9885 19.0192 53.0415 20.3192 53.5896C21.2929 54 22.5297 54 25.0007 54C27.4718 54 28.7086 54 29.6823 53.5896C30.3247 53.3203 30.9089 52.9233 31.4011 52.4215C31.8934 51.9196 32.2841 51.3229 32.5507 50.6655C32.7981 50.0634 32.8928 49.3614 32.9323 48.3354C32.9849 46.8288 33.7455 45.4356 35.027 44.6823C35.6619 44.3202 36.3756 44.1284 37.102 44.1246C37.8283 44.1209 38.5439 44.3052 39.1823 44.6607C40.0718 45.1413 40.7165 45.4059 41.3533 45.4923C42.7481 45.6813 44.1586 45.2952 45.2744 44.4231C46.1112 43.7697 46.7296 42.6789 47.9638 40.5C49.2007 38.3211 49.8165 37.233 49.9559 36.1665C50.0449 35.4626 49.9977 34.7475 49.8171 34.0623C49.6365 33.3771 49.326 32.7352 48.9033 32.1732C48.5138 31.6548 47.9638 31.2201 47.1138 30.6747C45.8586 29.8728 45.0533 28.5066 45.0533 27C45.0533 25.4934 45.8586 24.1272 47.1112 23.328C47.9638 22.7799 48.5138 22.3452 48.9059 21.8268C49.3281 21.2646 49.6382 20.6226 49.8183 19.9374C49.9985 19.2522 50.0453 18.5373 49.9559 17.8335C49.8165 16.7697 49.2007 15.6789 47.9638 13.5C46.727 11.3211 46.1112 10.233 45.2744 9.5769C44.1552 8.70533 42.7465 8.32119 41.3533 8.5077C40.7165 8.5941 40.0718 8.8587 39.1823 9.3393C38.5435 9.69524 37.8275 9.87989 37.1006 9.87611C36.3738 9.87233 35.6596 9.68026 35.0244 9.3177C34.4026 8.94051 33.8844 8.4074 33.5185 7.76841C33.1525 7.12941 32.9508 6.40549 32.9323 5.6646C32.8928 4.6386 32.7981 3.9366 32.5507 3.3345C32.2841 2.67715 31.8934 2.08038 31.4011 1.57855C30.9089 1.07671 30.3247 0.679713 29.6823 0.4104ZM25.0007 35.1C29.3955 35.1 32.956 31.4739 32.956 27C32.956 22.5261 29.3928 18.9 25.0007 18.9C20.6087 18.9 17.0455 22.5261 17.0455 27C17.0455 31.4739 20.6087 35.1 25.0007 35.1Z" fill="#201F1D"/>
</svg>
