<svg width="50" height="54" viewBox="0 0 50 54" fill="none" xmlns="http://www.w3.org/2000/svg">
<path d="M49.9824 15.7187C49.9944 15.548 49.9944 15.3765 49.9824 15.2058L44.9841 1.70742C44.789 1.17384 44.4413 0.721324 43.992 0.415506C43.5427 0.109684 43.0148 -0.0335351 42.485 0.00662336H7.49736C6.99683 0.00609994 6.50771 0.167941 6.0933 0.471184C5.67892 0.774427 5.35836 1.2051 5.17318 1.70742L0.174938 15.2058C0.162892 15.3765 0.162892 15.548 0.174938 15.7187C0.0918946 15.869 0.0327625 16.0332 0 16.2046C0.0278167 18.0708 0.502888 19.8973 1.37888 21.5059C2.25486 23.1146 3.50187 24.4506 4.99824 25.3835V51.3003C4.99824 52.0163 5.26155 52.7031 5.73021 53.2093C6.19889 53.7157 6.83454 54 7.49736 54H42.485C43.1478 54 43.7836 53.7157 44.2522 53.2093C44.7207 52.7031 44.9841 52.0163 44.9841 51.3003V25.4915C46.4951 24.5493 47.7512 23.1963 48.6281 21.5671C49.505 19.9379 49.9719 18.0892 49.9824 16.2046C50.0059 16.0437 50.0059 15.8797 49.9824 15.7187ZM27.4903 48.6007H22.4921V37.802H27.4903V48.6007ZM39.9859 48.6007H32.4885V35.1023C32.4885 34.3863 32.2251 33.6998 31.7566 33.1934C31.288 32.6872 30.6522 32.4026 29.9894 32.4026H19.993C19.3301 32.4026 18.6945 32.6872 18.2258 33.1934C17.7571 33.6998 17.4938 34.3863 17.4938 35.1023V48.6007H9.99648V27.0033C11.4196 26.9947 12.8247 26.6578 14.1176 26.0153C15.4106 25.3728 16.5617 24.4395 17.4938 23.2778C18.4319 24.4268 19.5856 25.3471 20.8783 25.9775C22.1709 26.6078 23.5729 26.9338 24.9912 26.9338C26.4094 26.9338 27.8114 26.6078 29.1042 25.9775C30.3968 25.3471 31.5504 24.4268 32.4885 23.2778C33.4207 24.4395 34.5718 25.3728 35.8646 26.0153C37.1576 26.6578 38.5627 26.9947 39.9859 27.0033V48.6007ZM39.9859 21.604C38.6604 21.604 37.3891 21.0351 36.4517 20.0226C35.5142 19.01 34.9877 17.6367 34.9877 16.2046C34.9877 15.4887 34.7243 14.802 34.2557 14.2957C33.7871 13.7894 33.1513 13.505 32.4885 13.505C31.8258 13.505 31.19 13.7894 30.7214 14.2957C30.2528 14.802 29.9894 15.4887 29.9894 16.2046C29.9894 17.6367 29.4629 19.01 28.5254 20.0226C27.588 21.0351 26.3167 21.604 24.9912 21.604C23.6656 21.604 22.3943 21.0351 21.4569 20.0226C20.5195 19.01 19.993 17.6367 19.993 16.2046C19.993 15.4887 19.7296 14.802 19.261 14.2957C18.7923 13.7894 18.1567 13.505 17.4938 13.505C16.831 13.505 16.1954 13.7894 15.7267 14.2957C15.258 14.802 14.9947 15.4887 14.9947 16.2046C15.0193 16.9137 14.9144 17.6211 14.686 18.2863C14.4575 18.9516 14.11 19.5617 13.6633 20.0819C13.2166 20.6021 12.6794 21.0221 12.0824 21.318C11.4854 21.6139 10.8403 21.7799 10.1839 21.8065C8.8583 21.8602 7.56723 21.3428 6.59473 20.3682C6.11319 19.8856 5.72436 19.3053 5.45043 18.6604C5.1765 18.0155 5.02285 17.3187 4.99824 16.6096L9.19676 5.40596H40.7856L44.9841 16.6096C44.8894 17.9703 44.3214 19.2417 43.394 20.1683C42.4668 21.0949 41.249 21.6078 39.9859 21.604Z" fill="#201F1D"/>
</svg>
